<svg width="257" height="128" viewBox="0 0 257 128" fill="none" xmlns="http://www.w3.org/2000/svg">
<path d="M210.909 120.21L210.485 119.979C209.085 119.414 207.312 119.144 205.54 118.874C204.538 118.72 203.574 118.579 202.752 118.373C199.232 117.641 190.844 115.406 187.504 110.242C184.164 105.077 180.168 112.939 174.568 109.728C169.892 107.043 173.257 102.611 170.559 103.626C167.219 104.731 160.655 111.398 157.983 112.528C155.273 113.671 151.599 114.686 147.925 114.84L147.758 114.866C146.036 115.187 145.754 115.907 145.831 116.459C145.933 117.23 146.563 117.962 150.442 118.091C151.11 118.116 152.087 118.116 152.986 118.013C155.748 117.718 158.497 117.166 161.195 116.626C164.792 115.894 168.504 115.149 172.191 115.072C178.653 114.956 184.562 116.857 190.779 118.874C195.301 120.339 199.99 121.854 204.962 122.548C205.886 122.689 206.927 122.792 207.813 122.818C208.16 122.818 208.481 122.818 208.764 122.818C209.393 122.805 211.038 122.754 211.475 121.726C211.693 121.199 211.475 120.621 210.884 120.223L210.909 120.21Z" fill="#507096"/>
<path d="M256.912 99.9646C256.783 99.682 256.166 99.1039 256.166 99.1039L255.704 98.7185C253.186 96.7916 250.835 96.0594 247.392 95.3657C244.489 94.7748 241.368 95.5327 237.848 96.676C233.673 98.0248 228.83 98.4102 228.085 96.9843C227.815 96.4833 228.406 95.8282 229.613 95.3015C231.784 94.3508 232.26 93.9912 234.7 92.4111C238.015 90.2529 231.527 85.9238 227.764 87.1827C224.526 88.2746 224.886 84.5107 225.104 82.9435C225.104 82.8664 225.13 82.7893 225.143 82.7122C225.207 82.0956 225.156 81.4019 225.451 80.8367C225.888 79.9888 226.916 79.5264 227.391 78.6528C227.661 78.2032 227.841 77.7151 227.931 77.2012C228.098 76.3919 227.841 75.5184 228.021 74.8761C228.213 74.0668 229.241 73.5401 229.626 72.5381C230.359 71.2406 229.472 69.5834 230.577 68.6457C231.129 68.1447 231.669 67.5666 231.913 66.8344C232.247 65.9994 232.067 65.0231 232.44 64.4835C232.902 63.8155 233.801 63.61 234.328 62.9805C234.957 62.3896 235.086 61.439 235.715 60.8737C236.229 60.4113 237.257 60.5398 238.092 60.1287C238.798 59.8461 239.312 59.1267 240.083 59.0496C240.661 58.9982 241.406 59.5377 242.241 59.5506C242.935 59.6277 243.641 59.2937 244.322 59.4221C245.067 59.602 245.401 60.5398 246.249 61.0022C246.75 61.3234 247.547 61.4261 247.906 61.9143C248.382 62.8135 247.791 63.5072 249.024 64.4964C250.527 66.0122 249.075 66.8344 248.536 67.785C247.842 69.4421 248.163 70.4827 245.954 71.7159C243.192 72.8207 242.1 73.4758 241.278 75.5312C240.584 77.2526 239.711 80.5412 240.79 80.6183C241.65 80.6825 243.59 76.2891 247.187 75.9808C252.03 75.5698 254.856 69.789 255.293 67.9391C256.847 61.3491 255.575 57.0456 251.362 51.7787C248.227 47.8477 242.395 45.8823 237.501 46.3961C230.102 47.1412 223.563 52.2797 219.324 58.4458C216.921 61.8372 214.185 65.8838 212.22 68.8512C209.509 72.9363 208.353 76.2506 207.017 76.7131C205.912 77.0985 206.259 74.9146 207.865 71.7801C210.807 66.4618 214.789 61.7087 217.846 56.4675C223.46 47.1412 224.976 35.1044 221.482 24.8403C219.195 18.0447 214.571 12.1997 208.058 8.83396C197.524 3.38719 183.83 2.56503 173.296 14.255C166.552 21.7572 166.616 34.3079 174.375 41.1806C181.325 47.3467 190.792 44.8032 194.466 41.7715C198.089 38.7912 199.875 35.5283 199.72 32.4067C199.682 31.3533 199.515 29.542 198.41 29.3107C197.562 29.118 196.368 31.9314 195.751 32.458C194.286 34.1152 193.13 34.963 189.829 35.4384C183.431 36.055 180.862 32.2525 180.657 27.9105C180.708 23.0932 185.024 23.4529 186.81 21.5388C187.748 20.2542 188.557 18.8797 191.46 19.9587C193.529 20.9864 194.505 20.5753 195.982 20.6653C196.843 20.858 197.472 21.8471 198.192 22.3224C199.322 23.1574 200.774 23.0418 201.455 23.9282C202.033 24.7504 202.007 25.8808 202.534 26.7543C203.073 27.8591 204.229 28.5271 204.512 29.3236C204.885 30.3898 204.229 31.5074 204.281 32.6122C204.242 33.961 205.026 35.2585 204.73 36.2091C204.358 37.391 203.163 38.136 202.778 39.3307C202.264 40.4098 202.534 41.7201 201.93 42.735C201.442 43.5571 200.042 43.904 199.142 44.8546C198.307 45.6125 197.871 46.6659 197.549 47.7193C196.984 49.7618 194.248 49.582 192.963 51.3419C191.871 52.4724 191.781 54.1424 190.831 54.8874C190.086 55.5297 188.775 55.7096 187.799 56.4161C187.183 56.8401 186.63 57.3924 186.206 58.0091C185.333 59.1652 185.333 60.8095 184.485 61.9014C183.907 62.6208 182.956 62.9805 182.173 63.443C180.297 64.4578 178.922 66.8087 178.858 68.8898C178.884 69.7504 178.781 70.5469 178.537 71.2791C177.407 73.7071 176.083 74.1438 175.66 73.3217C175.184 72.4096 175.428 71.7416 174.953 70.8681C174.619 70.123 173.45 68.4273 171.639 67.3739C169.827 66.3205 170.2 66.3719 169.956 65.4598C169.648 64.5221 168.697 63.6357 167.708 63.443C167.284 63.3402 166.809 63.3017 166.449 63.0576C165.909 62.6722 165.691 61.9271 165.139 61.5289C164.856 61.3105 164.535 61.1307 164.201 61.0279C163.661 60.8352 163.045 60.938 162.621 60.7453C162.081 60.5398 161.811 59.7818 161.169 59.4221C160.347 58.8055 159.127 59.2551 158.6 58.4073C158.304 57.9834 157.97 57.5594 157.482 57.3282C156.943 57.0199 156.262 57.0584 155.928 56.7501C155.517 56.3647 155.453 55.7353 155.08 55.3242C154.733 54.8361 154.091 54.6691 153.77 54.1809C153.5 53.7827 153.68 53.089 153.487 52.4852C153.359 51.9714 152.909 51.5603 152.935 51.0207C152.96 50.6225 153.384 50.1601 153.487 49.582C153.603 49.1195 153.436 48.6057 153.59 48.1561C153.783 47.6551 154.451 47.5137 154.849 46.9871C155.119 46.6787 155.26 46.1392 155.632 45.9337C156.288 45.6896 156.789 45.741 157.585 44.9959C158.754 44.1095 159.319 44.6234 159.91 45.073C160.976 45.7024 162.749 45.7153 163.379 47.077C163.7 47.9377 163.79 48.246 163.854 49.1195C163.88 49.5049 165.203 51.1364 165.485 48.0147C165.755 45.0473 163.815 42.1954 161.465 40.6924C158.523 38.8169 152.716 38.727 148.67 42.6322C146.178 45.0473 144.739 47.8991 144.623 51.2905C144.443 56.429 146.769 61.6831 150.584 65.1515C152.678 67.1041 157.071 70.4441 158.51 72.9363C162.03 78.9868 158.279 83.483 156.043 84.4978C155.979 84.5235 155.928 84.5492 155.876 84.5878C155.273 84.8318 154.695 85.1401 154.168 85.5898C152.048 87.1441 151.393 89.8932 152.357 93.0277C152.421 93.3874 152.511 93.7728 152.614 94.1582C152.883 95.2244 153.14 96.2392 152.703 96.9201C152.459 97.2541 151.573 97.4082 149.89 96.8687L149.543 96.7531C147.09 95.9052 144.546 95.0188 141.848 95.7639C140.602 96.0722 139.305 96.5218 138.059 96.9586C136.582 97.4725 135.04 98.012 133.55 98.2946L132.933 98.4616C130.39 99.1168 129.054 99.5022 129.002 100.44C128.951 101.185 129.773 101.493 130.094 101.622C133.01 102.444 136.106 101.134 138.842 99.9903C140.834 99.1553 142.658 98.3717 144.289 98.4359C146.203 98.4616 148.554 99.4508 149.325 101.172C150.288 104.936 144.045 107.492 139.472 109.342C138.02 109.933 136.774 110.447 135.939 110.91C134.924 111.423 133.781 112.014 134.166 112.849C134.783 114.147 139.716 112.348 139.742 112.335C145.278 110.177 158.767 105.129 156.968 95.0574C156.853 94.505 156.673 93.9141 156.48 93.3232C155.889 91.4091 156.133 89.9703 156.853 89.0197C157.469 88.2232 158.176 88.0434 158.626 88.0048C159.448 87.9149 160.064 88.1333 160.604 88.9555C161.567 90.4328 163.199 91.2935 165.074 89.7262C166.128 88.8527 171.96 80.0916 171.921 82.4425C171.806 88.8013 163.199 96.8173 162.389 99.0397C162.12 99.7462 160.475 105.424 161.208 105.861C161.876 106.259 162.492 105.514 162.711 105.244C167.669 99.9518 174.246 93.2846 176.405 94.7876C179.886 97.1898 172.371 104.332 178.332 104.011C183.059 103.754 184.485 102.405 187.003 103.921C189.482 105.758 189.585 108.212 190.998 110.653C192.411 113.093 195.777 112.618 195.134 109.175C194.479 105.733 196.368 102.29 197.768 103.793C198.783 104.885 198.731 105.257 199.463 106.375C201.789 110.37 206.041 114.378 211.423 116.035C215.251 117.114 219.632 118.399 224.244 118.54C230.397 118.72 235.086 117.204 240.25 114.648C242.087 113.736 242.986 113.016 242.614 112.194C241.984 110.794 237.257 112.438 236.923 112.554C236.91 112.554 236.91 112.554 236.91 112.554C225.336 114.879 221.328 102.418 218.99 105.758C216.742 108.97 215.778 111.873 210.46 110.524C206.452 109.522 205.026 106.696 204.602 105.822C203.253 103.022 202.135 99.5407 202.123 96.5732C202.097 86.2963 204.962 87.7222 204.872 90.7025C204.782 93.6828 205.321 98.5515 207.826 98.9241C210.331 99.2966 211.205 94.9418 216.472 92.9121C217.641 92.4625 218.335 91.7174 218.874 90.998C218.9 90.9595 218.951 90.9338 218.977 90.9081C219.041 90.831 219.118 90.7154 219.182 90.5869C220.069 89.3665 220.724 88.4031 223.049 89.4565C226.44 90.9851 230.603 88.6985 230.603 89.9189C230.603 91.1393 229.382 94.171 224.064 94.2352C218.746 94.2995 216.716 94.3123 214.082 97.4853C211.436 100.658 212.374 105.771 213.273 106.568C213.581 106.837 213.993 106.863 214.301 106.619L214.468 106.426C215.02 105.476 215.174 104.345 215.341 103.24C215.47 102.367 215.598 101.48 215.932 100.645C216.42 98.9883 218.078 96.9201 219.414 96.843C220.017 96.8173 220.531 97.2669 220.904 98.1661C222.24 102.315 224.822 105.334 228.573 107.146C237.912 111.667 245.453 107.993 249.255 106.246C250.527 105.655 252.017 104.705 253.25 103.947C254.329 103.086 251.863 102.161 246.236 102.816C243.975 103.073 242.678 105.81 241.085 106.285C236.203 107.749 230.525 105.232 228.29 103.086C227.828 102.637 227.738 102.264 227.828 102.046C228.085 101.416 229.947 101.558 230.949 101.519C232.324 101.455 233.891 101.378 235.073 100.992C236.396 100.671 237.642 100.234 238.85 99.8105C241.573 98.8598 244.142 97.9735 247.071 98.6029C248.664 98.847 250.321 99.4251 251.927 99.9775C252.955 100.337 253.957 100.671 254.933 100.941C255.935 101.185 256.783 101.262 256.95 100.761C256.95 100.761 257.091 100.453 256.899 100.042L256.912 99.9646ZM243.86 74.1181C243.256 74.4393 242.755 75.1073 242.639 74.8889C242.524 74.6705 243.05 73.9126 243.654 73.5786C244.258 73.2574 244.695 73.0134 244.81 73.2318C244.926 73.4501 244.464 73.7841 243.847 74.1053L243.86 74.1181ZM247.238 72.7436C246.493 73.2446 245.735 73.0262 245.594 72.8207C245.453 72.6151 246.044 72.5638 246.789 72.0628C247.534 71.5618 248.073 70.6368 248.227 70.8552C248.382 71.0736 247.983 72.2554 247.238 72.7564V72.7436ZM250.219 69.121C249.872 69.8789 249.345 70.3671 249.037 70.2258C248.728 70.0844 248.741 69.3522 249.088 68.6071C249.435 67.8621 249.962 67.3611 250.27 67.5024C250.578 67.6437 250.566 68.3759 250.219 69.121ZM251.311 64.4064C251.645 64.4321 251.876 65.0102 251.812 65.6911C251.747 66.3719 251.426 66.8986 251.092 66.8729C250.758 66.8472 250.527 66.2691 250.591 65.5883C250.655 64.9074 250.977 64.3808 251.311 64.4064ZM250.437 63.944C250.103 64.1238 249.525 63.7128 249.14 63.0191C248.754 62.3254 248.703 61.606 249.024 61.4261C249.358 61.2463 249.936 61.6574 250.321 62.3511C250.707 63.0448 250.758 63.7641 250.437 63.944ZM248.356 57.5337C248.664 57.2768 249.294 57.7778 249.769 58.6385C250.244 59.4992 250.373 60.4113 250.065 60.6682C249.756 60.9251 249.127 60.4241 248.651 59.5634C248.176 58.7027 248.048 57.7907 248.356 57.5337ZM247.598 60.2571C247.38 60.5654 246.724 60.4755 246.146 60.0644C245.568 59.6405 245.273 59.0496 245.491 58.7413C245.71 58.433 246.365 58.5229 246.943 58.934C247.521 59.3579 247.816 59.9488 247.598 60.2571ZM245.735 54.3864C246.493 54.7975 247.007 55.5297 246.879 56.0307C246.75 56.5189 246.018 56.5831 245.26 56.1721C244.502 55.761 243.988 55.0287 244.117 54.5277C244.245 54.0396 244.977 53.9754 245.735 54.3864ZM186.463 36.0164C187.645 36.1192 188.608 36.2734 188.583 36.5817C188.557 36.89 187.555 37.2111 186.373 37.1212C185.191 37.0184 183.997 36.0036 184.022 35.6953C184.048 35.387 185.294 35.9265 186.463 36.0164ZM181.26 32.4966C181.941 33.6142 182.429 34.5905 182.108 34.7832C181.787 34.9759 180.798 34.3079 180.117 33.1903C179.436 32.0727 179.642 30.2742 179.95 30.0815C180.258 29.8888 180.567 31.379 181.26 32.4966ZM180.387 25.4954C179.963 26.7415 179.642 27.8077 179.295 27.6793C178.948 27.5637 178.82 26.369 179.244 25.1229C179.668 23.8768 181.183 22.8877 181.543 23.0161C181.89 23.1317 180.811 24.2493 180.387 25.4954ZM185.538 21.436C184.562 22.1426 183.534 22.3867 183.239 21.9884C182.943 21.5773 183.496 20.6781 184.472 19.9716C185.448 19.265 186.476 19.021 186.771 19.4192C187.067 19.8303 186.515 20.7295 185.538 21.436ZM189.122 18.3273C187.889 18.5713 186.874 18.3787 186.874 17.8777C186.874 17.3767 187.876 16.7729 189.109 16.5288C190.343 16.2847 191.358 16.4774 191.358 16.9784C191.358 17.4794 190.356 18.0832 189.122 18.3273ZM193.657 19.8431C192.501 19.7403 191.602 19.2265 191.64 18.6741C191.692 18.1217 192.668 17.762 193.824 17.8648C194.98 17.9676 195.879 18.4814 195.841 19.0338C195.789 19.5862 194.813 19.9459 193.657 19.8431ZM196.38 17.094C196.535 16.5288 197.819 16.1563 199.245 16.259C200.671 16.3618 201.712 16.9013 201.557 17.4537C201.403 18.019 200.119 18.3915 198.693 18.2887C197.267 18.186 196.226 17.6464 196.38 17.094ZM201.686 21.9756C201.416 22.4637 200.453 22.4252 199.541 21.9113C198.628 21.3975 198.127 20.5882 198.397 20.1C198.667 19.6119 199.63 19.6504 200.543 20.1643C201.455 20.6781 201.956 21.4874 201.686 21.9756ZM160.784 43.9939C161.323 44.1866 161.696 44.5206 161.619 44.739C161.542 44.9574 161.041 44.9959 160.501 44.8032C159.962 44.6105 159.589 44.2765 159.666 44.0581C159.743 43.8397 160.244 43.8012 160.784 43.9939ZM156.262 44.315C156.776 44.1095 157.264 44.1481 157.367 44.3921C157.457 44.6362 157.123 44.9959 156.609 45.2014C156.095 45.407 155.607 45.3684 155.504 45.1244C155.414 44.8803 155.748 44.5206 156.262 44.315ZM162.711 61.8244C162.968 61.4261 163.777 61.4904 164.522 61.9528C165.267 62.4281 165.678 63.1347 165.421 63.5329C165.164 63.9311 164.355 63.8669 163.61 63.4044C162.865 62.9291 162.454 62.2226 162.711 61.8244ZM154.206 46.9357C153.872 47.2954 153.436 47.4367 153.243 47.2568C153.05 47.077 153.179 46.6402 153.513 46.2805C153.847 45.9208 154.284 45.7795 154.476 45.9594C154.669 46.1392 154.54 46.576 154.206 46.9357ZM153.577 44.315C154.219 44.071 154.849 44.071 154.99 44.315C155.131 44.5463 154.733 44.9317 154.104 45.1757C153.461 45.4198 152.832 45.4198 152.691 45.1757C152.549 44.9445 152.948 44.5591 153.577 44.315ZM152.035 49.3251C152.113 48.8369 152.382 48.4772 152.639 48.5157C152.896 48.5543 153.05 48.9782 152.973 49.4792C152.896 49.9674 152.626 50.3271 152.369 50.2885C152.113 50.25 151.958 49.8261 152.035 49.3251ZM152.202 51.8044C152.498 51.7144 152.858 52.087 153.025 52.6394C153.192 53.1917 153.089 53.7056 152.793 53.7955C152.498 53.8854 152.138 53.5129 151.971 52.9605C151.804 52.4081 151.907 51.8943 152.202 51.8044ZM150.288 46.6787C150.648 46.2034 151.188 45.9208 151.522 46.0493C151.843 46.1906 151.817 46.6916 151.457 47.1669C151.098 47.6422 150.558 47.9248 150.224 47.7964C149.903 47.655 149.929 47.1541 150.288 46.6787ZM149.775 48.8369C150.211 48.8497 150.507 49.3764 150.43 50.0059C150.365 50.6354 149.954 51.1364 149.53 51.1235C149.094 51.1107 148.798 50.584 148.875 49.9545C148.94 49.3251 149.351 48.8241 149.775 48.8369ZM150.353 55.0031C149.852 55.093 149.274 54.5663 149.055 53.8469C148.85 53.1147 149.081 52.4595 149.582 52.3696C150.083 52.2797 150.661 52.8064 150.879 53.5257C151.085 54.258 150.854 54.9131 150.353 55.0031ZM152.986 58.7798C152.472 58.9982 151.663 58.5743 151.175 57.8421C150.687 57.1098 150.699 56.3391 151.2 56.1335C151.714 55.9151 152.524 56.3391 153.012 57.0713C153.5 57.8035 153.487 58.5743 152.986 58.7798ZM153.461 55.0287C153.744 54.8104 154.309 55.0673 154.72 55.6197C155.131 56.1721 155.234 56.7758 154.939 56.9942C154.643 57.2126 154.091 56.9557 153.68 56.4033C153.269 55.8637 153.166 55.2471 153.461 55.0287ZM156.699 62.3254C156.172 62.6337 155.183 62.274 154.489 61.5289C153.795 60.7838 153.654 59.936 154.181 59.6277C154.707 59.3194 155.697 59.6791 156.39 60.4241C157.084 61.1692 157.225 62.0171 156.699 62.3254ZM156.622 59.1138C156.043 58.6257 155.787 57.9834 156.043 57.6751C156.3 57.3668 156.981 57.5081 157.559 57.9962C158.137 58.4844 158.394 59.1267 158.137 59.435C157.88 59.7433 157.2 59.602 156.622 59.1138ZM160.874 65.7168C160.334 66.0379 159.294 65.6782 158.548 64.9203C157.803 64.1495 157.636 63.276 158.176 62.9548C158.715 62.6337 159.756 62.9934 160.501 63.7513C161.246 64.5221 161.413 65.3956 160.874 65.7168ZM161.644 61.5161C161.4 61.8886 160.617 61.8244 159.91 61.3491C159.204 60.8866 158.831 60.1929 159.075 59.8204C159.319 59.4478 160.103 59.5121 160.809 59.9874C161.516 60.4627 161.888 61.1435 161.644 61.5161ZM161.978 69.1081C161.465 67.9006 161.786 66.7573 162.698 66.5518C163.61 66.3462 164.753 67.1555 165.267 68.3759C165.781 69.5963 165.46 70.7268 164.548 70.9323C163.636 71.1378 162.492 70.3285 161.978 69.1081ZM166.783 79.6291C165.408 79.5135 164.149 77.8307 163.97 75.8909C163.79 73.9511 164.753 72.4738 166.141 72.5895C167.528 72.7051 168.774 74.3879 168.954 76.3277C169.134 78.2675 168.17 79.7448 166.783 79.6291ZM169.134 66.8858C168.761 67.284 167.862 67.0399 167.117 66.3334C166.372 65.6397 166.076 64.7533 166.449 64.3551C166.821 63.9568 167.721 64.2009 168.466 64.9074C169.211 65.6011 169.506 66.4875 169.134 66.8858ZM172.204 73.8484C171.33 73.9897 170.213 72.9748 169.712 71.5746C169.211 70.1744 169.519 68.9154 170.393 68.7741C171.266 68.6328 172.384 69.6477 172.885 71.0479C173.386 72.4481 173.077 73.7071 172.191 73.8484H172.204ZM212.322 42.1184C211.77 43.904 210.383 45.24 209.227 45.1244C208.07 45.0087 207.569 43.4672 208.122 41.6816C208.674 39.896 210.062 38.56 211.218 38.6756C212.374 38.7912 212.875 40.3327 212.322 42.1184ZM214.159 32.7535C214.172 34.3593 213.324 35.7595 212.258 35.888C211.192 36.0164 210.306 34.8217 210.293 33.216C210.28 31.6102 211.128 30.21 212.194 30.0815C213.26 29.953 214.147 31.1477 214.159 32.7535ZM209.663 23.0803C210.524 22.7849 211.655 23.5557 212.168 24.7889C212.695 26.0221 212.412 27.2682 211.552 27.5508C210.691 27.8463 209.561 27.0755 209.047 25.8423C208.52 24.609 208.803 23.363 209.663 23.0803ZM204.448 18.5071C205.013 18.0318 206.298 18.263 207.313 19.021C208.327 19.7789 208.674 20.7809 208.109 21.2433C207.544 21.7058 206.259 21.4874 205.244 20.7295C204.229 19.9716 203.883 18.9696 204.448 18.5071ZM207.724 32.7407C207.724 33.9482 207.197 34.9245 206.555 34.9245C205.912 34.9245 205.386 33.9482 205.386 32.7407C205.386 31.5331 205.912 30.5568 206.555 30.5568C207.197 30.5568 207.724 31.5331 207.724 32.7407ZM203.587 26.2919C203.137 25.3541 203.176 24.3907 203.677 24.1594C204.178 23.9153 204.949 24.4934 205.398 25.4312C205.848 26.369 205.81 27.3324 205.309 27.5637C204.808 27.7949 204.037 27.2297 203.587 26.2919ZM203.767 39.7804C204.268 38.4315 205.257 37.558 205.964 37.8277C206.67 38.0975 206.85 39.395 206.349 40.7438C205.848 42.0927 204.859 42.9662 204.152 42.6964C203.446 42.4267 203.266 41.1292 203.767 39.7804ZM199.502 46.3062C200.376 44.9702 201.66 44.2637 202.38 44.739C203.099 45.2143 202.958 46.6659 202.071 48.0019C201.185 49.3379 199.913 50.0444 199.194 49.5691C198.487 49.1067 198.616 47.6422 199.489 46.3062H199.502ZM194.158 52.3054C195.314 50.9308 196.83 50.3142 197.562 50.9308C198.294 51.5474 197.948 53.1532 196.804 54.5277C195.648 55.9023 194.132 56.5189 193.4 55.9023C192.668 55.2857 193.015 53.6799 194.158 52.3054ZM187.838 58.5614C189.058 57.1484 190.664 56.5446 191.409 57.1869C192.154 57.8421 191.769 59.5121 190.548 60.9123C189.328 62.3254 187.722 62.9291 186.977 62.2868C186.232 61.6317 186.617 59.9617 187.838 58.5614ZM181.659 66.9114C182.738 65.0488 184.408 63.9954 185.397 64.5734C186.386 65.1515 186.322 67.117 185.243 68.9797C184.164 70.8424 182.494 71.8958 181.505 71.3177C180.515 70.7396 180.58 68.7741 181.659 66.9114ZM181.787 80.6055C180.785 83.1105 178.73 84.652 177.188 84.0354C175.647 83.4188 175.21 80.8881 176.212 78.3831C177.214 75.8781 179.269 74.3365 180.811 74.9531C182.352 75.5698 182.789 78.1005 181.787 80.6055ZM194.813 88.1333C194.453 92.8222 191.525 96.7402 188.262 96.8687C184.999 96.9972 182.648 93.3103 183.008 88.6086C183.367 83.9198 186.296 80.0017 189.559 79.8732C192.822 79.7448 195.173 83.4316 194.813 88.1333ZM197.023 71.6902C196.278 74.3622 194.081 76.3791 192.128 76.1992C190.176 76.0194 189.187 73.7071 189.932 71.0351C190.677 68.3631 192.873 66.3462 194.826 66.5261C196.779 66.7059 197.768 69.0182 197.023 71.6902ZM201.712 60.9123C200.671 62.9034 198.783 64.2651 197.498 63.944C196.213 63.6228 196.008 61.7344 197.048 59.7433C198.089 57.7521 199.977 56.3904 201.262 56.7116C202.547 57.0327 202.752 58.9211 201.712 60.9123ZM203.87 54.5277C202.624 54.2323 202.392 52.4338 203.343 50.5069C204.294 48.58 206.079 47.244 207.325 47.5394C208.571 47.8349 208.803 49.6334 207.852 51.5603C206.901 53.4872 205.116 54.8232 203.87 54.5277ZM233.776 62.5052C233.082 63.1989 232.208 63.4558 231.849 63.0961C231.476 62.7236 231.746 61.8629 232.44 61.1692C233.133 60.4755 234.007 60.2186 234.367 60.5783C234.739 60.9508 234.469 61.8115 233.776 62.5052ZM243.564 58.1118C243.564 58.4972 242.973 58.7927 242.254 58.7798C241.535 58.767 240.957 58.4458 240.969 58.0733C240.969 57.6879 241.56 57.3924 242.28 57.4053C242.999 57.4053 243.577 57.7393 243.564 58.1118ZM240.751 52.9862C241.676 52.9605 242.472 53.4487 242.537 54.0653C242.601 54.6819 241.907 55.2086 240.982 55.2343C240.057 55.26 239.261 54.7718 239.197 54.1552C239.132 53.5386 239.826 53.0119 240.751 52.9862ZM238.747 58.1375C238.927 58.5358 238.464 59.1395 237.707 59.4864C236.949 59.8332 236.191 59.7818 236.011 59.3836C235.831 58.9854 236.293 58.3816 237.051 58.0347C237.809 57.6879 238.567 57.7393 238.747 58.1375ZM235.214 54.0139C236.216 53.5643 237.218 53.7827 237.45 54.4764C237.681 55.1829 237.038 56.1078 236.036 56.5574C235.034 57.0071 234.033 56.7887 233.801 56.095C233.57 55.3884 234.212 54.4635 235.214 54.0139ZM229.883 57.8292C230.834 56.9814 231.939 56.8529 232.35 57.5337C232.761 58.2146 232.311 59.4735 231.348 60.3214C230.384 61.1692 229.292 61.2977 228.881 60.6168C228.483 59.9231 228.92 58.6771 229.883 57.8292ZM229.125 65.8966C229.703 64.9717 230.577 64.4707 231.078 64.779C231.566 65.0873 231.502 66.0893 230.911 67.0142C230.333 67.9391 229.459 68.4401 228.958 68.1318C228.47 67.8235 228.534 66.8215 229.125 65.8966ZM228.573 69.5578C229.164 69.8404 229.215 70.9708 228.676 72.0756C228.149 73.1804 227.237 73.8612 226.646 73.5786C226.055 73.296 226.004 72.1655 226.543 71.0608C227.07 69.956 227.982 69.2751 228.573 69.5578ZM225.246 63.3017C226.184 62.1584 227.378 61.7858 227.905 62.4924C228.444 63.1861 228.123 64.6762 227.186 65.8195C226.248 66.9628 225.053 67.3354 224.526 66.6288C224 65.9223 224.308 64.445 225.246 63.3017ZM221.173 69.8018C222.124 68.5814 223.357 68.1704 223.923 68.8898C224.488 69.6091 224.179 71.1635 223.229 72.3839C222.278 73.6043 221.045 74.0154 220.48 73.296C219.915 72.5894 220.223 71.0222 221.173 69.8018ZM215.277 89.7648C213.427 91.2549 211.128 91.4733 210.139 90.2401C209.149 89.0068 209.83 86.7973 211.68 85.3071C213.53 83.817 215.829 83.5986 216.819 84.8318C217.821 86.0651 217.127 88.2746 215.277 89.7648ZM218.964 80.3999C217.705 81.8258 216.061 82.1984 215.303 81.2221C214.532 80.2586 214.943 78.3188 216.202 76.8929C217.461 75.467 219.105 75.0945 219.863 76.0708C220.634 77.0342 220.223 78.974 218.964 80.3999ZM223.113 84.0354C222.253 85.2429 221.045 85.8467 220.403 85.3842C219.76 84.9218 219.94 83.5858 220.801 82.3782C221.662 81.1707 222.869 80.5669 223.511 81.0294C224.154 81.4918 223.974 82.8278 223.113 84.0354ZM224.501 79.3979C223.884 79.1153 223.807 77.9463 224.334 76.7773C224.86 75.6083 225.798 74.9018 226.415 75.1715C227.031 75.4541 227.108 76.6231 226.582 77.7921C226.055 78.9611 225.117 79.6677 224.501 79.3979Z" fill="#507096"/>
<path d="M102.103 67.8595L101.87 67.7324C101.076 67.4148 100.081 67.2666 99.086 67.1078C98.5144 67.0232 97.9851 66.9385 97.5193 66.822C95.5397 66.4092 90.8184 65.1494 88.9341 62.2489C87.0603 59.3483 84.8055 63.7627 81.6509 61.9631C79.015 60.4493 80.9099 57.9616 79.3961 58.5332C77.5224 59.1578 73.8173 62.9052 72.3246 63.5404C70.8003 64.1861 68.7254 64.7578 66.6611 64.8425H66.5659C65.592 65.033 65.4438 65.4459 65.4755 65.7528C65.5285 66.1869 65.8884 66.5997 68.0691 66.6632C68.4396 66.6738 69.0006 66.6738 69.5088 66.6209C71.0649 66.4621 72.6105 66.1445 74.1349 65.8375C76.1568 65.4247 78.2422 65.0118 80.3171 64.9695C83.9586 64.906 87.272 65.9751 90.776 67.1078C93.3272 67.9336 95.9526 68.7804 98.7578 69.1721C99.2766 69.2568 99.8588 69.3097 100.367 69.3203C100.557 69.3203 100.737 69.3203 100.907 69.3203C101.256 69.3203 102.188 69.278 102.431 68.7063C102.558 68.4099 102.431 68.0923 102.103 67.8595Z" fill="#507096"/>
<path d="M127.985 56.4691C127.911 56.3103 127.562 55.9821 127.562 55.9821L127.308 55.7704C125.889 54.6906 124.566 54.2778 122.629 53.8861C120.988 53.5474 119.231 53.9814 117.262 54.6165C114.912 55.3787 112.191 55.5905 111.768 54.7859C111.619 54.5001 111.948 54.1402 112.625 53.8438C113.843 53.3145 114.118 53.1133 115.494 52.2135C117.357 50.9961 113.705 48.5614 111.598 49.2706C109.777 49.8846 109.979 47.7674 110.106 46.8888H110.095C110.095 46.8888 110.116 46.7935 110.127 46.7512C110.159 46.4018 110.137 46.0101 110.296 45.6926C110.55 45.2162 111.122 44.9515 111.387 44.4646C111.535 44.2105 111.641 43.9353 111.694 43.6495C111.789 43.1943 111.641 42.7073 111.746 42.3368C111.852 41.8816 112.435 41.5852 112.657 41.0136C113.07 40.2831 112.572 39.3516 113.197 38.8223C113.514 38.5364 113.811 38.2189 113.948 37.806C114.139 37.3296 114.033 36.7898 114.245 36.4828C114.509 36.1017 115.007 35.9852 115.303 35.6359C115.663 35.3077 115.727 34.7678 116.087 34.4503C116.373 34.1962 116.955 34.2597 117.421 34.0268C117.812 33.868 118.109 33.4658 118.543 33.4234C118.871 33.3917 119.284 33.6986 119.76 33.7092C120.152 33.7516 120.543 33.561 120.925 33.6351C121.348 33.7304 121.539 34.2597 122.015 34.5244C122.301 34.7043 122.745 34.7678 122.946 35.0325C123.211 35.5406 122.883 35.9217 123.582 36.4828C124.428 37.3296 123.613 37.806 123.306 38.3353C122.915 39.2669 123.095 39.8491 121.856 40.5478C120.3 41.1723 119.686 41.5323 119.22 42.6967C118.829 43.66 118.331 45.5232 118.945 45.5655C119.432 45.5973 120.522 43.1308 122.544 42.9508C125.275 42.7179 126.853 39.468 127.107 38.42C127.985 34.7149 127.266 32.2907 124.894 29.3266C123.126 27.1142 119.845 26.0132 117.092 26.299C112.922 26.7119 109.248 29.6125 106.866 33.0847C105.511 35.0007 103.976 37.2661 102.865 38.9387C101.34 41.2359 100.695 43.099 99.9325 43.3636C99.308 43.5754 99.5091 42.3474 100.419 40.569C102.071 37.5837 104.315 34.9055 106.03 31.9625C109.195 26.7119 110.042 19.9369 108.073 14.1675C106.792 10.346 104.178 7.05374 100.515 5.15885C94.5866 2.08892 86.88 1.63372 80.9519 8.20761C77.1515 12.4314 77.1938 19.4923 81.5553 23.3667C85.4615 26.8389 90.7968 25.3992 92.8611 23.7055C94.9042 22.0223 95.9099 20.1909 95.8146 18.4443C95.7934 17.8514 95.6981 16.8352 95.0736 16.6976C94.5972 16.5917 93.9197 18.169 93.5809 18.4654C92.7552 19.397 92.1095 19.8734 90.2464 20.1486C86.6471 20.4979 85.1968 18.3596 85.0804 15.9142C85.1016 13.2042 87.5363 13.4053 88.542 12.3256C89.0713 11.6057 89.5265 10.8329 91.1673 11.4363C92.3318 12.0186 92.8823 11.7857 93.708 11.8386C94.1949 11.9551 94.5443 12.5055 94.9571 12.7702C95.5923 13.2465 96.4074 13.1724 96.7885 13.67C97.1167 14.1358 97.0955 14.7709 97.3919 15.2685C97.6989 15.893 98.3446 16.2635 98.5034 16.7082C98.7046 17.3116 98.3446 17.9361 98.3764 18.5607C98.3552 19.3229 98.7998 20.0533 98.6305 20.5826C98.4187 21.2495 97.7518 21.6624 97.5295 22.3399C97.2437 22.9433 97.3919 23.6843 97.0532 24.256C96.7779 24.7217 95.9945 24.9123 95.4864 25.4522C95.0206 25.8756 94.7772 26.479 94.5866 27.0612C94.269 28.2151 92.7341 28.1093 92.0036 29.0938C91.3896 29.7289 91.3473 30.6711 90.8074 31.0945C90.384 31.4544 89.6535 31.5603 89.1031 31.952C88.7537 32.1954 88.4467 32.5024 88.2033 32.8518C87.7163 33.5081 87.7163 34.4291 87.2399 35.0431C86.9118 35.4453 86.3825 35.6465 85.9379 35.9111C84.8793 36.4828 84.1065 37.806 84.0747 38.9705C84.0853 39.4468 84.0324 39.902 83.8948 40.3149C83.2596 41.6805 82.5186 41.924 82.2751 41.4582C82.0105 40.9395 82.1481 40.569 81.8729 40.0714C81.6929 39.648 81.026 38.6952 80.0097 38.1024C78.9935 37.5096 79.2052 37.5414 79.057 37.0226C78.8876 36.4933 78.3477 35.9958 77.7973 35.8899C77.5644 35.837 77.2891 35.8158 77.088 35.6782C76.7916 35.4665 76.6645 35.0431 76.347 34.8208C76.1882 34.6937 76.0082 34.5985 75.8177 34.5349C75.5107 34.4291 75.1719 34.482 74.9285 34.3762C74.632 34.2597 74.4732 33.8363 74.1133 33.6351C73.6475 33.2858 72.97 33.5399 72.6631 33.0635C72.5043 32.82 72.3031 32.5871 72.0385 32.4601C71.7315 32.2907 71.3504 32.3013 71.1598 32.1319C70.9269 31.9202 70.8952 31.5603 70.6835 31.3274C70.4929 31.0522 70.133 30.9569 69.9425 30.6816C69.7943 30.4593 69.9001 30.0677 69.7837 29.7289C69.7096 29.4431 69.4661 29.2102 69.4767 28.9032C69.4873 28.6809 69.7307 28.4162 69.7837 28.0987C69.8472 27.834 69.7519 27.5482 69.8366 27.2941C69.9424 27.0189 70.3235 26.9342 70.5459 26.6378C70.6941 26.4578 70.7787 26.1614 70.9799 26.045C71.3504 25.9074 71.6362 25.9391 72.0808 25.5157C72.7372 25.0181 73.0547 25.304 73.3935 25.558C73.9969 25.9074 74.992 25.918 75.3519 26.6907C75.5318 27.1777 75.5848 27.3471 75.6165 27.8446C75.6271 28.0563 76.3681 28.9879 76.5375 27.22C76.6857 25.558 75.5954 23.949 74.2721 23.0915C72.6207 22.0329 69.3496 21.9906 67.0736 24.1819C65.6657 25.5369 64.8612 27.1459 64.7977 29.0514C64.6918 31.9414 66.0045 34.8949 68.1534 36.8533C69.3391 37.9542 71.8056 39.8385 72.6101 41.2359C74.5897 44.6446 72.4831 47.1746 71.2234 47.7357C71.1916 47.7462 71.1916 47.7568 71.1598 47.7674C70.8105 47.905 70.4718 48.085 70.1648 48.3496C68.9685 49.2283 68.6086 50.7738 69.1485 52.5311C69.1803 52.7322 69.2332 52.9545 69.2967 53.1663C69.4449 53.7697 69.5931 54.3307 69.3496 54.7224C69.212 54.9129 68.7145 54.9976 67.7617 54.6906L67.5606 54.6271C66.1844 54.1508 64.7447 53.6532 63.2309 54.0661C62.5217 54.2355 61.8018 54.4895 61.1032 54.733C60.2669 55.0294 59.4094 55.3258 58.5625 55.4846L58.2132 55.5799C56.7841 55.9504 56.0325 56.1621 56.0007 56.6914C55.9795 57.1148 56.4347 57.2842 56.6147 57.3583C58.2555 57.8241 60.0022 57.0831 61.5372 56.4373C62.6593 55.9715 63.6861 55.5269 64.5965 55.5587C65.6763 55.5799 66.9995 56.1303 67.4336 57.1042C67.9735 59.2214 64.4589 60.6611 61.8865 61.7092C61.0714 62.0373 60.3727 62.3231 59.8964 62.5878C59.3247 62.8842 58.679 63.2124 58.9013 63.6781C59.2506 64.4086 62.0241 63.3923 62.0453 63.3923C65.1576 62.1749 72.7477 59.3379 71.7421 53.6744C71.6786 53.3568 71.5727 53.0286 71.4668 52.7005C71.1387 51.6207 71.2763 50.8056 71.6786 50.2763C72.0279 49.8317 72.4196 49.7258 72.6736 49.7046C73.1394 49.6517 73.4782 49.7788 73.7852 50.2445C74.325 51.0808 75.246 51.5572 76.294 50.6786C76.8869 50.1916 80.1685 45.2585 80.1473 46.5818C80.0838 50.1598 75.246 54.6695 74.7802 55.9292C74.6215 56.3315 73.7005 59.5284 74.1133 59.7719C74.4944 59.9942 74.8332 59.5814 74.9602 59.4332C77.7443 56.4479 81.4494 52.7005 82.6668 53.5474C84.6252 54.9024 80.3908 58.9144 83.7466 58.7345C86.4036 58.5863 87.2082 57.8347 88.6267 58.6816C90.0241 59.719 90.077 61.0952 90.8709 62.4713C91.6649 63.8369 93.5598 63.5723 93.1999 61.635C92.8293 59.6978 93.8985 57.7606 94.6819 58.6075C95.2535 59.2214 95.2218 59.4332 95.6346 60.0577C96.9473 62.3125 99.3291 64.5568 102.367 65.4883C104.516 66.0917 106.983 66.8222 109.576 66.8963C113.038 67.0021 115.674 66.1447 118.585 64.705C119.622 64.1968 120.12 63.784 119.919 63.3288C119.57 62.5454 116.902 63.4664 116.722 63.5299C110.212 64.832 107.957 57.8241 106.633 59.7084C105.374 61.5186 104.823 63.1488 101.827 62.3972C99.5726 61.8362 98.7681 60.2483 98.5352 59.7507C97.773 58.1734 97.1484 56.215 97.1378 54.5424C97.1273 48.7625 98.7363 49.5564 98.6834 51.2396C98.6305 52.9228 98.9375 55.654 100.345 55.8657C101.753 56.0774 102.251 53.6215 105.204 52.4782C105.861 52.2241 106.252 51.8113 106.559 51.3984C106.581 51.3772 106.602 51.3666 106.612 51.3455C106.655 51.3031 106.686 51.2396 106.729 51.1655C107.226 50.4774 107.597 49.9375 108.909 50.5304C110.826 51.3984 113.154 50.1069 113.154 50.795C113.154 51.4831 112.466 53.1874 109.481 53.2192C106.485 53.2615 105.353 53.2615 103.86 55.0506C102.367 56.8396 102.897 59.719 103.405 60.1636C103.585 60.3118 103.807 60.333 103.987 60.1954L104.082 60.0895C104.389 59.5602 104.484 58.9145 104.569 58.3005C104.643 57.8135 104.707 57.3054 104.908 56.8396C105.183 55.908 106.115 54.7436 106.866 54.7012C107.205 54.6801 107.491 54.9447 107.703 55.4422C108.454 57.7712 109.905 59.4755 112.011 60.5023C117.272 63.043 121.507 60.9787 123.656 59.9942C124.376 59.6661 125.212 59.1262 125.9 58.7027C126.514 58.2158 125.117 57.6971 121.951 58.0676C120.681 58.2158 119.951 59.7507 119.051 60.026C116.298 60.8517 113.112 59.4332 111.852 58.2264C111.598 57.9723 111.535 57.7606 111.588 57.6441C111.736 57.2948 112.773 57.3689 113.345 57.3477C114.118 57.316 114.996 57.2736 115.663 57.0513C116.404 56.8714 117.114 56.6279 117.791 56.3844C119.326 55.8551 120.766 55.347 122.417 55.6963C123.317 55.8339 124.249 56.1621 125.148 56.4691C125.72 56.6702 126.292 56.8608 126.842 57.009C127.403 57.1466 127.88 57.1889 127.975 56.9031C127.975 56.9031 128.049 56.7337 127.943 56.5008L127.985 56.4691ZM122.851 41.3841C122.428 41.6699 121.951 41.4582 121.856 41.31C121.75 41.1618 122.11 41.1723 122.534 40.8865C122.957 40.6007 123.222 40.0291 123.328 40.1773C123.433 40.3255 123.285 41.0982 122.862 41.3841H122.851ZM124.725 38.8223C124.492 39.3304 124.111 39.6586 123.857 39.5421C123.603 39.4257 123.603 38.9281 123.836 38.4094C124.069 37.9013 124.45 37.5731 124.704 37.6896C124.947 37.806 124.958 38.3036 124.725 38.8223ZM123.772 34.9055C124.037 34.7572 124.46 34.9901 124.714 35.4453C124.968 35.8899 124.947 36.3769 124.683 36.5251C124.418 36.6733 123.994 36.4404 123.74 35.9852C123.486 35.5406 123.507 35.0537 123.772 34.9055ZM121.581 32.9259C121.74 32.7036 122.237 32.7883 122.682 33.1164C123.126 33.4446 123.37 33.8786 123.211 34.1009C123.052 34.3232 122.555 34.2385 122.11 33.9104C121.666 33.5822 121.422 33.1482 121.581 32.9259ZM119.485 31.8567C120.078 31.8673 120.554 32.1213 120.543 32.4177C120.533 32.7142 120.056 32.9576 119.464 32.947C118.871 32.9365 118.394 32.6824 118.405 32.386C118.416 32.0896 118.892 31.8461 119.485 31.8567ZM115.875 32.3436C116.457 32.1108 117.039 32.1849 117.177 32.5236C117.315 32.8624 116.944 33.3176 116.362 33.5504C115.78 33.7833 115.198 33.6986 115.06 33.3705C114.922 33.0317 115.293 32.5765 115.875 32.3436ZM88.3409 20.4874C88.9972 20.5403 89.5477 20.6356 89.5265 20.8049C89.5159 20.9743 88.9443 21.1649 88.288 21.1119C87.6316 21.059 86.9541 20.4768 86.9647 20.3074C86.9753 20.138 87.674 20.4344 88.3409 20.4874ZM85.4192 18.4972C85.8002 19.1323 86.0755 19.6828 85.8955 19.7887C85.7156 19.8945 85.1545 19.524 84.7734 18.8889C84.3923 18.2537 84.5088 17.248 84.6781 17.1316C84.8581 17.0257 85.0275 17.862 85.4086 18.4866L85.4192 18.4972ZM84.9216 14.5698C84.6781 15.2685 84.4982 15.8719 84.3076 15.7978C84.1065 15.7342 84.043 15.0567 84.2759 14.3581C84.5193 13.6594 85.3662 13.0983 85.5674 13.1724C85.7685 13.2465 85.1545 13.8711 84.9216 14.5698ZM87.8222 12.2832C87.2717 12.6855 86.6895 12.8231 86.5307 12.5902C86.3613 12.3573 86.6789 11.8492 87.2294 11.4575C87.7798 11.0658 88.3621 10.9176 88.5209 11.1505C88.6902 11.3834 88.3726 11.8915 87.8222 12.2832ZM89.8441 10.5259C89.1454 10.6636 88.5844 10.5471 88.5844 10.2719C88.5844 9.99664 89.1454 9.64731 89.8441 9.50969C90.5428 9.37207 91.1038 9.48852 91.1038 9.76375C91.1038 10.039 90.5428 10.3883 89.8441 10.5259ZM92.3847 11.3834C91.7284 11.3305 91.2309 11.0341 91.252 10.7271C91.2732 10.4201 91.8237 10.2189 92.48 10.2719C93.1363 10.3248 93.6339 10.6212 93.6127 10.9282C93.5915 11.2352 93.0411 11.4363 92.3847 11.3834ZM93.9197 9.83785C94.0044 9.52028 94.7242 9.30856 95.5288 9.36149C96.3333 9.41441 96.9155 9.72141 96.8308 10.039C96.7461 10.3566 96.0263 10.5683 95.2218 10.5154C94.4172 10.4624 93.835 10.1554 93.9197 9.83785ZM96.9049 12.5796C96.7462 12.8549 96.2063 12.8337 95.6981 12.5479C95.19 12.2515 94.9042 11.7963 95.0524 11.5316C95.2112 11.2564 95.7511 11.2775 96.2592 11.5634C96.7673 11.8598 97.0532 12.315 96.9049 12.5796ZM70.8317 24.8488C71.2022 24.7429 71.5621 24.7641 71.6362 24.9017C71.7103 25.0393 71.4668 25.2405 71.0963 25.3569C70.7258 25.4733 70.3659 25.4416 70.2918 25.304C70.2177 25.1664 70.4612 24.9652 70.8317 24.8488ZM68.8521 26.045C69.085 25.7909 69.4237 25.6639 69.6249 25.7698C69.826 25.8756 69.7942 26.172 69.5719 26.4261C69.339 26.6801 69.0003 26.8072 68.7992 26.7013C68.598 26.5955 68.6298 26.2991 68.8521 26.045ZM67.8994 27.8552C67.9629 27.4953 68.2487 27.2306 68.5239 27.2624C68.7992 27.2941 68.9685 27.6117 68.8944 27.9716C68.8309 28.3316 68.5451 28.5962 68.2699 28.5645C67.9946 28.5327 67.8253 28.2151 67.8994 27.8552ZM67.8253 30.0782C67.7406 29.6548 67.9311 29.2737 68.2487 29.242C68.5663 29.1996 68.8944 29.5172 68.9791 29.9512C69.0638 30.3747 68.8733 30.7557 68.5557 30.7875C68.2381 30.8298 67.9099 30.5123 67.8253 30.0782ZM69.8895 32.82C69.5614 32.9365 69.085 32.6718 68.8309 32.2272C68.5769 31.7932 68.6404 31.3486 68.9685 31.2321C69.2967 31.1157 69.7731 31.3803 70.0271 31.8249C70.2812 32.259 70.2177 32.7036 69.8895 32.82ZM71.8797 34.6514C71.5198 34.8314 70.927 34.609 70.5459 34.1644C70.1753 33.7092 70.1648 33.2011 70.5247 33.0211C70.8846 32.8412 71.4774 33.0635 71.8585 33.5081C72.229 33.9633 72.2396 34.4714 71.8797 34.6514ZM74.2086 36.3769C73.7958 36.5992 73.1288 36.3981 72.7266 35.9429C72.3137 35.4877 72.3243 34.9372 72.7266 34.7255C73.1394 34.5032 73.8063 34.7043 74.2086 35.1595C74.6109 35.6147 74.6109 36.1652 74.2086 36.3769ZM74.6426 38.1024C74.3674 37.4037 74.6426 36.7368 75.2672 36.631C75.8812 36.5145 76.601 37.0015 76.8763 37.7001C77.1515 38.3988 76.8763 39.0657 76.2517 39.1716C75.6377 39.288 74.9179 38.8011 74.6426 38.1024ZM77.7973 43.7871C76.908 43.5648 76.2411 42.485 76.3046 41.3735C76.3681 40.262 77.1409 39.5315 78.0196 39.7538C78.9088 39.9761 79.5757 41.0559 79.5122 42.1674C79.4487 43.279 78.6759 44.0094 77.7973 43.7871ZM102.897 23.9172C102.59 24.9229 101.806 25.6745 101.15 25.611C100.494 25.5474 100.218 24.6794 100.536 23.6737C100.843 22.6681 101.626 21.9165 102.272 21.98C102.928 22.0435 103.204 22.9115 102.886 23.9172H102.897ZM103.923 18.6454C103.923 19.5452 103.458 20.3391 102.854 20.4132C102.251 20.4874 101.753 19.8098 101.753 18.91C101.753 18.0102 102.219 17.2163 102.823 17.1422C103.426 17.0681 103.923 17.7456 103.923 18.6454ZM101.404 13.2042C101.891 13.0348 102.526 13.4688 102.812 14.1675C103.108 14.8662 102.95 15.5649 102.463 15.7237C101.976 15.8825 101.34 15.459 101.055 14.7603C100.758 14.0617 100.917 13.363 101.404 13.2042ZM98.4611 10.6318C98.7787 10.3672 99.4985 10.4942 100.07 10.9176C100.642 11.3411 100.843 11.9021 100.515 12.1668C100.197 12.4314 99.4773 12.3044 98.9057 11.8809C98.3341 11.4575 98.1329 10.8965 98.4611 10.6318ZM100.303 18.6454C100.303 19.3229 100.007 19.8734 99.6467 19.8734C99.2868 19.8734 98.9904 19.3229 98.9904 18.6454C98.9904 17.9679 99.2868 17.4174 99.6467 17.4174C100.007 17.4174 100.303 17.9679 100.303 18.6454ZM97.9741 15.0144C97.7201 14.4851 97.7412 13.9452 98.0271 13.8076C98.3129 13.67 98.7469 13.9981 98.9904 14.5274C99.2444 15.0567 99.2233 15.5966 98.9375 15.7342C98.6516 15.8719 98.2176 15.5437 97.9741 15.0144ZM98.08 22.6045C98.3658 21.8529 98.9163 21.3554 99.3185 21.5036C99.7208 21.6518 99.8161 22.3822 99.5408 23.1444C99.2656 23.9066 98.7046 24.3936 98.3023 24.2454C97.9 24.0972 97.8048 23.3667 98.08 22.6045ZM95.677 26.2779C96.1745 25.5263 96.8944 25.1346 97.2966 25.3887C97.6989 25.6533 97.6248 26.4684 97.1272 27.22C96.6297 27.9716 95.9099 28.3633 95.5076 28.1093C95.1053 27.8446 95.1794 27.0295 95.677 26.2779ZM92.6706 29.6548C93.3163 28.882 94.1738 28.5327 94.5866 28.882C94.9995 29.2314 94.8089 30.1312 94.1526 30.904C93.4963 31.6767 92.6494 32.0261 92.2365 31.6767C91.8237 31.3274 92.0142 30.4276 92.6706 29.6548ZM89.1137 33.1694C89.8018 32.3754 90.7016 32.0367 91.125 32.3966C91.5484 32.7671 91.3261 33.6987 90.638 34.4926C89.95 35.2865 89.0501 35.6253 88.6267 35.2654C88.2033 34.8949 88.4256 33.9633 89.1137 33.1694ZM85.6415 37.8695C86.2449 36.8215 87.187 36.2287 87.7481 36.5569C88.3091 36.885 88.2668 37.986 87.6634 39.0446C87.06 40.1032 86.1178 40.6854 85.5568 40.3572C84.9957 40.0291 85.0381 38.9281 85.6415 37.8695ZM85.7156 45.5761C85.1545 46.9841 83.99 47.8521 83.1326 47.5028C82.2751 47.1534 82.0211 45.7349 82.5821 44.327C83.1432 42.919 84.297 42.051 85.1651 42.4003C86.0331 42.7497 86.2766 44.1682 85.7156 45.5761ZM93.0411 49.8105C92.8399 52.457 91.1885 54.6589 89.3571 54.733C87.5258 54.8071 86.2025 52.7322 86.4037 50.0857C86.6048 47.4392 88.2562 45.2374 90.0876 45.1633C91.9189 45.0892 93.2422 47.164 93.0411 49.8105ZM94.2796 40.5584C93.8562 42.0616 92.6282 43.1943 91.5273 43.099C90.4263 42.9931 89.8759 41.6911 90.2887 40.1984C90.7121 38.6952 91.9401 37.5625 93.0411 37.6578C94.142 37.7637 94.6925 39.0657 94.2796 40.5584ZM96.9155 34.4926C96.3333 35.6147 95.2747 36.3769 94.5443 36.1969C93.8138 36.017 93.708 34.9584 94.2902 33.8257C94.8724 32.7036 95.931 31.9414 96.6615 32.1213C97.3813 32.3013 97.4978 33.3599 96.9155 34.4926ZM98.1329 30.904C97.4342 30.7346 97.2966 29.7289 97.8365 28.6386C98.3764 27.5482 99.3821 26.8072 100.081 26.966C100.779 27.1353 100.917 28.141 100.377 29.2314C99.8373 30.3217 98.8316 31.0627 98.1329 30.904ZM112.742 34.4714C113.229 33.9845 113.874 33.8469 114.192 34.1644C114.509 34.482 114.372 35.1278 113.885 35.6147C113.398 36.1017 112.752 36.2393 112.435 35.9217C112.117 35.6041 112.255 34.9584 112.742 34.4714ZM110.466 37.4778C110.847 36.885 111.492 36.6098 111.916 36.885C112.339 37.1497 112.382 37.8589 112.001 38.4518C111.619 39.0446 110.974 39.3198 110.55 39.0446C110.127 38.7693 110.084 38.0707 110.466 37.4778ZM104.559 50.7315C103.521 51.5678 102.23 51.6948 101.669 50.9961C101.108 50.2975 101.499 49.0589 102.537 48.2226C103.574 47.3863 104.866 47.2593 105.427 47.958C105.988 48.6566 105.596 49.8952 104.559 50.7315ZM108.041 45.8514C107.491 46.6241 106.602 46.9417 106.072 46.5606C105.533 46.1795 105.554 45.2374 106.104 44.4646C106.655 43.6918 107.544 43.3742 108.073 43.7553C108.613 44.1364 108.592 45.0786 108.041 45.8514ZM108.708 42.792C108.2 42.5485 108.063 41.7652 108.401 41.0559C108.74 40.3361 109.439 39.955 109.947 40.209C110.455 40.4525 110.593 41.2359 110.254 41.9451C109.915 42.6544 109.216 43.0461 108.708 42.792Z" fill="#507096"/>
<path d="M41.4493 34.1729C41.0364 34.0158 40.5283 33.9321 40.0095 33.8588C39.7131 33.8169 39.4378 33.775 39.1944 33.7122C38.1675 33.5028 35.722 32.8537 34.748 31.367C33.7741 29.8804 32.6096 32.1418 30.9792 31.2205C29.6136 30.4457 29.1901 28.4879 28.3961 28.7706C27.4222 29.0847 26.3318 30.8854 25.6754 31.4089C25.0084 31.9429 24.278 32.6443 23.2087 32.6967H23.1558C22.6582 32.7909 22.5735 33.0003 22.5947 33.1678C22.6265 33.3877 22.8064 33.5971 23.9392 33.6389C24.1298 33.6389 24.4156 33.6389 24.6803 33.618C25.4848 33.5342 26.3953 33.4295 27.1893 33.4086C28.3644 33.3877 29.4971 33.9844 30.5664 33.9635C32.4508 33.9321 33.4459 33.5971 35.6585 34.2043C36.9924 34.5707 38.3792 34.7278 39.8401 34.9267C40.1048 34.9686 40.4118 35 40.6765 35C40.7717 35 40.867 35 40.9517 35C41.1317 35 41.6187 34.979 41.7351 34.6859C41.7986 34.5288 41.7351 34.3718 41.5657 34.2566L41.4387 34.1938L41.4493 34.1729Z" fill="#507096"/>
<path d="M54.9471 28.3623C54.1319 27.2944 52.1099 26.8756 50.7654 27.1374C50.2678 27.2107 46.4461 28.4147 46.9119 27.284C47.5471 26.7081 48.754 26.2056 48.5316 25.1796C48.1929 23.6615 45.1016 24.9283 45.7792 22.5727C46.7108 20.7614 47.0284 18.3325 48.6269 16.9296C49.5374 16.1967 51.0618 16.3747 51.6335 17.4321C52.3322 18.7408 50.6807 19.4004 50.0349 20.2694C49.7385 20.7719 49.7067 21.4315 50.0138 21.2744C50.8819 20.5625 52.5545 20.1647 53.0733 19.0654C54.2166 16.8458 52.5757 13.6631 49.9926 13.4013C45.4616 12.9093 43.2596 18.4163 41.047 21.4105C40.687 21.9968 40.7188 21.9549 40.4647 22.4261C40.2953 22.7088 40.073 23.2427 39.7554 23.0857C39.5225 22.8763 39.8189 22.0701 40.073 21.4943C41.2905 18.6675 43.7148 16.5317 44.6676 13.5688C46.0967 9.46479 44.9111 4.17767 40.7717 2.08376C37.3417 0.0107931 31.5403 0.837886 29.5818 5.20368C27.1787 10.9096 34.4833 15.3801 37.9134 10.2395C38.2204 9.68465 38.4956 8.78427 38.0087 8.31314C37.7016 8.10375 37.257 8.74239 36.8759 9.10883C36.5265 9.42291 36.029 9.6323 35.3832 9.69512C33.3188 10.072 31.752 7.52792 33.5941 6.38674C34.1128 6.14595 34.4516 5.60153 34.9915 5.40261C35.5102 5.2665 36.2725 5.44448 36.8336 5.51777C37.5958 5.71669 38.4745 6.15642 39.0144 6.67989C39.2049 6.93116 39.279 7.28712 39.4272 7.62215C39.6813 8.16656 40.0307 8.62723 39.8084 9.24493C39.4378 10.072 39.6496 11.1085 39.025 11.7576C37.9028 12.6475 37.4158 13.8829 36.0819 14.5635C35.415 15.0555 34.9597 15.9454 34.4939 16.6155C33.9434 17.296 32.8848 17.5892 32.4613 18.7094C32.1649 19.2538 32.1967 20.2798 31.5826 20.552C31.4344 20.5939 31.2756 20.5311 31.1274 20.3741C30.524 19.6726 29.7512 18.8664 28.9572 18.2592C27.6445 17.3379 24.2568 16.2909 25.7918 14.1551C26.2682 13.5689 27.1469 13.4956 27.6762 13.9876C27.9726 14.2389 28.2056 14.4902 28.3326 14.3959C28.5443 14.3017 28.3749 13.6107 28.2373 13.3595C26.6599 10.6793 22.4888 13.1919 23.1452 15.9036C23.3463 17.3693 24.2991 18.5838 25.4213 19.4527C27.4539 21.086 27.6974 23.2532 25.1672 24.1536C24.839 24.3525 24.5744 24.6456 24.4473 24.9911C24.098 25.7135 24.6591 26.8233 24.3838 27.2525C24.1192 27.6085 23.4628 27.3782 23.0499 27.2944C21.716 26.8023 20.8162 28.1215 20.5409 29.2208C20.3927 29.9746 19.3235 30.9692 19.0482 31.5032C18.72 32.5711 20.1492 32.3512 20.8479 32.236C22.0019 31.9952 23.3993 31.388 24.405 30.6237C27.6127 28.2053 27.5915 24.2164 29.8782 22.8344C30.7675 22.5203 29.2642 24.9283 29.4759 26.4987C29.5183 27.441 30.0582 28.2262 30.8098 28.7183C32.1014 29.4826 33.6576 29.4302 34.9068 29.9956C36.2831 30.6028 37.0453 31.7126 38.3792 32.3198C39.6813 32.8852 41.1529 32.7281 42.4868 33.1992C45.1546 34.0263 48.0341 33.8274 50.5113 32.4559C52.6392 31.3671 47.9811 32.2989 47.4518 31.922C45.6839 31.4927 44.7946 29.671 44.1171 30.027C43.7042 30.2468 43.2913 30.5923 42.8043 30.6866C41.7986 30.8959 40.6235 30.027 40.073 29.4093C39.4061 28.6241 38.8768 27.0536 39.2473 25.9438C39.3531 25.5984 39.5331 25.19 39.8189 25.6612C41.0046 27.8284 42.4126 28.0796 44.1488 26.2998C44.7099 25.7763 46.0438 24.8131 46.6684 25.3052C46.9754 25.5984 46.7531 26.237 46.1603 26.6244C45.4086 27.1688 44.1171 27.5771 43.1537 27.9645C42.2962 28.2471 41.0999 28.9695 42.4868 29.2627C43.0372 29.2941 43.3548 28.7497 43.7889 28.5298C44.7734 28.0063 45.0275 29.3464 45.7262 29.8071C47.9917 31.5136 51.1783 31.2728 53.3697 29.9223C53.9413 29.5244 54.9365 29.158 55 28.467L54.9682 28.3518L54.9471 28.3623ZM48.6693 15.422C49.1668 15.2544 49.6221 15.5581 49.6856 15.757C49.7491 15.9454 49.4209 15.8512 48.9233 16.0187C48.4258 16.1862 47.9388 16.5527 47.8753 16.3642C47.8118 16.1758 48.1717 15.5999 48.6693 15.4324V15.422ZM46.0332 17.5473C46.3402 17.118 46.7743 16.9086 46.9966 17.0657C47.2189 17.2227 47.166 17.7043 46.859 18.1231C46.552 18.5524 46.1179 18.7617 45.8956 18.6047C45.6627 18.4477 45.7262 17.9661 46.0332 17.5473ZM32.1755 7.76872C32.0696 7.74778 31.9955 7.41276 32.0696 7.03585C32.1543 6.66942 32.5566 6.3344 32.6625 6.35534C32.7683 6.37628 32.4931 6.73224 32.419 7.10914C32.3343 7.47558 32.2814 7.80013 32.1755 7.76872ZM33.0753 9.60089C32.9907 9.66371 32.6836 9.50667 32.4402 9.21352C32.2073 8.9099 32.2073 8.3969 32.2919 8.32361C32.3766 8.26079 32.5143 8.67957 32.7472 8.97272C32.9801 9.27633 33.1495 9.53807 33.0648 9.60089H33.0753ZM34.0175 5.70622C33.7105 5.92608 33.3824 5.99937 33.2871 5.87373C33.1918 5.7481 33.3718 5.46542 33.6788 5.24556C33.9858 5.0257 34.314 4.95242 34.4092 5.07805C34.5045 5.20369 34.3246 5.48636 34.0175 5.70622ZM25.4001 16.5841C25.2943 16.5945 25.1143 16.3852 24.9978 16.1129C24.892 15.8407 24.892 15.5999 24.9978 15.5895C25.1037 15.579 25.2837 15.7884 25.4001 16.0606C25.5166 16.3328 25.5166 16.5736 25.4001 16.5841ZM26.5964 17.8718C26.4164 17.9661 26.1094 17.8509 25.9189 17.631C25.7177 17.4007 25.7071 17.1494 25.8871 17.0552C26.0671 16.961 26.3741 17.0761 26.5646 17.296C26.7658 17.5263 26.7764 17.7776 26.5964 17.8718ZM27.8456 19.4423C27.5386 19.4946 27.1892 19.2643 27.0516 18.9188C26.914 18.5733 27.0516 18.2487 27.3586 18.1964C27.6656 18.144 28.015 18.3744 28.1526 18.7199C28.2902 19.0654 28.1526 19.3899 27.8456 19.4423ZM28.9466 21.8712C28.5126 21.7665 28.1844 21.2326 28.2161 20.6881C28.2479 20.1437 28.629 19.7878 29.0631 19.8925C29.4971 19.9971 29.8253 20.5311 29.7935 21.0755C29.7618 21.6199 29.3807 21.9759 28.9466 21.8712ZM41.3222 10.0511C41.2799 10.5955 40.9411 11.0771 40.56 11.1399C40.1789 11.2027 39.9142 10.8154 39.9566 10.2709C39.9989 9.72653 40.3377 9.24493 40.7188 9.18211C41.0999 9.1193 41.3646 9.50666 41.3222 10.0511ZM36.3572 5.16181C35.976 5.1304 35.669 4.96289 35.6902 4.77443C35.7008 4.59645 36.029 4.47082 36.4101 4.5127C36.7912 4.5441 37.0982 4.71162 37.077 4.90007C37.0665 5.07805 36.7383 5.20368 36.3572 5.16181ZM39.4061 5.92609C39.1943 6.10407 38.718 6.00984 38.3474 5.73763C37.9769 5.45496 37.8393 5.08852 38.051 4.92101C38.2627 4.74303 38.7391 4.83725 39.1202 5.10946C39.4908 5.39214 39.6284 5.75857 39.4167 5.92609H39.4061ZM39.7131 7.52792C39.5437 7.13008 39.6284 6.73224 39.9142 6.63802C40.2001 6.54379 40.56 6.79506 40.7294 7.1929C40.8988 7.59074 40.8141 7.98858 40.5282 8.08281C40.2424 8.17703 39.8825 7.92577 39.7131 7.52792ZM35.4679 24.164C35.3409 25.8077 34.3034 27.1688 33.1494 27.2211C31.9955 27.263 31.1592 25.9753 31.2862 24.3315C31.4133 22.6878 32.4507 21.3163 33.6047 21.2744C34.7586 21.2326 35.5843 22.5203 35.4573 24.164H35.4679ZM36.4101 19.1805C36.1666 19.9553 35.4467 20.5311 34.8009 20.4788C34.1552 20.4264 33.8376 19.7563 34.0811 18.9921C34.3246 18.2173 35.0444 17.6415 35.6902 17.6938C36.336 17.7462 36.6536 18.4162 36.4101 19.1805ZM37.9557 16.0711C37.617 16.6469 36.9923 17.0343 36.5689 16.94C36.1454 16.8458 36.0819 16.3014 36.4207 15.7256C36.7594 15.1498 37.3841 14.7624 37.8075 14.8566C38.231 14.9508 38.2945 15.4952 37.9557 16.0711ZM38.665 14.2284C38.2521 14.1447 38.178 13.6212 38.4956 13.0663C38.8132 12.5114 39.3955 12.1241 39.8084 12.2078C40.2212 12.2916 40.2953 12.815 39.9777 13.3699C39.6602 13.9248 39.0779 14.3122 38.665 14.2284ZM43.9265 24.3315C43.7465 25.2843 42.9737 26.08 42.1903 26.1009C41.4175 26.1323 40.9411 25.3785 41.1211 24.4258C41.3011 23.473 42.0739 22.6773 42.8573 22.6564C43.6301 22.625 44.1065 23.3788 43.9265 24.3315ZM45.3451 20.9813C45.0169 21.6513 44.4241 22.0282 44.0218 21.8398C43.6089 21.6409 43.5454 20.9499 43.863 20.2798C44.1912 19.6098 44.784 19.2329 45.1863 19.4213C45.5992 19.6202 45.6627 20.3112 45.3451 20.9813Z" fill="#507096"/>
<path d="M16.8884 15.9049C16.052 15.9049 15.3426 16.1654 14.4955 16.1654C13.8179 16.1871 13.0131 16.1111 12.6743 15.9157C12.1026 15.6552 12.4308 15.2318 12.9179 15.1232C13.2884 15.0798 13.6696 15.1015 14.0402 15.2101C14.5484 15.3295 15.1837 15.6009 15.6602 15.5032C16.4967 15.3295 16.0414 14.6999 15.4273 14.2114C14.7284 13.7011 14.0296 13.4732 13.0661 13.8097C12.2614 14.1462 11.139 14.3633 11.1179 13.4732C11.2661 11.8557 12.9073 10.3033 13.5743 8.79438C14.7602 6.34099 14.1461 2.82375 11.552 1.61877C9.38138 0.305232 4.83903 0.967429 4.54256 4.85376C4.37315 6.97062 6.61785 9.04406 8.54491 7.94763C9.05315 7.65453 9.4555 6.99233 9.33903 6.49297C9.28609 6.28671 8.80962 6.6341 8.51315 6.78608C7.90962 7.09003 6.90373 6.60153 6.70256 6.03703C6.07785 4.30012 8.03667 3.45338 9.07432 3.51851C10.3026 3.5945 11.3402 4.6258 11.1284 5.89591C10.8531 7.45913 9.38138 8.43614 8.40726 9.51085C7.52844 10.477 6.82962 11.5517 6.37432 12.3876C5.90844 13.2235 5.53785 14.3742 5.07197 14.3959C4.60609 14.4176 4.02373 13.4406 3.5155 13.6252C2.78491 13.8965 3.25079 15.894 2.42491 15.4055C2.12844 15.2318 1.81079 15.0473 1.4402 15.0907L1.31315 15.1341C1.09079 15.2535 0.86844 15.6009 0.561381 15.8289C0.264911 16.0568 -0.0739126 16.2957 0.0425579 16.4259C0.127264 16.5236 0.233146 16.643 0.540205 16.643C1.49315 16.643 2.30844 16.7516 3.21903 17.0773C6.10962 17.8589 8.97903 18.4994 12.039 17.5441C13.6484 16.9036 16.1367 17.3921 17.3861 17.2292C18.519 16.9579 18.0002 15.9374 16.9096 15.9266L16.8884 15.9049ZM7.97315 3.32311C7.6555 3.42081 7.36962 3.3991 7.32726 3.26883C7.28491 3.13857 7.51785 2.94316 7.8355 2.84546C8.15315 2.74776 8.43903 2.76947 8.48138 2.89974C8.52373 3.03001 8.29079 3.22541 7.97315 3.32311ZM9.85785 3.25798C9.52962 3.18199 9.29667 2.98659 9.33903 2.83461C9.38138 2.68263 9.66726 2.61749 9.9955 2.69348C10.3237 2.76947 10.5567 2.96487 10.5143 3.11685C10.472 3.26883 10.1861 3.33397 9.85785 3.25798ZM12.4308 6.25415C12.3461 6.68837 12.0814 6.99233 11.8273 6.94891C11.5731 6.89463 11.4355 6.50383 11.5202 6.08046C11.6049 5.65708 11.8696 5.34227 12.1237 5.38569C12.3779 5.43997 12.5155 5.83078 12.4308 6.25415ZM11.1179 4.33269C10.9379 4.01788 10.9379 3.68135 11.1179 3.57279C11.2979 3.46424 11.5943 3.62707 11.7743 3.94189C11.9543 4.2567 11.9543 4.59323 11.7743 4.70178C11.5943 4.81034 11.2979 4.64751 11.1179 4.33269ZM9.56138 14.6347C9.33903 15.7094 8.51315 16.4476 7.7402 16.2739C6.95668 16.1003 6.50138 15.0907 6.73432 14.0051C6.95668 12.9304 7.77197 12.1922 8.5555 12.3659C9.33903 12.5396 9.79432 13.5492 9.56138 14.6347ZM9.96373 10.9872C9.68844 11.4757 9.16962 11.6928 8.80962 11.4757C8.44962 11.2586 8.3755 10.6941 8.6402 10.2056C8.9155 9.71711 9.43432 9.5 9.79432 9.71711C10.1543 9.93422 10.2284 10.4987 9.96373 10.9872ZM10.4402 9.23946C10.1649 9.05491 10.1649 8.55555 10.4402 8.12133C10.7155 7.6871 11.1602 7.4917 11.4355 7.67624C11.7108 7.86079 11.7108 8.36015 11.4355 8.79438C11.1602 9.2286 10.7155 9.42401 10.4402 9.23946Z" fill="#507096"/>
</svg>
