<svg width="254" height="128" viewBox="0 0 254 128" fill="none" xmlns="http://www.w3.org/2000/svg">
<g clip-path="url(#clip0_30_2)">
<path d="M207.427 120.21L207.003 119.979C205.603 119.414 203.83 119.144 202.058 118.874C201.056 118.72 200.092 118.579 199.27 118.373C195.75 117.641 187.362 115.406 184.022 110.242C180.682 105.077 176.687 112.939 171.086 109.728C166.41 107.043 169.775 102.611 167.078 103.626C163.738 104.731 157.173 111.398 154.501 112.528C151.791 113.671 148.117 114.686 144.443 114.84L144.276 114.866C142.554 115.187 142.272 115.907 142.349 116.459C142.451 117.23 143.081 117.962 146.96 118.091C147.628 118.116 148.605 118.116 149.504 118.013C152.266 117.718 155.015 117.166 157.713 116.626C161.31 115.894 165.022 115.149 168.709 115.072C175.171 114.956 181.08 116.857 187.297 118.874C191.819 120.339 196.508 121.854 201.48 122.548C202.405 122.689 203.445 122.792 204.331 122.818C204.678 122.818 204.999 122.818 205.282 122.818C205.911 122.805 207.556 122.754 207.993 121.726C208.211 121.199 207.993 120.621 207.402 120.223L207.427 120.21Z" fill="#507096"/>
<path d="M253.43 99.9646C253.301 99.682 252.685 99.1039 252.685 99.1039L252.222 98.7185C249.704 96.7916 247.353 96.0594 243.911 95.3657C241.007 94.7748 237.886 95.5327 234.366 96.676C230.191 98.0248 225.348 98.4102 224.603 96.9843C224.333 96.4833 224.924 95.8282 226.131 95.3015C228.302 94.3508 228.778 93.9912 231.219 92.4111C234.533 90.2529 228.046 85.9238 224.282 87.1827C221.044 88.2746 221.404 84.5107 221.622 82.9435C221.622 82.8664 221.648 82.7893 221.661 82.7122C221.725 82.0956 221.674 81.4019 221.969 80.8367C222.406 79.9888 223.434 79.5264 223.909 78.6528C224.179 78.2032 224.359 77.7151 224.449 77.2012C224.616 76.3919 224.359 75.5184 224.539 74.8761C224.731 74.0668 225.759 73.5401 226.144 72.5381C226.877 71.2406 225.99 69.5834 227.095 68.6457C227.647 68.1447 228.187 67.5666 228.431 66.8344C228.765 65.9994 228.585 65.0231 228.958 64.4835C229.42 63.8155 230.319 63.61 230.846 62.9805C231.476 62.3896 231.604 61.439 232.233 60.8737C232.747 60.4113 233.775 60.5398 234.61 60.1287C235.316 59.8461 235.83 59.1267 236.601 59.0496C237.179 58.9982 237.924 59.5377 238.759 59.5506C239.453 59.6277 240.16 59.2937 240.84 59.4221C241.585 59.602 241.919 60.5398 242.767 61.0022C243.268 61.3234 244.065 61.4261 244.424 61.9143C244.9 62.8135 244.309 63.5072 245.542 64.4964C247.045 66.0122 245.593 66.8344 245.054 67.785C244.36 69.4421 244.681 70.4827 242.472 71.7159C239.71 72.8207 238.618 73.4758 237.796 75.5312C237.102 77.2526 236.229 80.5412 237.308 80.6183C238.168 80.6825 240.108 76.2891 243.705 75.9808C248.548 75.5698 251.374 69.789 251.811 67.9391C253.365 61.3491 252.094 57.0456 247.88 51.7787C244.746 47.8477 238.913 45.8823 234.019 46.3961C226.62 47.1412 220.081 52.2797 215.842 58.4458C213.439 61.8372 210.703 65.8838 208.738 68.8512C206.027 72.9363 204.871 76.2506 203.535 76.7131C202.43 77.0985 202.777 74.9146 204.383 71.7801C207.325 66.4618 211.307 61.7087 214.364 56.4675C219.978 47.1412 221.494 35.1044 218 24.8403C215.713 18.0447 211.089 12.1997 204.576 8.83396C194.042 3.38719 180.348 2.56503 169.814 14.255C163.07 21.7572 163.134 34.3079 170.893 41.1806C177.843 47.3467 187.31 44.8032 190.984 41.7715C194.607 38.7912 196.393 35.5283 196.238 32.4067C196.2 31.3533 196.033 29.542 194.928 29.3107C194.08 29.118 192.886 31.9314 192.269 32.458C190.805 34.1152 189.648 34.963 186.347 35.4384C179.95 36.055 177.38 32.2525 177.175 27.9105C177.226 23.0932 181.542 23.4529 183.328 21.5388C184.266 20.2542 185.075 18.8797 187.978 19.9587C190.047 20.9864 191.023 20.5753 192.5 20.6653C193.361 20.858 193.99 21.8471 194.71 22.3224C195.84 23.1574 197.292 23.0418 197.973 23.9282C198.551 24.7504 198.525 25.8808 199.052 26.7543C199.591 27.8591 200.747 28.5271 201.03 29.3236C201.403 30.3898 200.747 31.5074 200.799 32.6122C200.76 33.961 201.544 35.2585 201.248 36.2091C200.876 37.391 199.681 38.136 199.296 39.3307C198.782 40.4098 199.052 41.7201 198.448 42.735C197.96 43.5571 196.56 43.904 195.66 44.8546C194.825 45.6125 194.389 46.6659 194.067 47.7193C193.502 49.7618 190.766 49.582 189.481 51.3419C188.389 52.4724 188.3 54.1424 187.349 54.8874C186.604 55.5297 185.294 55.7096 184.317 56.4161C183.701 56.8401 183.148 57.3924 182.724 58.0091C181.851 59.1652 181.851 60.8095 181.003 61.9014C180.425 62.6208 179.474 62.9805 178.691 63.443C176.815 64.4578 175.441 66.8087 175.376 68.8898C175.402 69.7504 175.299 70.5469 175.055 71.2791C173.925 73.7071 172.602 74.1438 172.178 73.3217C171.702 72.4096 171.946 71.7416 171.471 70.8681C171.137 70.123 169.968 68.4273 168.157 67.3739C166.345 66.3205 166.718 66.3719 166.474 65.4598C166.166 64.5221 165.215 63.6357 164.226 63.443C163.802 63.3402 163.327 63.3017 162.967 63.0576C162.427 62.6722 162.209 61.9271 161.657 61.5289C161.374 61.3105 161.053 61.1307 160.719 61.0279C160.179 60.8352 159.563 60.938 159.139 60.7453C158.599 60.5398 158.329 59.7818 157.687 59.4221C156.865 58.8055 155.645 59.2551 155.118 58.4073C154.822 57.9834 154.488 57.5594 154 57.3282C153.461 57.0199 152.78 57.0584 152.446 56.7501C152.035 56.3647 151.971 55.7353 151.598 55.3242C151.251 54.8361 150.609 54.6691 150.288 54.1809C150.018 53.7827 150.198 53.089 150.005 52.4852C149.877 51.9714 149.427 51.5603 149.453 51.0207C149.478 50.6225 149.902 50.1601 150.005 49.582C150.121 49.1195 149.954 48.6057 150.108 48.1561C150.301 47.6551 150.969 47.5137 151.367 46.9871C151.637 46.6787 151.778 46.1392 152.15 45.9337C152.806 45.6896 153.307 45.741 154.103 44.9959C155.272 44.1095 155.837 44.6234 156.428 45.073C157.494 45.7024 159.267 45.7153 159.897 47.077C160.218 47.9377 160.308 48.246 160.372 49.1195C160.398 49.5049 161.721 51.1364 162.003 48.0147C162.273 45.0473 160.333 42.1954 157.983 40.6924C155.041 38.8169 149.234 38.727 145.188 42.6322C142.696 45.0473 141.257 47.8991 141.141 51.2905C140.961 56.429 143.287 61.6831 147.102 65.1515C149.196 67.1041 153.589 70.4441 155.028 72.9363C158.548 78.9868 154.797 83.483 152.562 84.4978C152.497 84.5235 152.446 84.5492 152.395 84.5878C151.791 84.8318 151.213 85.1401 150.686 85.5898C148.566 87.1441 147.911 89.8932 148.875 93.0277C148.939 93.3874 149.029 93.7728 149.132 94.1582C149.401 95.2244 149.658 96.2392 149.222 96.9201C148.977 97.2541 148.091 97.4082 146.408 96.8687L146.061 96.7531C143.608 95.9052 141.064 95.0188 138.367 95.7639C137.12 96.0722 135.823 96.5218 134.577 96.9586C133.1 97.4725 131.558 98.012 130.068 98.2946L129.451 98.4616C126.908 99.1168 125.572 99.5022 125.52 100.44C125.469 101.185 126.291 101.493 126.612 101.622C129.528 102.444 132.624 101.134 135.361 99.9903C137.352 99.1553 139.176 98.3717 140.807 98.4359C142.721 98.4616 145.072 99.4508 145.843 101.172C146.806 104.936 140.563 107.492 135.99 109.342C134.538 109.933 133.292 110.447 132.457 110.91C131.442 111.423 130.299 112.014 130.685 112.849C131.301 114.147 136.234 112.348 136.26 112.335C141.796 110.177 155.285 105.129 153.486 95.0574C153.371 94.505 153.191 93.9141 152.998 93.3232C152.407 91.4091 152.651 89.9703 153.371 89.0197C153.987 88.2232 154.694 88.0434 155.144 88.0048C155.966 87.9149 156.582 88.1333 157.122 88.9555C158.085 90.4328 159.717 91.2935 161.592 89.7262C162.646 88.8527 168.478 80.0916 168.439 82.4425C168.324 88.8013 159.717 96.8173 158.908 99.0397C158.638 99.7462 156.993 105.424 157.726 105.861C158.394 106.259 159.01 105.514 159.229 105.244C164.187 99.9518 170.765 93.2846 172.923 94.7876C176.404 97.1898 168.889 104.332 174.85 104.011C179.577 103.754 181.003 102.405 183.521 103.921C186 105.758 186.103 108.212 187.516 110.653C188.929 113.093 192.295 112.618 191.652 109.175C190.997 105.733 192.886 102.29 194.286 103.793C195.301 104.885 195.249 105.257 195.982 106.375C198.307 110.37 202.559 114.378 207.941 116.035C211.769 117.114 216.15 118.399 220.762 118.54C226.915 118.72 231.604 117.204 236.768 114.648C238.605 113.736 239.504 113.016 239.132 112.194C238.502 110.794 233.775 112.438 233.441 112.554C233.428 112.554 233.428 112.554 233.428 112.554C221.854 114.879 217.846 102.418 215.508 105.758C213.26 108.97 212.296 111.873 206.978 110.524C202.97 109.522 201.544 106.696 201.12 105.822C199.771 103.022 198.654 99.5407 198.641 96.5732C198.615 86.2963 201.48 87.7222 201.39 90.7025C201.3 93.6828 201.839 98.5515 204.344 98.9241C206.849 99.2966 207.723 94.9418 212.99 92.9121C214.159 92.4625 214.853 91.7174 215.392 90.998C215.418 90.9595 215.469 90.9338 215.495 90.9081C215.559 90.831 215.636 90.7154 215.7 90.5869C216.587 89.3665 217.242 88.4031 219.567 89.4565C222.959 90.9851 227.121 88.6985 227.121 89.9189C227.121 91.1393 225.9 94.171 220.582 94.2352C215.264 94.2995 213.234 94.3123 210.6 97.4853C207.954 100.658 208.892 105.771 209.791 106.568C210.099 106.837 210.511 106.863 210.819 106.619L210.986 106.426C211.538 105.476 211.692 104.345 211.859 103.24C211.988 102.367 212.116 101.48 212.45 100.645C212.938 98.9883 214.596 96.9201 215.932 96.843C216.535 96.8173 217.049 97.2669 217.422 98.1661C218.758 102.315 221.34 105.334 225.091 107.146C234.43 111.667 241.971 107.993 245.773 106.246C247.045 105.655 248.535 104.705 249.768 103.947C250.847 103.086 248.381 102.161 242.754 102.816C240.493 103.073 239.196 105.81 237.603 106.285C232.722 107.749 227.044 105.232 224.808 103.086C224.346 102.637 224.256 102.264 224.346 102.046C224.603 101.416 226.465 101.558 227.467 101.519C228.842 101.455 230.409 101.378 231.591 100.992C232.914 100.671 234.16 100.234 235.368 99.8105C238.091 98.8598 240.66 97.9735 243.589 98.6029C245.182 98.847 246.839 99.4251 248.445 99.9775C249.473 100.337 250.475 100.671 251.451 100.941C252.453 101.185 253.301 101.262 253.468 100.761C253.468 100.761 253.609 100.453 253.417 100.042L253.43 99.9646ZM240.378 74.1181C239.774 74.4393 239.273 75.1073 239.158 74.8889C239.042 74.6705 239.569 73.9126 240.172 73.5786C240.776 73.2574 241.213 73.0134 241.329 73.2318C241.444 73.4501 240.982 73.7841 240.365 74.1053L240.378 74.1181ZM243.756 72.7436C243.011 73.2446 242.253 73.0262 242.112 72.8207C241.971 72.6151 242.562 72.5638 243.307 72.0628C244.052 71.5618 244.591 70.6368 244.746 70.8552C244.9 71.0736 244.501 72.2554 243.756 72.7564V72.7436ZM246.737 69.121C246.39 69.8789 245.863 70.3671 245.555 70.2258C245.247 70.0844 245.259 69.3522 245.606 68.6071C245.953 67.8621 246.48 67.3611 246.788 67.5024C247.096 67.6437 247.084 68.3759 246.737 69.121ZM247.829 64.4064C248.163 64.4321 248.394 65.0102 248.33 65.6911C248.265 66.3719 247.944 66.8986 247.61 66.8729C247.276 66.8472 247.045 66.2691 247.109 65.5883C247.174 64.9074 247.495 64.3808 247.829 64.4064ZM246.955 63.944C246.621 64.1238 246.043 63.7128 245.658 63.0191C245.272 62.3254 245.221 61.606 245.542 61.4261C245.876 61.2463 246.454 61.6574 246.839 62.3511C247.225 63.0448 247.276 63.7641 246.955 63.944ZM244.874 57.5337C245.182 57.2768 245.812 57.7778 246.287 58.6385C246.762 59.4992 246.891 60.4113 246.583 60.6682C246.274 60.9251 245.645 60.4241 245.17 59.5634C244.694 58.7027 244.566 57.7907 244.874 57.5337ZM244.116 60.2571C243.898 60.5654 243.243 60.4755 242.664 60.0644C242.086 59.6405 241.791 59.0496 242.009 58.7413C242.228 58.433 242.883 58.5229 243.461 58.934C244.039 59.3579 244.334 59.9488 244.116 60.2571ZM242.253 54.3864C243.011 54.7975 243.525 55.5297 243.397 56.0307C243.268 56.5189 242.536 56.5831 241.778 56.1721C241.02 55.761 240.506 55.0287 240.635 54.5277C240.763 54.0396 241.496 53.9754 242.253 54.3864ZM182.981 36.0164C184.163 36.1192 185.127 36.2734 185.101 36.5817C185.075 36.89 184.073 37.2111 182.891 37.1212C181.709 37.0184 180.515 36.0036 180.54 35.6953C180.566 35.387 181.812 35.9265 182.981 36.0164ZM177.779 32.4966C178.459 33.6142 178.948 34.5905 178.626 34.7832C178.305 34.9759 177.316 34.3079 176.635 33.1903C175.954 32.0727 176.16 30.2742 176.468 30.0815C176.777 29.8888 177.085 31.379 177.779 32.4966ZM176.905 25.4954C176.481 26.7415 176.16 27.8077 175.813 27.6793C175.466 27.5637 175.338 26.369 175.762 25.1229C176.186 23.8768 177.701 22.8877 178.061 23.0161C178.408 23.1317 177.329 24.2493 176.905 25.4954ZM182.056 21.436C181.08 22.1426 180.052 22.3867 179.757 21.9884C179.461 21.5773 180.014 20.6781 180.99 19.9716C181.966 19.265 182.994 19.021 183.29 19.4192C183.585 19.8303 183.033 20.7295 182.056 21.436ZM185.64 18.3273C184.407 18.5713 183.392 18.3787 183.392 17.8777C183.392 17.3767 184.394 16.7729 185.628 16.5288C186.861 16.2847 187.876 16.4774 187.876 16.9784C187.876 17.4794 186.874 18.0832 185.64 18.3273ZM190.175 19.8431C189.019 19.7403 188.12 19.2265 188.158 18.6741C188.21 18.1217 189.186 17.762 190.342 17.8648C191.498 17.9676 192.397 18.4814 192.359 19.0338C192.308 19.5862 191.331 19.9459 190.175 19.8431ZM192.898 17.094C193.053 16.5288 194.337 16.1563 195.763 16.259C197.189 16.3618 198.23 16.9013 198.075 17.4537C197.921 18.019 196.637 18.3915 195.211 18.2887C193.785 18.186 192.744 17.6464 192.898 17.094ZM198.204 21.9756C197.934 22.4637 196.971 22.4252 196.059 21.9113C195.147 21.3975 194.646 20.5882 194.915 20.1C195.185 19.6119 196.149 19.6504 197.061 20.1643C197.973 20.6781 198.474 21.4874 198.204 21.9756ZM157.302 43.9939C157.841 44.1866 158.214 44.5206 158.137 44.739C158.06 44.9574 157.559 44.9959 157.019 44.8032C156.48 44.6105 156.107 44.2765 156.184 44.0581C156.261 43.8397 156.762 43.8012 157.302 43.9939ZM152.78 44.315C153.294 44.1095 153.782 44.1481 153.885 44.3921C153.975 44.6362 153.641 44.9959 153.127 45.2014C152.613 45.407 152.125 45.3684 152.022 45.1244C151.932 44.8803 152.266 44.5206 152.78 44.315ZM159.229 61.8244C159.486 61.4261 160.295 61.4904 161.04 61.9528C161.785 62.4281 162.196 63.1347 161.939 63.5329C161.682 63.9311 160.873 63.8669 160.128 63.4044C159.383 62.9291 158.972 62.2226 159.229 61.8244ZM150.725 46.9357C150.391 47.2954 149.954 47.4367 149.761 47.2568C149.568 47.077 149.697 46.6402 150.031 46.2805C150.365 45.9208 150.802 45.7795 150.994 45.9594C151.187 46.1392 151.059 46.576 150.725 46.9357ZM150.095 44.315C150.737 44.071 151.367 44.071 151.508 44.315C151.649 44.5463 151.251 44.9317 150.622 45.1757C149.979 45.4198 149.35 45.4198 149.209 45.1757C149.067 44.9445 149.466 44.5591 150.095 44.315ZM148.554 49.3251C148.631 48.8369 148.9 48.4772 149.157 48.5157C149.414 48.5543 149.568 48.9782 149.491 49.4792C149.414 49.9674 149.144 50.3271 148.888 50.2885C148.631 50.25 148.476 49.8261 148.554 49.3251ZM148.721 51.8044C149.016 51.7144 149.376 52.087 149.543 52.6394C149.71 53.1917 149.607 53.7056 149.311 53.7955C149.016 53.8854 148.656 53.5129 148.489 52.9605C148.322 52.4081 148.425 51.8943 148.721 51.8044ZM146.806 46.6787C147.166 46.2034 147.706 45.9208 148.04 46.0493C148.361 46.1906 148.335 46.6916 147.975 47.1669C147.616 47.6422 147.076 47.9248 146.742 47.7964C146.421 47.655 146.447 47.1541 146.806 46.6787ZM146.293 48.8369C146.729 48.8497 147.025 49.3764 146.948 50.0059C146.884 50.6354 146.472 51.1364 146.049 51.1235C145.612 51.1107 145.316 50.584 145.393 49.9545C145.458 49.3251 145.869 48.8241 146.293 48.8369ZM146.871 55.0031C146.37 55.093 145.792 54.5663 145.573 53.8469C145.368 53.1147 145.599 52.4595 146.1 52.3696C146.601 52.2797 147.179 52.8064 147.397 53.5257C147.603 54.258 147.372 54.9131 146.871 55.0031ZM149.504 58.7798C148.99 58.9982 148.181 58.5743 147.693 57.8421C147.205 57.1098 147.218 56.3391 147.719 56.1335C148.232 55.9151 149.042 56.3391 149.53 57.0713C150.018 57.8035 150.005 58.5743 149.504 58.7798ZM149.979 55.0287C150.262 54.8104 150.827 55.0673 151.238 55.6197C151.649 56.1721 151.752 56.7758 151.457 56.9942C151.161 57.2126 150.609 56.9557 150.198 56.4033C149.787 55.8637 149.684 55.2471 149.979 55.0287ZM153.217 62.3254C152.69 62.6337 151.701 62.274 151.007 61.5289C150.313 60.7838 150.172 59.936 150.699 59.6277C151.226 59.3194 152.215 59.6791 152.908 60.4241C153.602 61.1692 153.743 62.0171 153.217 62.3254ZM153.14 59.1138C152.562 58.6257 152.305 57.9834 152.562 57.6751C152.818 57.3668 153.499 57.5081 154.077 57.9962C154.655 58.4844 154.912 59.1267 154.655 59.435C154.399 59.7433 153.718 59.602 153.14 59.1138ZM157.392 65.7168C156.852 66.0379 155.812 65.6782 155.067 64.9203C154.321 64.1495 154.154 63.276 154.694 62.9548C155.234 62.6337 156.274 62.9934 157.019 63.7513C157.764 64.5221 157.931 65.3956 157.392 65.7168ZM158.162 61.5161C157.918 61.8886 157.135 61.8244 156.428 61.3491C155.722 60.8866 155.349 60.1929 155.593 59.8204C155.837 59.4478 156.621 59.5121 157.327 59.9874C158.034 60.4627 158.407 61.1435 158.162 61.5161ZM158.496 69.1081C157.983 67.9006 158.304 66.7573 159.216 66.5518C160.128 66.3462 161.271 67.1555 161.785 68.3759C162.299 69.5963 161.978 70.7268 161.066 70.9323C160.154 71.1378 159.01 70.3285 158.496 69.1081ZM163.301 79.6291C161.926 79.5135 160.667 77.8307 160.488 75.8909C160.308 73.9511 161.271 72.4738 162.659 72.5895C164.046 72.7051 165.292 74.3879 165.472 76.3277C165.652 78.2675 164.688 79.7448 163.301 79.6291ZM165.652 66.8858C165.279 67.284 164.38 67.0399 163.635 66.3334C162.89 65.6397 162.594 64.7533 162.967 64.3551C163.339 63.9568 164.239 64.2009 164.984 64.9074C165.729 65.6011 166.024 66.4875 165.652 66.8858ZM168.722 73.8484C167.848 73.9897 166.731 72.9748 166.23 71.5746C165.729 70.1744 166.037 68.9154 166.911 68.7741C167.784 68.6328 168.902 69.6477 169.403 71.0479C169.904 72.4481 169.596 73.7071 168.709 73.8484H168.722ZM208.841 42.1184C208.288 43.904 206.901 45.24 205.745 45.1244C204.588 45.0087 204.087 43.4672 204.64 41.6816C205.192 39.896 206.58 38.56 207.736 38.6756C208.892 38.7912 209.393 40.3327 208.841 42.1184ZM210.678 32.7535C210.69 34.3593 209.843 35.7595 208.776 35.888C207.71 36.0164 206.824 34.8217 206.811 33.216C206.798 31.6102 207.646 30.21 208.712 30.0815C209.778 29.953 210.665 31.1477 210.678 32.7535ZM206.181 23.0803C207.042 22.7849 208.173 23.5557 208.686 24.7889C209.213 26.0221 208.93 27.2682 208.07 27.5508C207.209 27.8463 206.079 27.0755 205.565 25.8423C205.038 24.609 205.321 23.363 206.181 23.0803ZM200.966 18.5071C201.531 18.0318 202.816 18.263 203.831 19.021C204.845 19.7789 205.192 20.7809 204.627 21.2433C204.062 21.7058 202.777 21.4874 201.762 20.7295C200.747 19.9716 200.401 18.9696 200.966 18.5071ZM204.242 32.7407C204.242 33.9482 203.715 34.9245 203.073 34.9245C202.43 34.9245 201.904 33.9482 201.904 32.7407C201.904 31.5331 202.43 30.5568 203.073 30.5568C203.715 30.5568 204.242 31.5331 204.242 32.7407ZM200.105 26.2919C199.656 25.3541 199.694 24.3907 200.195 24.1594C200.696 23.9153 201.467 24.4934 201.916 25.4312C202.366 26.369 202.328 27.3324 201.827 27.5637C201.326 27.7949 200.555 27.2297 200.105 26.2919ZM200.285 39.7804C200.786 38.4315 201.775 37.558 202.482 37.8277C203.188 38.0975 203.368 39.395 202.867 40.7438C202.366 42.0927 201.377 42.9662 200.67 42.6964C199.964 42.4267 199.784 41.1292 200.285 39.7804ZM196.02 46.3062C196.894 44.9702 198.178 44.2637 198.898 44.739C199.617 45.2143 199.476 46.6659 198.589 48.0019C197.703 49.3379 196.431 50.0444 195.712 49.5691C195.005 49.1067 195.134 47.6422 196.007 46.3062H196.02ZM190.676 52.3054C191.832 50.9308 193.348 50.3142 194.08 50.9308C194.813 51.5474 194.466 53.1532 193.322 54.5277C192.166 55.9023 190.65 56.5189 189.918 55.9023C189.186 55.2857 189.533 53.6799 190.676 52.3054ZM184.356 58.5614C185.576 57.1484 187.182 56.5446 187.927 57.1869C188.672 57.8421 188.287 59.5121 187.066 60.9123C185.846 62.3254 184.24 62.9291 183.495 62.2868C182.75 61.6317 183.135 59.9617 184.356 58.5614ZM178.177 66.9114C179.256 65.0488 180.926 63.9954 181.915 64.5734C182.904 65.1515 182.84 67.117 181.761 68.9797C180.682 70.8424 179.012 71.8958 178.023 71.3177C177.033 70.7396 177.098 68.7741 178.177 66.9114ZM178.305 80.6055C177.303 83.1105 175.248 84.652 173.706 84.0354C172.165 83.4188 171.728 80.8881 172.73 78.3831C173.732 75.8781 175.787 74.3365 177.329 74.9531C178.87 75.5698 179.307 78.1005 178.305 80.6055ZM191.331 88.1333C190.972 92.8222 188.043 96.7402 184.78 96.8687C181.517 96.9972 179.166 93.3103 179.526 88.6086C179.885 83.9198 182.814 80.0017 186.077 79.8732C189.34 79.7448 191.691 83.4316 191.331 88.1333ZM193.541 71.6902C192.796 74.3622 190.599 76.3791 188.646 76.1992C186.694 76.0194 185.705 73.7071 186.45 71.0351C187.195 68.3631 189.391 66.3462 191.344 66.5261C193.297 66.7059 194.286 69.0182 193.541 71.6902ZM198.23 60.9123C197.189 62.9034 195.301 64.2651 194.016 63.944C192.731 63.6228 192.526 61.7344 193.566 59.7433C194.607 57.7521 196.495 56.3904 197.78 56.7116C199.065 57.0327 199.27 58.9211 198.23 60.9123ZM200.388 54.5277C199.142 54.2323 198.91 52.4338 199.861 50.5069C200.812 48.58 202.597 47.244 203.843 47.5394C205.089 47.8349 205.321 49.6334 204.37 51.5603C203.419 53.4872 201.634 54.8232 200.388 54.5277ZM230.294 62.5052C229.6 63.1989 228.726 63.4558 228.367 63.0961C227.994 62.7236 228.264 61.8629 228.958 61.1692C229.651 60.4755 230.525 60.2186 230.885 60.5783C231.257 60.9508 230.987 61.8115 230.294 62.5052ZM240.082 58.1118C240.082 58.4972 239.491 58.7927 238.772 58.7798C238.053 58.767 237.475 58.4458 237.487 58.0733C237.487 57.6879 238.078 57.3924 238.798 57.4053C239.517 57.4053 240.095 57.7393 240.082 58.1118ZM237.269 52.9862C238.194 52.9605 238.99 53.4487 239.055 54.0653C239.119 54.6819 238.425 55.2086 237.5 55.2343C236.575 55.26 235.779 54.7718 235.715 54.1552C235.65 53.5386 236.344 53.0119 237.269 52.9862ZM235.265 58.1375C235.445 58.5358 234.983 59.1395 234.225 59.4864C233.467 59.8332 232.709 59.7818 232.529 59.3836C232.349 58.9854 232.811 58.3816 233.569 58.0347C234.327 57.6879 235.085 57.7393 235.265 58.1375ZM231.732 54.0139C232.734 53.5643 233.736 53.7827 233.968 54.4764C234.199 55.1829 233.557 56.1078 232.555 56.5574C231.553 57.0071 230.551 56.7887 230.319 56.095C230.088 55.3884 230.73 54.4635 231.732 54.0139ZM226.401 57.8292C227.352 56.9814 228.457 56.8529 228.868 57.5337C229.279 58.2146 228.829 59.4735 227.866 60.3214C226.902 61.1692 225.81 61.2977 225.399 60.6168C225.001 59.9231 225.438 58.6771 226.401 57.8292ZM225.643 65.8966C226.221 64.9717 227.095 64.4707 227.596 64.779C228.084 65.0873 228.02 66.0893 227.429 67.0142C226.851 67.9391 225.977 68.4401 225.476 68.1318C224.988 67.8235 225.052 66.8215 225.643 65.8966ZM225.091 69.5578C225.682 69.8404 225.733 70.9708 225.194 72.0756C224.667 73.1804 223.755 73.8612 223.164 73.5786C222.573 73.296 222.522 72.1655 223.061 71.0608C223.588 69.956 224.5 69.2751 225.091 69.5578ZM221.764 63.3017C222.702 62.1584 223.896 61.7858 224.423 62.4924C224.963 63.1861 224.641 64.6762 223.704 65.8195C222.766 66.9628 221.571 67.3354 221.044 66.6288C220.518 65.9223 220.826 64.445 221.764 63.3017ZM217.692 69.8018C218.642 68.5814 219.875 68.1704 220.441 68.8898C221.006 69.6091 220.698 71.1635 219.747 72.3839C218.796 73.6043 217.563 74.0154 216.998 73.296C216.433 72.5894 216.741 71.0222 217.692 69.8018ZM211.795 89.7648C209.945 91.2549 207.646 91.4733 206.657 90.2401C205.668 89.0068 206.348 86.7973 208.198 85.3071C210.048 83.817 212.348 83.5986 213.337 84.8318C214.339 86.0651 213.645 88.2746 211.795 89.7648ZM215.482 80.3999C214.223 81.8258 212.579 82.1984 211.821 81.2221C211.05 80.2586 211.461 78.3188 212.72 76.8929C213.979 75.467 215.623 75.0945 216.381 76.0708C217.152 77.0342 216.741 78.974 215.482 80.3999ZM219.631 84.0354C218.771 85.2429 217.563 85.8467 216.921 85.3842C216.279 84.9218 216.458 83.5858 217.319 82.3782C218.18 81.1707 219.387 80.5669 220.03 81.0294C220.672 81.4918 220.492 82.8278 219.631 84.0354ZM221.019 79.3979C220.402 79.1153 220.325 77.9463 220.852 76.7773C221.378 75.6083 222.316 74.9018 222.933 75.1715C223.549 75.4541 223.627 76.6231 223.1 77.7921C222.573 78.9611 221.635 79.6677 221.019 79.3979Z" fill="#507096"/>
<path d="M100.592 67.8595L100.359 67.7324C99.5654 67.4148 98.5703 67.2666 97.5753 67.1078C97.0036 67.0232 96.4743 66.9385 96.0085 66.822C94.029 66.4092 89.3076 65.1494 87.4233 62.2489C85.5496 59.3483 83.2948 63.7627 80.1402 61.9631C77.5042 60.4493 79.3991 57.9616 77.8853 58.5332C76.0116 59.1578 72.3065 62.9052 70.8139 63.5404C69.2895 64.1861 67.2147 64.7578 65.1504 64.8425H65.0551C64.0812 65.033 63.933 65.4459 63.9648 65.7528C64.0177 66.1869 64.3776 66.5997 66.5583 66.6632C66.9288 66.6738 67.4899 66.6738 67.998 66.6209C69.5542 66.4621 71.0997 66.1445 72.6241 65.8375C74.646 65.4247 76.7315 65.0118 78.8063 64.9695C82.4479 64.906 85.7613 65.9751 89.2653 67.1078C91.8165 67.9336 94.4418 68.7804 97.2471 69.1721C97.7658 69.2568 98.348 69.3097 98.8562 69.3203C99.0467 69.3203 99.2267 69.3203 99.3961 69.3203C99.7454 69.3203 100.677 69.278 100.92 68.7063C101.047 68.4099 100.92 68.0923 100.592 67.8595Z" fill="#507096"/>
<path d="M126.475 56.4691C126.401 56.3103 126.051 55.9821 126.051 55.9821L125.797 55.7704C124.379 54.6906 123.055 54.2778 121.118 53.8861C119.477 53.5474 117.72 53.9814 115.751 54.6165C113.401 55.3787 110.68 55.5905 110.257 54.7859C110.109 54.5001 110.437 54.1402 111.114 53.8438C112.332 53.3145 112.607 53.1133 113.983 52.2135C115.846 50.9961 112.194 48.5614 110.088 49.2706C108.267 49.8846 108.468 47.7674 108.595 46.8888H108.584C108.584 46.8888 108.605 46.7935 108.616 46.7512C108.648 46.4018 108.627 46.0101 108.785 45.6926C109.04 45.2162 109.611 44.9515 109.876 44.4646C110.024 44.2105 110.13 43.9353 110.183 43.6495C110.278 43.1943 110.13 42.7073 110.236 42.3368C110.342 41.8816 110.924 41.5852 111.146 41.0136C111.559 40.2831 111.061 39.3516 111.686 38.8223C112.004 38.5364 112.3 38.2189 112.438 37.806C112.628 37.3296 112.522 36.7898 112.734 36.4828C112.999 36.1017 113.496 35.9852 113.793 35.6359C114.153 35.3077 114.216 34.7678 114.576 34.4503C114.862 34.1962 115.444 34.2597 115.91 34.0268C116.302 33.868 116.598 33.4658 117.032 33.4234C117.36 33.3917 117.773 33.6986 118.249 33.7092C118.641 33.7516 119.033 33.561 119.414 33.6351C119.837 33.7304 120.028 34.2597 120.504 34.5244C120.79 34.7043 121.235 34.7678 121.436 35.0325C121.7 35.5406 121.372 35.9217 122.071 36.4828C122.918 37.3296 122.103 37.806 121.796 38.3353C121.404 39.2669 121.584 39.8491 120.345 40.5478C118.789 41.1723 118.175 41.5323 117.709 42.6967C117.318 43.6601 116.82 45.5232 117.434 45.5655C117.921 45.5973 119.012 43.1308 121.033 42.9508C123.765 42.7179 125.342 39.468 125.596 38.42C126.475 34.7149 125.755 32.2907 123.384 29.3266C121.616 27.1142 118.334 26.0132 115.582 26.299C111.411 26.7119 107.737 29.6125 105.356 33.0847C104.001 35.0007 102.466 37.2661 101.354 38.9387C99.8297 41.2359 99.184 43.099 98.4218 43.3636C97.7972 43.5754 97.9983 42.3474 98.9087 40.569C100.56 37.5837 102.804 34.9055 104.519 31.9626C107.685 26.7119 108.531 19.9369 106.562 14.1675C105.281 10.346 102.667 7.05374 99.004 5.15885C93.0759 2.08892 85.3693 1.63372 79.4411 8.20761C75.6408 12.4314 75.6831 19.4923 80.0445 23.3667C83.9508 26.8389 89.2861 25.3992 91.3504 23.7055C93.3934 22.0223 94.3991 20.1909 94.3038 18.4443C94.2827 17.8514 94.1874 16.8352 93.5628 16.6976C93.0864 16.5917 92.409 18.169 92.0702 18.4654C91.2445 19.397 90.5987 19.8734 88.7356 20.1486C85.1364 20.4979 83.6861 18.3596 83.5697 15.9142C83.5908 13.2042 86.0256 13.4053 87.0313 12.3256C87.5606 11.6057 88.0158 10.8329 89.6566 11.4363C90.8211 12.0186 91.3715 11.7857 92.1972 11.8386C92.6842 11.9551 93.0335 12.5055 93.4464 12.7702C94.0815 13.2465 94.8967 13.1724 95.2778 13.67C95.6059 14.1358 95.5847 14.7709 95.8811 15.2685C96.1881 15.893 96.8339 16.2635 96.9927 16.7082C97.1938 17.3116 96.8339 17.9361 96.8657 18.5607C96.8445 19.3229 97.2891 20.0533 97.1197 20.5826C96.908 21.2495 96.2411 21.6624 96.0188 22.3399C95.733 22.9433 95.8812 23.6843 95.5424 24.256C95.2672 24.7217 94.4838 24.9123 93.9757 25.4522C93.5099 25.8756 93.2664 26.479 93.0759 27.0612C92.7583 28.2151 91.2233 28.1093 90.4929 29.0938C89.8789 29.7289 89.8366 30.6711 89.2967 31.0945C88.8732 31.4544 88.1428 31.5603 87.5923 31.952C87.243 32.1954 86.936 32.5024 86.6925 32.8518C86.2056 33.5081 86.2056 34.4291 85.7292 35.0431C85.401 35.4453 84.8717 35.6465 84.4271 35.9111C83.3685 36.4828 82.5958 37.806 82.564 38.9705C82.5746 39.4468 82.5216 39.902 82.384 40.3149C81.7489 41.6805 81.0079 41.924 80.7644 41.4582C80.4997 40.9395 80.6373 40.569 80.3621 40.0714C80.1821 39.648 79.5152 38.6952 78.499 38.1024C77.4827 37.5096 77.6944 37.5414 77.5462 37.0226C77.3769 36.4933 76.837 35.9958 76.2865 35.8899C76.0536 35.837 75.7784 35.8158 75.5772 35.6782C75.2808 35.4665 75.1538 35.0431 74.8362 34.8208C74.6774 34.6937 74.4975 34.5985 74.3069 34.5349C73.9999 34.4291 73.6612 34.482 73.4177 34.3762C73.1213 34.2597 72.9625 33.8363 72.6026 33.6351C72.1368 33.2858 71.4593 33.5399 71.1523 33.0635C70.9935 32.82 70.7924 32.5871 70.5277 32.4601C70.2207 32.2907 69.8396 32.3013 69.6491 32.1319C69.4162 31.9202 69.3844 31.5603 69.1727 31.3274C68.9822 31.0522 68.6223 30.9569 68.4317 30.6816C68.2835 30.4593 68.3894 30.0677 68.2729 29.7289C68.1988 29.4431 67.9553 29.2102 67.9659 28.9032C67.9765 28.6809 68.22 28.4162 68.2729 28.0987C68.3364 27.834 68.2412 27.5482 68.3258 27.2941C68.4317 27.0189 68.8128 26.9342 69.0351 26.6378C69.1833 26.4578 69.268 26.1614 69.4691 26.045C69.8396 25.9074 70.1255 25.9391 70.5701 25.5157C71.2264 25.0181 71.544 25.304 71.8827 25.558C72.4861 25.9074 73.4812 25.918 73.8411 26.6907C74.0211 27.1777 74.074 27.3471 74.1058 27.8446C74.1164 28.0563 74.8574 28.9879 75.0268 27.22C75.175 25.558 74.0846 23.949 72.7614 23.0915C71.11 22.0329 67.8389 21.9906 65.5629 24.1819C64.155 25.5369 63.3504 27.1459 63.2869 29.0514C63.1811 31.9414 64.4937 34.8949 66.6427 36.8533C67.8283 37.9542 70.2948 39.8385 71.0994 41.2359C73.079 44.6445 70.9723 47.1746 69.7126 47.7357C69.6809 47.7462 69.6809 47.7568 69.6491 47.7674C69.2998 47.905 68.961 48.085 68.654 48.3496C67.4578 49.2283 67.0979 50.7738 67.6378 52.5311C67.6695 52.7322 67.7225 52.9545 67.786 53.1663C67.9342 53.7697 68.0824 54.3307 67.8389 54.7224C67.7013 54.9129 67.2037 54.9976 66.251 54.6906L66.0499 54.6271C64.6737 54.1508 63.234 53.6532 61.7202 54.0661C61.0109 54.2354 60.2911 54.4895 59.5924 54.733C58.7561 55.0294 57.8987 55.3258 57.0518 55.4846L56.7024 55.5799C55.2733 55.9504 54.5217 56.1621 54.49 56.6914C54.4688 57.1148 54.924 57.2842 55.104 57.3583C56.7448 57.8241 58.4915 57.0831 60.0264 56.4373C61.1486 55.9715 62.1754 55.5269 63.0858 55.5587C64.1656 55.5799 65.4888 56.1303 65.9228 57.1042C66.4627 59.2214 62.9482 60.6611 60.3758 61.7092C59.5607 62.0373 58.862 62.3231 58.3856 62.5878C57.814 62.8842 57.1682 63.2124 57.3905 63.6781C57.7399 64.4086 60.5134 63.3923 60.5346 63.3923C63.6468 62.1749 71.237 59.3379 70.2313 53.6744C70.1678 53.3568 70.0619 53.0286 69.9561 52.7005C69.6279 51.6207 69.7655 50.8056 70.1678 50.2763C70.5171 49.8317 70.9088 49.7258 71.1629 49.7046C71.6287 49.6517 71.9674 49.7788 72.2744 50.2445C72.8143 51.0808 73.7353 51.5572 74.7833 50.6786C75.3761 50.1916 78.6578 45.2585 78.6366 46.5818C78.5731 50.1598 73.7353 54.6695 73.2695 55.9292C73.1107 56.3315 72.1897 59.5284 72.6026 59.7719C72.9837 59.9942 73.3224 59.5814 73.4495 59.4332C76.2336 56.4479 79.9387 52.7005 81.1561 53.5474C83.1145 54.9024 78.8801 58.9144 82.2358 58.7345C84.8929 58.5863 85.6974 57.8347 87.116 58.6816C88.5133 59.719 88.5662 61.0952 89.3602 62.4713C90.1541 63.8369 92.049 63.5723 91.6891 61.635C91.3186 59.6978 92.3878 57.7606 93.1711 58.6075C93.7428 59.2214 93.711 59.4332 94.1239 60.0577C95.4365 62.3125 97.8184 64.5568 100.857 65.4883C103.006 66.0917 105.472 66.8222 108.066 66.8963C111.527 67.0021 114.163 66.1447 117.074 64.705C118.112 64.1968 118.609 63.784 118.408 63.3288C118.059 62.5454 115.391 63.4664 115.211 63.5299C108.701 64.832 106.446 57.8241 105.123 59.7084C103.863 61.5186 103.313 63.1488 100.317 62.3972C98.0619 61.8362 97.2573 60.2483 97.0244 59.7507C96.2622 58.1734 95.6377 56.215 95.6271 54.5424C95.6165 48.7625 97.2256 49.5564 97.1726 51.2396C97.1197 52.9228 97.4267 55.654 98.8346 55.8657C100.243 56.0774 100.74 53.6215 103.694 52.4782C104.35 52.2241 104.742 51.8113 105.049 51.3984C105.07 51.3772 105.091 51.3666 105.102 51.3455C105.144 51.3031 105.176 51.2396 105.218 51.1655C105.716 50.4774 106.086 49.9375 107.399 50.5304C109.315 51.3984 111.644 50.1069 111.644 50.795C111.644 51.4831 110.956 53.1874 107.97 53.2192C104.975 53.2615 103.842 53.2615 102.349 55.0506C100.857 56.8396 101.386 59.719 101.894 60.1636C102.074 60.3118 102.296 60.333 102.476 60.1954L102.571 60.0895C102.878 59.5602 102.974 58.9145 103.058 58.3005C103.133 57.8135 103.196 57.3054 103.397 56.8396C103.672 55.908 104.604 54.7436 105.356 54.7012C105.694 54.6801 105.98 54.9447 106.192 55.4422C106.944 57.7712 108.394 59.4755 110.5 60.5023C115.762 63.043 119.996 60.9787 122.145 59.9942C122.865 59.6661 123.701 59.1262 124.389 58.7027C125.003 58.2158 123.606 57.6971 120.441 58.0676C119.17 58.2158 118.44 59.7507 117.54 60.026C114.788 60.8517 111.601 59.4332 110.342 58.2264C110.088 57.9723 110.024 57.7606 110.077 57.6441C110.225 57.2948 111.263 57.3689 111.834 57.3477C112.607 57.316 113.486 57.2736 114.153 57.0513C114.894 56.8714 115.603 56.6279 116.28 56.3844C117.815 55.8551 119.255 55.347 120.906 55.6963C121.806 55.8339 122.738 56.1621 123.638 56.4691C124.209 56.6702 124.781 56.8608 125.331 57.009C125.892 57.1466 126.369 57.1889 126.464 56.9031C126.464 56.9031 126.538 56.7337 126.432 56.5008L126.475 56.4691ZM121.34 41.3841C120.917 41.6699 120.441 41.4582 120.345 41.31C120.239 41.1618 120.599 41.1723 121.023 40.8865C121.446 40.6007 121.711 40.0291 121.817 40.1773C121.923 40.3255 121.774 41.0982 121.351 41.3841H121.34ZM123.214 38.8223C122.981 39.3304 122.6 39.6586 122.346 39.5421C122.092 39.4257 122.092 38.9281 122.325 38.4094C122.558 37.9013 122.939 37.5731 123.193 37.6896C123.436 37.806 123.447 38.3036 123.214 38.8223ZM122.261 34.9055C122.526 34.7572 122.949 34.9901 123.204 35.4453C123.458 35.8899 123.436 36.3769 123.172 36.5251C122.907 36.6733 122.484 36.4404 122.23 35.9852C121.976 35.5406 121.997 35.0537 122.261 34.9055ZM120.07 32.9259C120.229 32.7036 120.726 32.7883 121.171 33.1164C121.616 33.4446 121.859 33.8786 121.7 34.1009C121.542 34.3232 121.044 34.2385 120.599 33.9104C120.155 33.5822 119.911 33.1482 120.07 32.9259ZM117.974 31.8567C118.567 31.8673 119.043 32.1213 119.033 32.4177C119.022 32.7142 118.546 32.9576 117.953 32.947C117.36 32.9365 116.884 32.6824 116.894 32.386C116.905 32.0896 117.381 31.8461 117.974 31.8567ZM114.364 32.3436C114.947 32.1108 115.529 32.1849 115.666 32.5236C115.804 32.8624 115.433 33.3176 114.851 33.5504C114.269 33.7833 113.687 33.6986 113.549 33.3705C113.412 33.0317 113.782 32.5765 114.364 32.3436ZM86.8301 20.4873C87.4865 20.5403 88.0369 20.6356 88.0158 20.8049C88.0052 20.9743 87.4335 21.1649 86.7772 21.1119C86.1209 21.059 85.4434 20.4768 85.454 20.3074C85.4646 20.138 86.1632 20.4344 86.8301 20.4873ZM83.9084 18.4972C84.2895 19.1323 84.5647 19.6828 84.3848 19.7887C84.2048 19.8945 83.6438 19.524 83.2627 18.8889C82.8816 18.2537 82.998 17.248 83.1674 17.1316C83.3474 17.0257 83.5167 17.862 83.8978 18.4866L83.9084 18.4972ZM83.4109 14.5698C83.1674 15.2685 82.9874 15.8719 82.7969 15.7978C82.5958 15.7342 82.5322 15.0567 82.7651 14.3581C83.0086 13.6594 83.8555 13.0983 84.0566 13.1724C84.2577 13.2465 83.6438 13.8711 83.4109 14.5698ZM86.3114 12.2832C85.761 12.6855 85.1787 12.8231 85.0199 12.5902C84.8506 12.3573 85.1681 11.8492 85.7186 11.4575C86.2691 11.0658 86.8513 10.9176 87.0101 11.1505C87.1795 11.3834 86.8619 11.8915 86.3114 12.2832ZM88.3334 10.5259C87.6347 10.6636 87.0736 10.5471 87.0736 10.2719C87.0736 9.99664 87.6347 9.64731 88.3334 9.50969C89.032 9.37207 89.5931 9.48852 89.5931 9.76375C89.5931 10.039 89.032 10.3883 88.3334 10.5259ZM90.874 11.3834C90.2177 11.3305 89.7201 11.0341 89.7413 10.7271C89.7625 10.4201 90.3129 10.2189 90.9693 10.2719C91.6256 10.3248 92.1231 10.6212 92.102 10.9282C92.0808 11.2352 91.5303 11.4363 90.874 11.3834ZM92.4089 9.83785C92.4936 9.52028 93.2135 9.30856 94.018 9.36149C94.8226 9.41441 95.4048 9.72141 95.3201 10.039C95.2354 10.3566 94.5156 10.5683 93.711 10.5154C92.9065 10.4624 92.3243 10.1554 92.4089 9.83785ZM95.3942 12.5796C95.2354 12.8549 94.6955 12.8337 94.1874 12.5479C93.6793 12.2515 93.3935 11.7963 93.5417 11.5316C93.7004 11.2564 94.2403 11.2775 94.7485 11.5634C95.2566 11.8598 95.5424 12.315 95.3942 12.5796ZM69.3209 24.8488C69.6914 24.7429 70.0514 24.7641 70.1255 24.9017C70.1996 25.0393 69.9561 25.2405 69.5856 25.3569C69.2151 25.4733 68.8551 25.4416 68.781 25.304C68.7069 25.1664 68.9504 24.9652 69.3209 24.8488ZM67.3413 26.045C67.5742 25.7909 67.913 25.6639 68.1141 25.7698C68.3153 25.8756 68.2835 26.172 68.0612 26.4261C67.8283 26.6801 67.4896 26.8072 67.2884 26.7013C67.0873 26.5955 67.119 26.2991 67.3413 26.045ZM66.3886 27.8552C66.4521 27.4953 66.738 27.2306 67.0132 27.2624C67.2884 27.2941 67.4578 27.6117 67.3837 27.9716C67.3202 28.3316 67.0344 28.5962 66.7591 28.5645C66.4839 28.5327 66.3145 28.2151 66.3886 27.8552ZM66.3145 30.0782C66.2298 29.6548 66.4204 29.2737 66.7379 29.242C67.0555 29.1996 67.3837 29.5172 67.4684 29.9512C67.5531 30.3747 67.3625 30.7557 67.0449 30.7875C66.7274 30.8298 66.3992 30.5123 66.3145 30.0782ZM68.3788 32.82C68.0506 32.9365 67.5742 32.6718 67.3202 32.2272C67.0661 31.7932 67.1296 31.3486 67.4578 31.2321C67.786 31.1157 68.2623 31.3803 68.5164 31.8249C68.7705 32.259 68.7069 32.7036 68.3788 32.82ZM70.3689 34.6514C70.009 34.8314 69.4162 34.609 69.0351 34.1644C68.6646 33.7092 68.654 33.2011 69.0139 33.0211C69.3739 32.8412 69.9667 33.0635 70.3478 33.5081C70.7183 33.9633 70.7289 34.4714 70.3689 34.6514ZM72.6979 36.3769C72.285 36.5992 71.6181 36.3981 71.2158 35.9429C70.803 35.4877 70.8136 34.9372 71.2158 34.7255C71.6287 34.5032 72.2956 34.7043 72.6979 35.1595C73.1001 35.6147 73.1001 36.1652 72.6979 36.3769ZM73.1319 38.1024C72.8566 37.4037 73.1319 36.7368 73.7565 36.631C74.3704 36.5145 75.0903 37.0015 75.3655 37.7001C75.6408 38.3988 75.3655 39.0657 74.741 39.1716C74.127 39.288 73.4071 38.8011 73.1319 38.1024ZM76.2865 43.7871C75.3973 43.5648 74.7304 42.485 74.7939 41.3735C74.8574 40.262 75.6302 39.5315 76.5088 39.7538C77.398 39.9761 78.0649 41.0559 78.0014 42.1674C77.9379 43.279 77.1651 44.0094 76.2865 43.7871ZM101.386 23.9172C101.079 24.9229 100.296 25.6745 99.6392 25.611C98.9828 25.5474 98.7076 24.6794 99.0252 23.6737C99.3322 22.6681 100.116 21.9165 100.761 21.98C101.418 22.0435 101.693 22.9115 101.375 23.9172H101.386ZM102.413 18.6454C102.413 19.5452 101.947 20.3391 101.344 20.4132C100.74 20.4874 100.243 19.8098 100.243 18.91C100.243 18.0102 100.708 17.2163 101.312 17.1422C101.915 17.0681 102.413 17.7456 102.413 18.6454ZM99.8932 13.2042C100.38 13.0348 101.015 13.4688 101.301 14.1675C101.598 14.8662 101.439 15.5649 100.952 15.7237C100.465 15.8825 99.8297 15.459 99.5439 14.7603C99.2475 14.0617 99.4063 13.363 99.8932 13.2042ZM96.9503 10.6318C97.2679 10.3672 97.9878 10.4942 98.5594 10.9176C99.131 11.3411 99.3322 11.9021 99.004 12.1668C98.6864 12.4314 97.9666 12.3044 97.395 11.8809C96.8233 11.4575 96.6222 10.8965 96.9503 10.6318ZM98.7923 18.6454C98.7923 19.3229 98.4959 19.8734 98.136 19.8734C97.776 19.8734 97.4796 19.3229 97.4796 18.6454C97.4796 17.9679 97.776 17.4174 98.136 17.4174C98.4959 17.4174 98.7923 17.9679 98.7923 18.6454ZM96.4634 15.0144C96.2093 14.4851 96.2305 13.9452 96.5163 13.8076C96.8021 13.67 97.2362 13.9981 97.4796 14.5274C97.7337 15.0567 97.7125 15.5966 97.4267 15.7342C97.1409 15.8719 96.7069 15.5437 96.4634 15.0144ZM96.5692 22.6045C96.8551 21.8529 97.4055 21.3554 97.8078 21.5036C98.2101 21.6518 98.3053 22.3822 98.0301 23.1444C97.7549 23.9066 97.1938 24.3936 96.7915 24.2454C96.3893 24.0972 96.294 23.3667 96.5692 22.6045ZM94.1662 26.2779C94.6638 25.5263 95.3836 25.1346 95.7859 25.3887C96.1881 25.6533 96.114 26.4684 95.6165 27.22C95.119 27.9716 94.3991 28.3633 93.9968 28.1093C93.5946 27.8446 93.6687 27.0295 94.1662 26.2779ZM91.1598 29.6548C91.8056 28.882 92.663 28.5327 93.0759 28.882C93.4887 29.2314 93.2982 30.1312 92.6418 30.904C91.9855 31.6767 91.1386 32.0261 90.7258 31.6767C90.3129 31.3274 90.5035 30.4276 91.1598 29.6548ZM87.6029 33.1694C88.291 32.3754 89.1908 32.0367 89.6143 32.3966C90.0377 32.7671 89.8154 33.6986 89.1273 34.4926C88.4392 35.2865 87.5394 35.6253 87.116 35.2654C86.6925 34.8949 86.9148 33.9633 87.6029 33.1694ZM84.1307 37.8695C84.7341 36.8215 85.6763 36.2287 86.2373 36.5569C86.7984 36.885 86.756 37.986 86.1526 39.0446C85.5492 40.1032 84.6071 40.6854 84.046 40.3572C83.485 40.0291 83.5273 38.9281 84.1307 37.8695ZM84.2048 45.5761C83.6438 46.984 82.4793 47.8521 81.6218 47.5028C80.7644 47.1534 80.5103 45.7349 81.0714 44.327C81.6324 42.919 82.7863 42.051 83.6543 42.4003C84.5224 42.7497 84.7659 44.1682 84.2048 45.5761ZM91.5303 49.8105C91.3292 52.457 89.6778 54.6589 87.8464 54.733C86.015 54.8071 84.6918 52.7322 84.8929 50.0857C85.094 47.4392 86.7455 45.2374 88.5768 45.1633C90.4082 45.0892 91.7314 47.164 91.5303 49.8105ZM92.7689 40.5584C92.3454 42.0616 91.1175 43.1943 90.0165 43.099C88.9156 42.9931 88.3651 41.6911 88.778 40.1984C89.2014 38.6952 90.4294 37.5625 91.5303 37.6578C92.6313 37.7637 93.1817 39.0657 92.7689 40.5584ZM95.4048 34.4926C94.8226 35.6147 93.764 36.3769 93.0335 36.1969C92.3031 36.017 92.1972 34.9584 92.7795 33.8257C93.3617 32.7036 94.4203 31.9414 95.1507 32.1213C95.8706 32.3013 95.987 33.3599 95.4048 34.4926ZM96.6222 30.904C95.9235 30.7346 95.7859 29.7289 96.3258 28.6386C96.8656 27.5482 97.8713 26.8072 98.57 26.966C99.2687 27.1353 99.4063 28.141 98.8664 29.2314C98.3265 30.3217 97.3208 31.0627 96.6222 30.904ZM111.231 34.4714C111.718 33.9845 112.364 33.8469 112.681 34.1644C112.999 34.482 112.861 35.1278 112.374 35.6147C111.887 36.1017 111.241 36.2393 110.924 35.9217C110.606 35.6041 110.744 34.9584 111.231 34.4714ZM108.955 37.4778C109.336 36.885 109.982 36.6098 110.405 36.885C110.829 37.1497 110.871 37.8589 110.49 38.4518C110.109 39.0446 109.463 39.3198 109.04 39.0446C108.616 38.7693 108.574 38.0707 108.955 37.4778ZM103.048 50.7315C102.01 51.5678 100.719 51.6948 100.158 50.9961C99.5968 50.2975 99.9885 49.0589 101.026 48.2226C102.063 47.3863 103.355 47.2593 103.916 47.958C104.477 48.6566 104.085 49.8952 103.048 50.7315ZM106.531 45.8514C105.98 46.6241 105.091 46.9417 104.562 46.5606C104.022 46.1795 104.043 45.2374 104.593 44.4646C105.144 43.6918 106.033 43.3742 106.562 43.7553C107.102 44.1364 107.081 45.0786 106.531 45.8514ZM107.198 42.792C106.689 42.5485 106.552 41.7652 106.891 41.0559C107.229 40.3361 107.928 39.955 108.436 40.209C108.944 40.4525 109.082 41.2359 108.743 41.9451C108.404 42.6544 107.706 43.0461 107.198 42.792Z" fill="#507096"/>
<path d="M40.4493 34.1729C40.0364 34.0158 39.5283 33.9321 39.0095 33.8588C38.7131 33.8169 38.4378 33.775 38.1944 33.7122C37.1675 33.5028 34.722 32.8537 33.748 31.367C32.7741 29.8804 31.6096 32.1418 29.9792 31.2205C28.6136 30.4457 28.1901 28.4879 27.3961 28.7706C26.4222 29.0847 25.3318 30.8854 24.6754 31.4089C24.0084 31.9429 23.278 32.6443 22.2087 32.6967H22.1558C21.6582 32.7909 21.5735 33.0003 21.5947 33.1678C21.6265 33.3877 21.8064 33.5971 22.9392 33.6389C23.1298 33.6389 23.4156 33.6389 23.6803 33.618C24.4848 33.5342 25.3953 33.4295 26.1893 33.4086C27.3644 33.3877 28.4971 33.9844 29.5664 33.9635C31.4508 33.9321 32.4459 33.5971 34.6585 34.2043C35.9924 34.5707 37.3792 34.7278 38.8401 34.9267C39.1048 34.9686 39.4118 35 39.6765 35C39.7717 35 39.867 35 39.9517 35C40.1317 35 40.6187 34.979 40.7351 34.6859C40.7986 34.5288 40.7351 34.3718 40.5657 34.2566L40.4387 34.1938L40.4493 34.1729Z" fill="#507096"/>
<path d="M53.9471 28.3623C53.1319 27.2944 51.1099 26.8756 49.7654 27.1374C49.2678 27.2107 45.4461 28.4147 45.9119 27.284C46.5471 26.7081 47.754 26.2056 47.5316 25.1796C47.1929 23.6615 44.1016 24.9283 44.7792 22.5727C45.7108 20.7614 46.0284 18.3325 47.6269 16.9296C48.5374 16.1967 50.0618 16.3747 50.6335 17.4321C51.3322 18.7408 49.6807 19.4004 49.0349 20.2694C48.7385 20.7719 48.7067 21.4315 49.0138 21.2744C49.8819 20.5625 51.5545 20.1647 52.0733 19.0654C53.2166 16.8458 51.5757 13.6631 48.9926 13.4013C44.4616 12.9093 42.2596 18.4163 40.047 21.4105C39.687 21.9968 39.7188 21.9549 39.4647 22.4261C39.2953 22.7088 39.073 23.2427 38.7554 23.0857C38.5225 22.8763 38.8189 22.0701 39.073 21.4943C40.2905 18.6675 42.7148 16.5317 43.6676 13.5688C45.0967 9.46479 43.9111 4.17767 39.7717 2.08376C36.3417 0.0107931 30.5403 0.837886 28.5818 5.20369C26.1787 10.9096 33.4833 15.3801 36.9134 10.2395C37.2204 9.68465 37.4956 8.78427 37.0087 8.31314C36.7016 8.10375 36.257 8.74239 35.8759 9.10883C35.5265 9.42291 35.029 9.6323 34.3832 9.69512C32.3188 10.072 30.752 7.52792 32.5941 6.38674C33.1128 6.14594 33.4516 5.60153 33.9915 5.40261C34.5102 5.2665 35.2725 5.44448 35.8336 5.51777C36.5958 5.71669 37.4745 6.15642 38.0144 6.67989C38.2049 6.93116 38.279 7.28712 38.4272 7.62215C38.6813 8.16656 39.0307 8.62723 38.8084 9.24493C38.4378 10.072 38.6496 11.1085 38.025 11.7576C36.9028 12.6475 36.4158 13.8829 35.0819 14.5635C34.415 15.0555 33.9597 15.9454 33.4939 16.6155C32.9434 17.296 31.8848 17.5892 31.4613 18.7094C31.1649 19.2538 31.1967 20.2798 30.5826 20.552C30.4344 20.5939 30.2756 20.5311 30.1274 20.374C29.524 19.6726 28.7512 18.8664 27.9572 18.2592C26.6445 17.3379 23.2568 16.2909 24.7918 14.1551C25.2682 13.5689 26.1469 13.4956 26.6762 13.9876C26.9726 14.2389 27.2056 14.4902 27.3326 14.3959C27.5443 14.3017 27.3749 13.6107 27.2373 13.3595C25.6599 10.6793 21.4888 13.1919 22.1452 15.9036C22.3463 17.3693 23.2991 18.5838 24.4213 19.4527C26.4539 21.086 26.6974 23.2532 24.1672 24.1536C23.839 24.3525 23.5744 24.6456 23.4473 24.9911C23.098 25.7135 23.6591 26.8233 23.3838 27.2525C23.1192 27.6085 22.4628 27.3782 22.0499 27.2944C20.716 26.8023 19.8162 28.1215 19.5409 29.2208C19.3927 29.9746 18.3235 30.9692 18.0482 31.5032C17.72 32.5711 19.1492 32.3512 19.8479 32.236C21.0019 31.9952 22.3993 31.388 23.405 30.6237C26.6127 28.2053 26.5915 24.2164 28.8782 22.8344C29.7675 22.5203 28.2642 24.9283 28.4759 26.4987C28.5183 27.441 29.0582 28.2262 29.8098 28.7183C31.1014 29.4826 32.6576 29.4302 33.9068 29.9956C35.2831 30.6028 36.0453 31.7126 37.3792 32.3198C38.6813 32.8852 40.1529 32.7281 41.4868 33.1992C44.1546 34.0263 47.0341 33.8274 49.5113 32.4559C51.6392 31.3671 46.9811 32.2989 46.4518 31.922C44.6839 31.4927 43.7946 29.671 43.1171 30.027C42.7042 30.2468 42.2913 30.5923 41.8043 30.6866C40.7986 30.8959 39.6235 30.027 39.073 29.4093C38.4061 28.6241 37.8768 27.0536 38.2473 25.9438C38.3531 25.5984 38.5331 25.19 38.8189 25.6612C40.0046 27.8284 41.4126 28.0796 43.1488 26.2998C43.7099 25.7763 45.0438 24.8131 45.6684 25.3052C45.9754 25.5983 45.7531 26.237 45.1603 26.6244C44.4086 27.1688 43.1171 27.5771 42.1537 27.9645C41.2962 28.2471 40.0999 28.9695 41.4868 29.2627C42.0372 29.2941 42.3548 28.7497 42.7889 28.5298C43.7734 28.0063 44.0275 29.3464 44.7262 29.8071C46.9917 31.5136 50.1783 31.2728 52.3697 29.9223C52.9413 29.5244 53.9365 29.158 54 28.467L53.9682 28.3518L53.9471 28.3623ZM47.6693 15.422C48.1668 15.2544 48.6221 15.5581 48.6856 15.757C48.7491 15.9454 48.4209 15.8512 47.9233 16.0187C47.4258 16.1862 46.9388 16.5527 46.8753 16.3642C46.8118 16.1758 47.1717 15.5999 47.6693 15.4324V15.422ZM45.0332 17.5473C45.3402 17.118 45.7743 16.9086 45.9966 17.0657C46.2189 17.2227 46.166 17.7043 45.859 18.1231C45.552 18.5524 45.1179 18.7617 44.8956 18.6047C44.6627 18.4477 44.7262 17.9661 45.0332 17.5473ZM31.1755 7.76872C31.0696 7.74778 30.9955 7.41276 31.0696 7.03585C31.1543 6.66942 31.5566 6.3344 31.6625 6.35534C31.7683 6.37628 31.4931 6.73224 31.419 7.10914C31.3343 7.47558 31.2814 7.80013 31.1755 7.76872ZM32.0753 9.60089C31.9907 9.66371 31.6836 9.50667 31.4402 9.21352C31.2073 8.9099 31.2073 8.3969 31.2919 8.32361C31.3766 8.26079 31.5143 8.67957 31.7472 8.97272C31.9801 9.27634 32.1495 9.53807 32.0648 9.60089H32.0753ZM33.0175 5.70622C32.7105 5.92608 32.3824 5.99937 32.2871 5.87374C32.1918 5.7481 32.3718 5.46542 32.6788 5.24556C32.9858 5.0257 33.314 4.95242 33.4092 5.07805C33.5045 5.20369 33.3246 5.48636 33.0175 5.70622ZM24.4001 16.5841C24.2943 16.5945 24.1143 16.3852 23.9978 16.1129C23.892 15.8407 23.892 15.5999 23.9978 15.5895C24.1037 15.579 24.2837 15.7884 24.4001 16.0606C24.5166 16.3328 24.5166 16.5736 24.4001 16.5841ZM25.5964 17.8718C25.4164 17.9661 25.1094 17.8509 24.9189 17.631C24.7177 17.4007 24.7071 17.1494 24.8871 17.0552C25.0671 16.961 25.3741 17.0761 25.5646 17.296C25.7658 17.5263 25.7764 17.7776 25.5964 17.8718ZM26.8456 19.4423C26.5386 19.4946 26.1892 19.2643 26.0516 18.9188C25.914 18.5733 26.0516 18.2487 26.3586 18.1964C26.6656 18.144 27.015 18.3744 27.1526 18.7199C27.2902 19.0654 27.1526 19.3899 26.8456 19.4423ZM27.9466 21.8712C27.5126 21.7665 27.1844 21.2326 27.2161 20.6881C27.2479 20.1437 27.629 19.7878 28.0631 19.8925C28.4971 19.9971 28.8253 20.5311 28.7935 21.0755C28.7618 21.6199 28.3807 21.9759 27.9466 21.8712ZM40.3222 10.0511C40.2799 10.5955 39.9411 11.0771 39.56 11.1399C39.1789 11.2027 38.9142 10.8154 38.9566 10.2709C38.9989 9.72653 39.3377 9.24493 39.7188 9.18211C40.0999 9.1193 40.3646 9.50666 40.3222 10.0511ZM35.3572 5.16181C34.976 5.1304 34.669 4.96289 34.6902 4.77443C34.7008 4.59645 35.029 4.47082 35.4101 4.5127C35.7912 4.5441 36.0982 4.71162 36.077 4.90007C36.0665 5.07805 35.7383 5.20368 35.3572 5.16181ZM38.4061 5.92609C38.1943 6.10407 37.718 6.00984 37.3474 5.73763C36.9769 5.45496 36.8393 5.08852 37.051 4.92101C37.2627 4.74302 37.7391 4.83725 38.1202 5.10946C38.4908 5.39214 38.6284 5.75857 38.4167 5.92609H38.4061ZM38.7131 7.52792C38.5437 7.13008 38.6284 6.73224 38.9142 6.63802C39.2001 6.54379 39.56 6.79506 39.7294 7.1929C39.8988 7.59074 39.8141 7.98858 39.5282 8.08281C39.2424 8.17703 38.8825 7.92577 38.7131 7.52792ZM34.4679 24.164C34.3409 25.8077 33.3034 27.1688 32.1494 27.2211C30.9955 27.263 30.1592 25.9753 30.2862 24.3315C30.4133 22.6878 31.4507 21.3163 32.6047 21.2744C33.7586 21.2326 34.5843 22.5203 34.4573 24.164H34.4679ZM35.4101 19.1805C35.1666 19.9553 34.4467 20.5311 33.8009 20.4788C33.1552 20.4264 32.8376 19.7563 33.0811 18.9921C33.3246 18.2173 34.0444 17.6415 34.6902 17.6938C35.336 17.7462 35.6536 18.4162 35.4101 19.1805ZM36.9557 16.0711C36.617 16.6469 35.9923 17.0343 35.5689 16.94C35.1454 16.8458 35.0819 16.3014 35.4207 15.7256C35.7594 15.1498 36.3841 14.7624 36.8075 14.8566C37.231 14.9508 37.2945 15.4952 36.9557 16.0711ZM37.665 14.2284C37.2521 14.1447 37.178 13.6212 37.4956 13.0663C37.8132 12.5114 38.3955 12.1241 38.8084 12.2078C39.2212 12.2916 39.2953 12.815 38.9777 13.3699C38.6602 13.9248 38.0779 14.3122 37.665 14.2284ZM42.9265 24.3315C42.7465 25.2843 41.9737 26.08 41.1903 26.1009C40.4175 26.1323 39.9411 25.3785 40.1211 24.4258C40.3011 23.473 41.0739 22.6773 41.8573 22.6564C42.6301 22.625 43.1065 23.3788 42.9265 24.3315ZM44.3451 20.9813C44.0169 21.6513 43.4241 22.0282 43.0218 21.8398C42.6089 21.6409 42.5454 20.9499 42.863 20.2798C43.1912 19.6098 43.784 19.2329 44.1863 19.4213C44.5992 19.6202 44.6627 20.3112 44.3451 20.9813Z" fill="#507096"/>
<path d="M12.2844 12.2055C12.2103 12.3537 12.1574 12.5547 12.2632 12.6711L12.3479 12.7134H12.369C12.5172 12.7028 12.6441 12.6182 12.7711 12.5441C12.8452 12.5018 12.9087 12.4595 12.9827 12.4277C13.0991 12.3642 13.2261 12.3219 13.3531 12.269C13.7023 12.1315 14.0726 11.9833 14.2313 11.6024C14.2948 11.4543 14.2736 11.3167 14.189 11.1897C14.0938 11.0416 13.9033 10.9675 13.7234 10.9675C13.0674 10.9993 12.5806 11.6553 12.2844 12.2055Z" fill="#507096"/>
<path d="M2.31706 11.433C2.45462 11.5811 2.65566 11.7292 2.85671 11.8774C3.04717 12.0255 3.23763 12.1736 3.38576 12.3218C3.44925 12.3747 3.51274 12.4488 3.56564 12.5228C3.65029 12.6286 3.73494 12.7345 3.85134 12.7979C3.89366 12.8191 3.94657 12.8403 3.99947 12.8403H4.03122C4.36981 12.7768 4.27458 12.2689 4.22168 12.0149C4.0947 11.4965 3.77727 10.8298 3.27995 10.4912C3.026 10.3219 2.74031 10.2585 2.44404 10.3008C2.243 10.3537 2.10544 10.4912 2.06312 10.6817C2.01021 10.9039 2.08428 11.179 2.26416 11.3695L2.32765 11.433H2.31706Z" fill="#507096"/>
<path d="M14.3582 13.8985L14.4217 13.9196H14.4535C14.5381 13.9302 14.6545 13.9408 14.7709 13.9408C15.0883 13.9408 15.4798 13.8879 15.7232 13.6869C15.9348 13.4646 15.8502 13.2953 15.7973 13.2319C15.6597 13.0414 15.2788 12.9779 14.9931 13.0943C14.591 13.2213 14.3265 13.4329 14.2418 13.6974C14.2313 13.7821 14.2736 13.8667 14.3582 13.9091V13.8985Z" fill="#507096"/>
<path d="M17.0884 15.4538C16.6651 15.3057 16.4006 15.348 15.8504 15.5279C15.1943 15.7395 14.6229 15.7818 14.7393 15.4115C14.8028 15.3163 14.8875 15.2634 15.0779 15.1787C15.4165 15.0306 15.808 14.8613 15.8504 14.565C16.0091 14.1312 13.9669 14.9883 13.1416 14.5438C12.6125 14.2582 15.1626 12.343 12.9723 13.3905C10.7608 14.438 10.9407 13.1683 11.0677 12.6816C11.2052 12.2795 11.3957 11.8245 11.6073 11.4647C12.0729 10.6288 12.6972 9.88812 13.1733 9.06279C14.0516 7.60259 14.2949 5.71913 13.7447 4.11079C13.3849 3.04209 12.6654 2.13212 11.639 1.60306C9.98838 0.745981 7.8404 0.619002 6.18974 2.44955C5.13162 3.62406 5.1422 5.59217 6.35904 6.67145C7.4489 7.63433 8.93027 7.24283 9.51223 6.76667C10.0836 6.3011 10.3587 5.78262 10.3376 5.29589C10.3376 5.12659 10.3058 4.85148 10.1365 4.80916C9.99897 4.77741 9.81908 5.22182 9.72385 5.30647C9.49107 5.56042 9.31119 5.69798 8.79271 5.77205C7.7875 5.86728 7.38541 5.27473 7.35367 4.59754C7.35367 3.84627 8.04145 3.89917 8.31656 3.6029C8.46469 3.40186 8.59167 3.19023 9.04666 3.35953C9.37468 3.51825 9.52281 3.45476 9.7556 3.47592C9.89315 3.50767 9.98838 3.6558 10.1048 3.74045C10.2847 3.86743 10.5069 3.85685 10.6127 3.99441C10.7079 4.12138 10.6973 4.30126 10.782 4.43882C10.8666 4.60811 11.0465 4.71392 11.0888 4.8409C11.1417 5.0102 11.0465 5.17949 11.0571 5.35937C11.0571 5.571 11.1735 5.77205 11.1312 5.92018C11.0782 6.11064 10.8878 6.21646 10.8243 6.40692C10.7396 6.57622 10.782 6.77726 10.6867 6.93598C10.6127 7.06295 10.3905 7.11585 10.2529 7.26399C10.1259 7.38038 10.0519 7.54968 9.99896 7.7084C9.91432 8.02583 9.48049 8.00467 9.27944 8.27978C9.11015 8.45966 9.09956 8.72419 8.94085 8.84059C8.82445 8.93582 8.62341 8.96756 8.46469 9.08396C8.36946 9.14744 8.28481 9.23209 8.21074 9.3379C8.07319 9.51778 8.07319 9.77173 7.94622 9.95161C7.85098 10.068 7.70285 10.1209 7.58645 10.195C7.29018 10.3537 7.07856 10.724 7.06798 11.0521C7.06798 11.3695 6.99391 11.634 6.7188 11.8139C6.6024 11.8986 6.43311 12.0784 6.3802 12.2371C6.35904 12.3006 6.34846 12.3535 6.33787 12.417C6.29555 12.3324 6.24264 12.2477 6.17916 12.1737C5.97811 11.888 5.55487 11.7081 5.23743 11.7822C5.00464 11.8351 4.85651 12.0044 4.82476 12.2583C4.8036 12.417 4.82476 12.5969 4.82476 12.7768C4.83535 12.9249 4.85651 13.0625 4.84593 13.1789C4.82476 13.3905 4.66605 13.4117 4.25338 13.4117C3.92536 13.4117 3.50212 13.4117 3.20584 13.6762C2.87783 13.9196 2.77201 14.3534 2.92015 14.8507C2.92015 14.9036 2.94131 14.9671 2.96248 15.0306C3.0048 15.1999 3.04713 15.3586 2.97306 15.4644C2.93073 15.5173 2.79318 15.5385 2.52865 15.4644L2.47574 15.4433C2.08424 15.3057 1.69273 15.1681 1.2589 15.2845C1.05786 15.3374 0.85682 15.4009 0.666358 15.475C0.433572 15.5596 0.348923 15.602 0.221948 15.6866C0.0843929 15.7713 -0.349436 16.2897 0.613452 16.2263C2.41225 16.0358 2.81434 16.6389 4.93058 17.0516C7.04681 17.4537 9.51223 17.9298 11.893 17.0833C14.2738 16.2368 16.4747 17.168 17.5751 16.6812C18.5486 16.258 17.6386 15.6337 17.0989 15.5067L17.0884 15.4538ZM8.09435 3.47592C7.90389 3.6558 7.69227 3.76161 7.62878 3.69813C7.56529 3.63464 7.6711 3.4336 7.86157 3.24314C8.05203 3.06326 8.26365 2.95745 8.32714 3.02093C8.39062 3.08442 8.28481 3.28546 8.09435 3.47592ZM9.33235 3.10558C9.09956 3.14791 8.88794 3.06326 8.86678 2.92571C8.84562 2.78815 9.01491 2.64002 9.2477 2.59769C9.48049 2.55537 9.69211 2.64001 9.72385 2.77757C9.7556 2.91513 9.57572 3.06326 9.34293 3.10558H9.33235ZM10.9407 3.30663C10.8666 3.44418 10.6127 3.44418 10.3905 3.30663C10.1683 3.17965 10.0413 2.95745 10.1154 2.83047C10.1894 2.69292 10.4434 2.69292 10.6656 2.83047C10.8878 2.96803 11.0148 3.17965 10.9407 3.30663ZM12.3162 6.10006C12.221 6.50215 11.9459 6.77725 11.692 6.72435C11.438 6.67144 11.311 6.29052 11.4063 5.89902C11.5015 5.49693 11.7766 5.22182 12.0306 5.27473C12.2845 5.32764 12.4115 5.70856 12.3162 6.10006ZM11.4909 3.58173C11.7131 3.51825 11.9565 3.70871 12.0517 4.01557C12.1364 4.32242 12.0306 4.61869 11.8083 4.68218C11.5861 4.74567 11.3428 4.55521 11.2475 4.24835C11.1523 3.9415 11.2687 3.64522 11.4909 3.58173ZM9.52281 14.2264C9.30061 15.274 8.48586 15.9935 7.70285 15.8242C6.91984 15.6549 6.46485 14.6708 6.69763 13.6127C6.91984 12.5652 7.73459 11.8456 8.5176 12.0149C9.30061 12.1842 9.7556 13.1683 9.52281 14.2264ZM9.93548 10.6606C9.66037 11.1367 9.14189 11.3483 8.78213 11.1367C8.42237 10.9251 8.3483 10.3749 8.61283 9.8987C8.88794 9.42255 9.40642 9.21093 9.76618 9.42255C10.1259 9.63418 10.2 10.1844 9.93548 10.6606ZM10.2847 8.9464C10.0201 8.7771 10.0307 8.29037 10.3058 7.86712C10.5809 7.44387 11.0148 7.24283 11.2793 7.42271C11.5438 7.60259 11.5332 8.07874 11.2581 8.50199C10.983 8.92524 10.5492 9.12628 10.2847 8.9464Z" fill="#507096"/>
</g>
<defs>
<clipPath id="clip0_30_2">
<rect width="254" height="128" fill="white"/>
</clipPath>
</defs>
</svg>
