<svg width="254" height="128" viewBox="0 0 254 128" fill="none" xmlns="http://www.w3.org/2000/svg">
<g clip-path="url(#clip0_41_28)">
<path d="M210.427 120.21L210.003 119.979C208.603 119.414 206.83 119.144 205.058 118.874C204.056 118.72 203.092 118.579 202.27 118.373C198.75 117.641 190.362 115.406 187.022 110.242C183.682 105.077 179.687 112.939 174.086 109.728C169.41 107.043 172.775 102.611 170.078 103.626C166.738 104.731 160.173 111.398 157.501 112.528C154.791 113.671 151.117 114.686 147.443 114.84L147.276 114.866C145.554 115.187 145.272 115.907 145.349 116.459C145.451 117.23 146.081 117.962 149.96 118.091C150.628 118.116 151.605 118.116 152.504 118.013C155.266 117.718 158.015 117.166 160.713 116.626C164.31 115.894 168.022 115.149 171.709 115.072C178.171 114.956 184.08 116.857 190.297 118.874C194.819 120.339 199.508 121.854 204.48 122.548C205.405 122.689 206.445 122.792 207.331 122.818C207.678 122.818 207.999 122.818 208.282 122.818C208.911 122.805 210.556 122.754 210.993 121.726C211.211 121.199 210.993 120.621 210.402 120.223L210.427 120.21Z" fill="#507096"/>
<path d="M256.43 99.9646C256.301 99.682 255.685 99.1039 255.685 99.1039L255.222 98.7185C252.704 96.7916 250.353 96.0594 246.911 95.3657C244.007 94.7748 240.886 95.5327 237.366 96.676C233.191 98.0248 228.348 98.4102 227.603 96.9843C227.333 96.4833 227.924 95.8282 229.131 95.3015C231.302 94.3508 231.778 93.9912 234.219 92.4111C237.533 90.2529 231.046 85.9238 227.282 87.1827C224.044 88.2746 224.404 84.5107 224.622 82.9435C224.622 82.8664 224.648 82.7893 224.661 82.7122C224.725 82.0956 224.674 81.4019 224.969 80.8367C225.406 79.9888 226.434 79.5264 226.909 78.6528C227.179 78.2032 227.359 77.7151 227.449 77.2012C227.616 76.3919 227.359 75.5184 227.539 74.8761C227.731 74.0668 228.759 73.5401 229.144 72.5381C229.877 71.2406 228.99 69.5834 230.095 68.6457C230.647 68.1447 231.187 67.5666 231.431 66.8344C231.765 65.9994 231.585 65.0231 231.958 64.4835C232.42 63.8155 233.319 63.61 233.846 62.9805C234.476 62.3896 234.604 61.439 235.233 60.8737C235.747 60.4113 236.775 60.5398 237.61 60.1287C238.316 59.8461 238.83 59.1267 239.601 59.0496C240.179 58.9982 240.924 59.5377 241.759 59.5506C242.453 59.6277 243.16 59.2937 243.84 59.4221C244.585 59.602 244.919 60.5398 245.767 61.0022C246.268 61.3234 247.065 61.4261 247.424 61.9143C247.9 62.8135 247.309 63.5072 248.542 64.4964C250.045 66.0122 248.593 66.8344 248.054 67.785C247.36 69.4421 247.681 70.4827 245.472 71.7159C242.71 72.8207 241.618 73.4758 240.796 75.5312C240.102 77.2526 239.229 80.5412 240.308 80.6183C241.168 80.6825 243.108 76.2891 246.705 75.9808C251.548 75.5698 254.374 69.789 254.811 67.9391C256.365 61.3491 255.094 57.0456 250.88 51.7787C247.746 47.8477 241.913 45.8823 237.019 46.3961C229.62 47.1412 223.081 52.2797 218.842 58.4458C216.439 61.8372 213.703 65.8838 211.738 68.8512C209.027 72.9363 207.871 76.2506 206.535 76.7131C205.43 77.0985 205.777 74.9146 207.383 71.7801C210.325 66.4618 214.307 61.7087 217.364 56.4675C222.978 47.1412 224.494 35.1044 221 24.8403C218.713 18.0447 214.089 12.1997 207.576 8.83396C197.042 3.38719 183.348 2.56503 172.814 14.255C166.07 21.7572 166.134 34.3079 173.893 41.1806C180.843 47.3467 190.31 44.8032 193.984 41.7715C197.607 38.7912 199.393 35.5283 199.238 32.4067C199.2 31.3533 199.033 29.542 197.928 29.3107C197.08 29.118 195.886 31.9314 195.269 32.458C193.805 34.1152 192.648 34.963 189.347 35.4384C182.95 36.055 180.38 32.2525 180.175 27.9105C180.226 23.0932 184.542 23.4529 186.328 21.5388C187.266 20.2542 188.075 18.8797 190.978 19.9587C193.047 20.9864 194.023 20.5753 195.5 20.6653C196.361 20.858 196.99 21.8471 197.71 22.3224C198.84 23.1574 200.292 23.0418 200.973 23.9282C201.551 24.7504 201.525 25.8808 202.052 26.7543C202.591 27.8591 203.747 28.5271 204.03 29.3236C204.403 30.3898 203.747 31.5074 203.799 32.6122C203.76 33.961 204.544 35.2585 204.248 36.2091C203.876 37.391 202.681 38.136 202.296 39.3307C201.782 40.4098 202.052 41.7201 201.448 42.735C200.96 43.5571 199.56 43.904 198.66 44.8546C197.825 45.6125 197.389 46.6659 197.067 47.7193C196.502 49.7618 193.766 49.582 192.481 51.3419C191.389 52.4724 191.3 54.1424 190.349 54.8874C189.604 55.5297 188.294 55.7096 187.317 56.4161C186.701 56.8401 186.148 57.3924 185.724 58.0091C184.851 59.1652 184.851 60.8095 184.003 61.9014C183.425 62.6208 182.474 62.9805 181.691 63.443C179.815 64.4578 178.441 66.8087 178.376 68.8898C178.402 69.7504 178.299 70.5469 178.055 71.2791C176.925 73.7071 175.602 74.1438 175.178 73.3217C174.702 72.4096 174.946 71.7416 174.471 70.8681C174.137 70.123 172.968 68.4273 171.157 67.3739C169.345 66.3205 169.718 66.3719 169.474 65.4598C169.166 64.5221 168.215 63.6357 167.226 63.443C166.802 63.3402 166.327 63.3017 165.967 63.0576C165.427 62.6722 165.209 61.9271 164.657 61.5289C164.374 61.3105 164.053 61.1307 163.719 61.0279C163.179 60.8352 162.563 60.938 162.139 60.7453C161.599 60.5398 161.329 59.7818 160.687 59.4221C159.865 58.8055 158.645 59.2551 158.118 58.4073C157.822 57.9834 157.488 57.5594 157 57.3282C156.461 57.0199 155.78 57.0584 155.446 56.7501C155.035 56.3647 154.971 55.7353 154.598 55.3242C154.251 54.8361 153.609 54.6691 153.288 54.1809C153.018 53.7827 153.198 53.089 153.005 52.4852C152.877 51.9714 152.427 51.5603 152.453 51.0207C152.478 50.6225 152.902 50.1601 153.005 49.582C153.121 49.1195 152.954 48.6057 153.108 48.1561C153.301 47.6551 153.969 47.5137 154.367 46.9871C154.637 46.6787 154.778 46.1392 155.15 45.9337C155.806 45.6896 156.307 45.741 157.103 44.9959C158.272 44.1095 158.837 44.6234 159.428 45.073C160.494 45.7024 162.267 45.7153 162.897 47.077C163.218 47.9377 163.308 48.246 163.372 49.1195C163.398 49.5049 164.721 51.1364 165.003 48.0147C165.273 45.0473 163.333 42.1954 160.983 40.6924C158.041 38.8169 152.234 38.727 148.188 42.6322C145.696 45.0473 144.257 47.8991 144.141 51.2905C143.961 56.429 146.287 61.6831 150.102 65.1515C152.196 67.1041 156.589 70.4441 158.028 72.9363C161.548 78.9868 157.797 83.483 155.562 84.4978C155.497 84.5235 155.446 84.5492 155.395 84.5878C154.791 84.8318 154.213 85.1401 153.686 85.5898C151.566 87.1441 150.911 89.8932 151.875 93.0277C151.939 93.3874 152.029 93.7728 152.132 94.1582C152.401 95.2244 152.658 96.2392 152.222 96.9201C151.977 97.2541 151.091 97.4082 149.408 96.8687L149.061 96.7531C146.608 95.9052 144.064 95.0188 141.367 95.7639C140.12 96.0722 138.823 96.5218 137.577 96.9586C136.1 97.4725 134.558 98.012 133.068 98.2946L132.451 98.4616C129.908 99.1168 128.572 99.5022 128.52 100.44C128.469 101.185 129.291 101.493 129.612 101.622C132.528 102.444 135.624 101.134 138.361 99.9903C140.352 99.1553 142.176 98.3717 143.807 98.4359C145.721 98.4616 148.072 99.4508 148.843 101.172C149.806 104.936 143.563 107.492 138.99 109.342C137.538 109.933 136.292 110.447 135.457 110.91C134.442 111.423 133.299 112.014 133.685 112.849C134.301 114.147 139.234 112.348 139.26 112.335C144.796 110.177 158.285 105.129 156.486 95.0574C156.371 94.505 156.191 93.9141 155.998 93.3232C155.407 91.4091 155.651 89.9703 156.371 89.0197C156.987 88.2232 157.694 88.0434 158.144 88.0048C158.966 87.9149 159.582 88.1333 160.122 88.9555C161.085 90.4328 162.717 91.2935 164.592 89.7262C165.646 88.8527 171.478 80.0916 171.439 82.4425C171.324 88.8013 162.717 96.8173 161.908 99.0397C161.638 99.7462 159.993 105.424 160.726 105.861C161.394 106.259 162.01 105.514 162.229 105.244C167.187 99.9518 173.765 93.2846 175.923 94.7876C179.404 97.1898 171.889 104.332 177.85 104.011C182.577 103.754 184.003 102.405 186.521 103.921C189 105.758 189.103 108.212 190.516 110.653C191.929 113.093 195.295 112.618 194.652 109.175C193.997 105.733 195.886 102.29 197.286 103.793C198.301 104.885 198.249 105.257 198.982 106.375C201.307 110.37 205.559 114.378 210.941 116.035C214.769 117.114 219.15 118.399 223.762 118.54C229.915 118.72 234.604 117.204 239.768 114.648C241.605 113.736 242.504 113.016 242.132 112.194C241.502 110.794 236.775 112.438 236.441 112.554C236.428 112.554 236.428 112.554 236.428 112.554C224.854 114.879 220.846 102.418 218.508 105.758C216.26 108.97 215.296 111.873 209.978 110.524C205.97 109.522 204.544 106.696 204.12 105.822C202.771 103.022 201.654 99.5407 201.641 96.5732C201.615 86.2963 204.48 87.7222 204.39 90.7025C204.3 93.6828 204.839 98.5515 207.344 98.9241C209.849 99.2966 210.723 94.9418 215.99 92.9121C217.159 92.4625 217.853 91.7174 218.392 90.998C218.418 90.9595 218.469 90.9338 218.495 90.9081C218.559 90.831 218.636 90.7154 218.7 90.5869C219.587 89.3665 220.242 88.4031 222.567 89.4565C225.959 90.9851 230.121 88.6985 230.121 89.9189C230.121 91.1393 228.9 94.171 223.582 94.2352C218.264 94.2995 216.234 94.3123 213.6 97.4853C210.954 100.658 211.892 105.771 212.791 106.568C213.099 106.837 213.511 106.863 213.819 106.619L213.986 106.426C214.538 105.476 214.692 104.345 214.859 103.24C214.988 102.367 215.116 101.48 215.45 100.645C215.938 98.9883 217.596 96.9201 218.932 96.843C219.535 96.8173 220.049 97.2669 220.422 98.1661C221.758 102.315 224.34 105.334 228.091 107.146C237.43 111.667 244.971 107.993 248.773 106.246C250.045 105.655 251.535 104.705 252.768 103.947C253.847 103.086 251.381 102.161 245.754 102.816C243.493 103.073 242.196 105.81 240.603 106.285C235.722 107.749 230.044 105.232 227.808 103.086C227.346 102.637 227.256 102.264 227.346 102.046C227.603 101.416 229.465 101.558 230.467 101.519C231.842 101.455 233.409 101.378 234.591 100.992C235.914 100.671 237.16 100.234 238.368 99.8105C241.091 98.8598 243.66 97.9735 246.589 98.6029C248.182 98.847 249.839 99.4251 251.445 99.9775C252.473 100.337 253.475 100.671 254.451 100.941C255.453 101.185 256.301 101.262 256.468 100.761C256.468 100.761 256.609 100.453 256.417 100.042L256.43 99.9646ZM243.378 74.1181C242.774 74.4393 242.273 75.1073 242.158 74.8889C242.042 74.6705 242.569 73.9126 243.172 73.5786C243.776 73.2574 244.213 73.0134 244.329 73.2318C244.444 73.4501 243.982 73.7841 243.365 74.1053L243.378 74.1181ZM246.756 72.7436C246.011 73.2446 245.253 73.0262 245.112 72.8207C244.971 72.6151 245.562 72.5638 246.307 72.0628C247.052 71.5618 247.591 70.6368 247.746 70.8552C247.9 71.0736 247.501 72.2554 246.756 72.7564V72.7436ZM249.737 69.121C249.39 69.8789 248.863 70.3671 248.555 70.2258C248.247 70.0844 248.259 69.3522 248.606 68.6071C248.953 67.8621 249.48 67.3611 249.788 67.5024C250.096 67.6437 250.084 68.3759 249.737 69.121ZM250.829 64.4064C251.163 64.4321 251.394 65.0102 251.33 65.6911C251.265 66.3719 250.944 66.8986 250.61 66.8729C250.276 66.8472 250.045 66.2691 250.109 65.5883C250.174 64.9074 250.495 64.3808 250.829 64.4064ZM249.955 63.944C249.621 64.1238 249.043 63.7128 248.658 63.0191C248.272 62.3254 248.221 61.606 248.542 61.4261C248.876 61.2463 249.454 61.6574 249.839 62.3511C250.225 63.0448 250.276 63.7641 249.955 63.944ZM247.874 57.5337C248.182 57.2768 248.812 57.7778 249.287 58.6385C249.762 59.4992 249.891 60.4113 249.583 60.6682C249.274 60.9251 248.645 60.4241 248.17 59.5634C247.694 58.7027 247.566 57.7907 247.874 57.5337ZM247.116 60.2571C246.898 60.5654 246.243 60.4755 245.664 60.0644C245.086 59.6405 244.791 59.0496 245.009 58.7413C245.228 58.433 245.883 58.5229 246.461 58.934C247.039 59.3579 247.334 59.9488 247.116 60.2571ZM245.253 54.3864C246.011 54.7975 246.525 55.5297 246.397 56.0307C246.268 56.5189 245.536 56.5831 244.778 56.1721C244.02 55.761 243.506 55.0287 243.635 54.5277C243.763 54.0396 244.496 53.9754 245.253 54.3864ZM185.981 36.0164C187.163 36.1192 188.127 36.2734 188.101 36.5817C188.075 36.89 187.073 37.2111 185.891 37.1212C184.709 37.0184 183.515 36.0036 183.54 35.6953C183.566 35.387 184.812 35.9265 185.981 36.0164ZM180.779 32.4966C181.459 33.6142 181.948 34.5905 181.626 34.7832C181.305 34.9759 180.316 34.3079 179.635 33.1903C178.954 32.0727 179.16 30.2742 179.468 30.0815C179.777 29.8888 180.085 31.379 180.779 32.4966ZM179.905 25.4954C179.481 26.7415 179.16 27.8077 178.813 27.6793C178.466 27.5637 178.338 26.369 178.762 25.1229C179.186 23.8768 180.701 22.8877 181.061 23.0161C181.408 23.1317 180.329 24.2493 179.905 25.4954ZM185.056 21.436C184.08 22.1426 183.052 22.3867 182.757 21.9884C182.461 21.5773 183.014 20.6781 183.99 19.9716C184.966 19.265 185.994 19.021 186.29 19.4192C186.585 19.8303 186.033 20.7295 185.056 21.436ZM188.64 18.3273C187.407 18.5713 186.392 18.3787 186.392 17.8777C186.392 17.3767 187.394 16.7729 188.628 16.5288C189.861 16.2847 190.876 16.4774 190.876 16.9784C190.876 17.4794 189.874 18.0832 188.64 18.3273ZM193.175 19.8431C192.019 19.7403 191.12 19.2265 191.158 18.6741C191.21 18.1217 192.186 17.762 193.342 17.8648C194.498 17.9676 195.397 18.4814 195.359 19.0338C195.308 19.5862 194.331 19.9459 193.175 19.8431ZM195.898 17.094C196.053 16.5288 197.337 16.1563 198.763 16.259C200.189 16.3618 201.23 16.9013 201.075 17.4537C200.921 18.019 199.637 18.3915 198.211 18.2887C196.785 18.186 195.744 17.6464 195.898 17.094ZM201.204 21.9756C200.934 22.4637 199.971 22.4252 199.059 21.9113C198.147 21.3975 197.646 20.5882 197.915 20.1C198.185 19.6119 199.149 19.6504 200.061 20.1643C200.973 20.6781 201.474 21.4874 201.204 21.9756ZM160.302 43.9939C160.841 44.1866 161.214 44.5206 161.137 44.739C161.06 44.9574 160.559 44.9959 160.019 44.8032C159.48 44.6105 159.107 44.2765 159.184 44.0581C159.261 43.8397 159.762 43.8012 160.302 43.9939ZM155.78 44.315C156.294 44.1095 156.782 44.1481 156.885 44.3921C156.975 44.6362 156.641 44.9959 156.127 45.2014C155.613 45.407 155.125 45.3684 155.022 45.1244C154.932 44.8803 155.266 44.5206 155.78 44.315ZM162.229 61.8244C162.486 61.4261 163.295 61.4904 164.04 61.9528C164.785 62.4281 165.196 63.1347 164.939 63.5329C164.682 63.9311 163.873 63.8669 163.128 63.4044C162.383 62.9291 161.972 62.2226 162.229 61.8244ZM153.725 46.9357C153.391 47.2954 152.954 47.4367 152.761 47.2568C152.568 47.077 152.697 46.6402 153.031 46.2805C153.365 45.9208 153.802 45.7795 153.994 45.9594C154.187 46.1392 154.059 46.576 153.725 46.9357ZM153.095 44.315C153.737 44.071 154.367 44.071 154.508 44.315C154.649 44.5463 154.251 44.9317 153.622 45.1757C152.979 45.4198 152.35 45.4198 152.209 45.1757C152.067 44.9445 152.466 44.5591 153.095 44.315ZM151.554 49.3251C151.631 48.8369 151.9 48.4772 152.157 48.5157C152.414 48.5543 152.568 48.9782 152.491 49.4792C152.414 49.9674 152.144 50.3271 151.888 50.2885C151.631 50.25 151.476 49.8261 151.554 49.3251ZM151.721 51.8044C152.016 51.7144 152.376 52.087 152.543 52.6394C152.71 53.1917 152.607 53.7056 152.311 53.7955C152.016 53.8854 151.656 53.5129 151.489 52.9605C151.322 52.4081 151.425 51.8943 151.721 51.8044ZM149.806 46.6787C150.166 46.2034 150.706 45.9208 151.04 46.0493C151.361 46.1906 151.335 46.6916 150.975 47.1669C150.616 47.6422 150.076 47.9248 149.742 47.7964C149.421 47.655 149.447 47.1541 149.806 46.6787ZM149.293 48.8369C149.729 48.8497 150.025 49.3764 149.948 50.0059C149.884 50.6354 149.472 51.1364 149.049 51.1235C148.612 51.1107 148.316 50.584 148.393 49.9545C148.458 49.3251 148.869 48.8241 149.293 48.8369ZM149.871 55.0031C149.37 55.093 148.792 54.5663 148.573 53.8469C148.368 53.1147 148.599 52.4595 149.1 52.3696C149.601 52.2797 150.179 52.8064 150.397 53.5257C150.603 54.258 150.372 54.9131 149.871 55.0031ZM152.504 58.7798C151.99 58.9982 151.181 58.5743 150.693 57.8421C150.205 57.1098 150.218 56.3391 150.719 56.1335C151.232 55.9151 152.042 56.3391 152.53 57.0713C153.018 57.8035 153.005 58.5743 152.504 58.7798ZM152.979 55.0287C153.262 54.8104 153.827 55.0673 154.238 55.6197C154.649 56.1721 154.752 56.7758 154.457 56.9942C154.161 57.2126 153.609 56.9557 153.198 56.4033C152.787 55.8637 152.684 55.2471 152.979 55.0287ZM156.217 62.3254C155.69 62.6337 154.701 62.274 154.007 61.5289C153.313 60.7838 153.172 59.936 153.699 59.6277C154.226 59.3194 155.215 59.6791 155.908 60.4241C156.602 61.1692 156.743 62.0171 156.217 62.3254ZM156.14 59.1138C155.562 58.6257 155.305 57.9834 155.562 57.6751C155.818 57.3668 156.499 57.5081 157.077 57.9962C157.655 58.4844 157.912 59.1267 157.655 59.435C157.399 59.7433 156.718 59.602 156.14 59.1138ZM160.392 65.7168C159.852 66.0379 158.812 65.6782 158.067 64.9203C157.321 64.1495 157.154 63.276 157.694 62.9548C158.234 62.6337 159.274 62.9934 160.019 63.7513C160.764 64.5221 160.931 65.3956 160.392 65.7168ZM161.162 61.5161C160.918 61.8886 160.135 61.8244 159.428 61.3491C158.722 60.8866 158.349 60.1929 158.593 59.8204C158.837 59.4478 159.621 59.5121 160.327 59.9874C161.034 60.4627 161.407 61.1435 161.162 61.5161ZM161.496 69.1081C160.983 67.9006 161.304 66.7573 162.216 66.5518C163.128 66.3462 164.271 67.1555 164.785 68.3759C165.299 69.5963 164.978 70.7268 164.066 70.9323C163.154 71.1378 162.01 70.3285 161.496 69.1081ZM166.301 79.6291C164.926 79.5135 163.667 77.8307 163.488 75.8909C163.308 73.9511 164.271 72.4738 165.659 72.5895C167.046 72.7051 168.292 74.3879 168.472 76.3277C168.652 78.2675 167.688 79.7448 166.301 79.6291ZM168.652 66.8858C168.279 67.284 167.38 67.0399 166.635 66.3334C165.89 65.6397 165.594 64.7533 165.967 64.3551C166.339 63.9568 167.239 64.2009 167.984 64.9074C168.729 65.6011 169.024 66.4875 168.652 66.8858ZM171.722 73.8484C170.848 73.9897 169.731 72.9748 169.23 71.5746C168.729 70.1744 169.037 68.9154 169.911 68.7741C170.784 68.6328 171.902 69.6477 172.403 71.0479C172.904 72.4481 172.596 73.7071 171.709 73.8484H171.722ZM211.841 42.1184C211.288 43.904 209.901 45.24 208.745 45.1244C207.588 45.0087 207.087 43.4672 207.64 41.6816C208.192 39.896 209.58 38.56 210.736 38.6756C211.892 38.7912 212.393 40.3327 211.841 42.1184ZM213.678 32.7535C213.69 34.3593 212.843 35.7595 211.776 35.888C210.71 36.0164 209.824 34.8217 209.811 33.216C209.798 31.6102 210.646 30.21 211.712 30.0815C212.778 29.953 213.665 31.1477 213.678 32.7535ZM209.181 23.0803C210.042 22.7849 211.173 23.5557 211.686 24.7889C212.213 26.0221 211.93 27.2682 211.07 27.5508C210.209 27.8463 209.079 27.0755 208.565 25.8423C208.038 24.609 208.321 23.363 209.181 23.0803ZM203.966 18.5071C204.531 18.0318 205.816 18.263 206.831 19.021C207.845 19.7789 208.192 20.7809 207.627 21.2433C207.062 21.7058 205.777 21.4874 204.762 20.7295C203.747 19.9716 203.401 18.9696 203.966 18.5071ZM207.242 32.7407C207.242 33.9482 206.715 34.9245 206.073 34.9245C205.43 34.9245 204.904 33.9482 204.904 32.7407C204.904 31.5331 205.43 30.5568 206.073 30.5568C206.715 30.5568 207.242 31.5331 207.242 32.7407ZM203.105 26.2919C202.656 25.3541 202.694 24.3907 203.195 24.1594C203.696 23.9153 204.467 24.4934 204.916 25.4312C205.366 26.369 205.328 27.3324 204.827 27.5637C204.326 27.7949 203.555 27.2297 203.105 26.2919ZM203.285 39.7804C203.786 38.4315 204.775 37.558 205.482 37.8277C206.188 38.0975 206.368 39.395 205.867 40.7438C205.366 42.0927 204.377 42.9662 203.67 42.6964C202.964 42.4267 202.784 41.1292 203.285 39.7804ZM199.02 46.3062C199.894 44.9702 201.178 44.2637 201.898 44.739C202.617 45.2143 202.476 46.6659 201.589 48.0019C200.703 49.3379 199.431 50.0444 198.712 49.5691C198.005 49.1067 198.134 47.6422 199.007 46.3062H199.02ZM193.676 52.3054C194.832 50.9308 196.348 50.3142 197.08 50.9308C197.813 51.5474 197.466 53.1532 196.322 54.5277C195.166 55.9023 193.65 56.5189 192.918 55.9023C192.186 55.2857 192.533 53.6799 193.676 52.3054ZM187.356 58.5614C188.576 57.1484 190.182 56.5446 190.927 57.1869C191.672 57.8421 191.287 59.5121 190.066 60.9123C188.846 62.3254 187.24 62.9291 186.495 62.2868C185.75 61.6317 186.135 59.9617 187.356 58.5614ZM181.177 66.9114C182.256 65.0488 183.926 63.9954 184.915 64.5734C185.904 65.1515 185.84 67.117 184.761 68.9797C183.682 70.8424 182.012 71.8958 181.023 71.3177C180.033 70.7396 180.098 68.7741 181.177 66.9114ZM181.305 80.6055C180.303 83.1105 178.248 84.652 176.706 84.0354C175.165 83.4188 174.728 80.8881 175.73 78.3831C176.732 75.8781 178.787 74.3365 180.329 74.9531C181.87 75.5698 182.307 78.1005 181.305 80.6055ZM194.331 88.1333C193.972 92.8222 191.043 96.7402 187.78 96.8687C184.517 96.9972 182.166 93.3103 182.526 88.6086C182.885 83.9198 185.814 80.0017 189.077 79.8732C192.34 79.7448 194.691 83.4316 194.331 88.1333ZM196.541 71.6902C195.796 74.3622 193.599 76.3791 191.646 76.1992C189.694 76.0194 188.705 73.7071 189.45 71.0351C190.195 68.3631 192.391 66.3462 194.344 66.5261C196.297 66.7059 197.286 69.0182 196.541 71.6902ZM201.23 60.9123C200.189 62.9034 198.301 64.2651 197.016 63.944C195.731 63.6228 195.526 61.7344 196.566 59.7433C197.607 57.7521 199.495 56.3904 200.78 56.7116C202.065 57.0327 202.27 58.9211 201.23 60.9123ZM203.388 54.5277C202.142 54.2323 201.91 52.4338 202.861 50.5069C203.812 48.58 205.597 47.244 206.843 47.5394C208.089 47.8349 208.321 49.6334 207.37 51.5603C206.419 53.4872 204.634 54.8232 203.388 54.5277ZM233.294 62.5052C232.6 63.1989 231.726 63.4558 231.367 63.0961C230.994 62.7236 231.264 61.8629 231.958 61.1692C232.651 60.4755 233.525 60.2186 233.885 60.5783C234.257 60.9508 233.987 61.8115 233.294 62.5052ZM243.082 58.1118C243.082 58.4972 242.491 58.7927 241.772 58.7798C241.053 58.767 240.475 58.4458 240.487 58.0733C240.487 57.6879 241.078 57.3924 241.798 57.4053C242.517 57.4053 243.095 57.7393 243.082 58.1118ZM240.269 52.9862C241.194 52.9605 241.99 53.4487 242.055 54.0653C242.119 54.6819 241.425 55.2086 240.5 55.2343C239.575 55.26 238.779 54.7718 238.715 54.1552C238.65 53.5386 239.344 53.0119 240.269 52.9862ZM238.265 58.1375C238.445 58.5358 237.983 59.1395 237.225 59.4864C236.467 59.8332 235.709 59.7818 235.529 59.3836C235.349 58.9854 235.811 58.3816 236.569 58.0347C237.327 57.6879 238.085 57.7393 238.265 58.1375ZM234.732 54.0139C235.734 53.5643 236.736 53.7827 236.968 54.4764C237.199 55.1829 236.557 56.1078 235.555 56.5574C234.553 57.0071 233.551 56.7887 233.319 56.095C233.088 55.3884 233.73 54.4635 234.732 54.0139ZM229.401 57.8292C230.352 56.9814 231.457 56.8529 231.868 57.5337C232.279 58.2146 231.829 59.4735 230.866 60.3214C229.902 61.1692 228.81 61.2977 228.399 60.6168C228.001 59.9231 228.438 58.6771 229.401 57.8292ZM228.643 65.8966C229.221 64.9717 230.095 64.4707 230.596 64.779C231.084 65.0873 231.02 66.0893 230.429 67.0142C229.851 67.9391 228.977 68.4401 228.476 68.1318C227.988 67.8235 228.052 66.8215 228.643 65.8966ZM228.091 69.5578C228.682 69.8404 228.733 70.9708 228.194 72.0756C227.667 73.1804 226.755 73.8612 226.164 73.5786C225.573 73.296 225.522 72.1655 226.061 71.0608C226.588 69.956 227.5 69.2751 228.091 69.5578ZM224.764 63.3017C225.702 62.1584 226.896 61.7858 227.423 62.4924C227.963 63.1861 227.641 64.6762 226.704 65.8195C225.766 66.9628 224.571 67.3354 224.044 66.6288C223.518 65.9223 223.826 64.445 224.764 63.3017ZM220.692 69.8018C221.642 68.5814 222.875 68.1704 223.441 68.8898C224.006 69.6091 223.698 71.1635 222.747 72.3839C221.796 73.6043 220.563 74.0154 219.998 73.296C219.433 72.5894 219.741 71.0222 220.692 69.8018ZM214.795 89.7648C212.945 91.2549 210.646 91.4733 209.657 90.2401C208.668 89.0068 209.348 86.7973 211.198 85.3071C213.048 83.817 215.348 83.5986 216.337 84.8318C217.339 86.0651 216.645 88.2746 214.795 89.7648ZM218.482 80.3999C217.223 81.8258 215.579 82.1984 214.821 81.2221C214.05 80.2586 214.461 78.3188 215.72 76.8929C216.979 75.467 218.623 75.0945 219.381 76.0708C220.152 77.0342 219.741 78.974 218.482 80.3999ZM222.631 84.0354C221.771 85.2429 220.563 85.8467 219.921 85.3842C219.279 84.9218 219.458 83.5858 220.319 82.3782C221.18 81.1707 222.387 80.5669 223.03 81.0294C223.672 81.4918 223.492 82.8278 222.631 84.0354ZM224.019 79.3979C223.402 79.1153 223.325 77.9463 223.852 76.7773C224.378 75.6083 225.316 74.9018 225.933 75.1715C226.549 75.4541 226.627 76.6231 226.1 77.7921C225.573 78.9611 224.635 79.6677 224.019 79.3979Z" fill="#507096"/>
<path d="M210.427 120.21L210.003 119.979C208.603 119.414 206.83 119.144 205.058 118.874C204.056 118.72 203.092 118.579 202.27 118.373C198.75 117.641 190.362 115.406 187.022 110.242C183.682 105.077 179.687 112.939 174.086 109.728C169.41 107.043 172.775 102.611 170.078 103.626C166.738 104.731 160.173 111.398 157.501 112.528C154.791 113.671 151.117 114.686 147.443 114.84L147.276 114.866C145.554 115.187 145.272 115.907 145.349 116.459C145.451 117.23 146.081 117.962 149.96 118.091C150.628 118.116 151.605 118.116 152.504 118.013C155.266 117.718 158.015 117.166 160.713 116.626C164.31 115.894 168.022 115.149 171.709 115.072C178.171 114.956 184.08 116.857 190.297 118.874C194.819 120.339 199.508 121.854 204.48 122.548C205.405 122.689 206.445 122.792 207.331 122.818C207.678 122.818 207.999 122.818 208.282 122.818C208.911 122.805 210.556 122.754 210.993 121.726C211.211 121.199 210.993 120.621 210.402 120.223L210.427 120.21Z" fill="#507096"/>
<path d="M256.43 99.9646C256.301 99.682 255.685 99.1039 255.685 99.1039L255.222 98.7185C252.704 96.7916 250.353 96.0594 246.911 95.3657C244.007 94.7748 240.886 95.5327 237.366 96.676C233.191 98.0248 228.348 98.4102 227.603 96.9843C227.333 96.4833 227.924 95.8282 229.131 95.3015C231.302 94.3508 231.778 93.9912 234.219 92.4111C237.533 90.2529 231.046 85.9238 227.282 87.1827C224.044 88.2746 224.404 84.5107 224.622 82.9435C224.622 82.8664 224.648 82.7893 224.661 82.7122C224.725 82.0956 224.674 81.4019 224.969 80.8367C225.406 79.9888 226.434 79.5264 226.909 78.6528C227.179 78.2032 227.359 77.7151 227.449 77.2012C227.616 76.3919 227.359 75.5184 227.539 74.8761C227.731 74.0668 228.759 73.5401 229.144 72.5381C229.877 71.2406 228.99 69.5834 230.095 68.6457C230.647 68.1447 231.187 67.5666 231.431 66.8344C231.765 65.9994 231.585 65.0231 231.958 64.4835C232.42 63.8155 233.319 63.61 233.846 62.9805C234.476 62.3896 234.604 61.439 235.233 60.8737C235.747 60.4113 236.775 60.5398 237.61 60.1287C238.316 59.8461 238.83 59.1267 239.601 59.0496C240.179 58.9982 240.924 59.5377 241.759 59.5506C242.453 59.6277 243.16 59.2937 243.84 59.4221C244.585 59.602 244.919 60.5398 245.767 61.0022C246.268 61.3234 247.065 61.4261 247.424 61.9143C247.9 62.8135 247.309 63.5072 248.542 64.4964C250.045 66.0122 248.593 66.8344 248.054 67.785C247.36 69.4421 247.681 70.4827 245.472 71.7159C242.71 72.8207 241.618 73.4758 240.796 75.5312C240.102 77.2526 239.229 80.5412 240.308 80.6183C241.168 80.6825 243.108 76.2891 246.705 75.9808C251.548 75.5698 254.374 69.789 254.811 67.9391C256.365 61.3491 255.094 57.0456 250.88 51.7787C247.746 47.8477 241.913 45.8823 237.019 46.3961C229.62 47.1412 223.081 52.2797 218.842 58.4458C216.439 61.8372 213.703 65.8838 211.738 68.8512C209.027 72.9363 207.871 76.2506 206.535 76.7131C205.43 77.0985 205.777 74.9146 207.383 71.7801C210.325 66.4618 214.307 61.7087 217.364 56.4675C222.978 47.1412 224.494 35.1044 221 24.8403C218.713 18.0447 214.089 12.1997 207.576 8.83396C197.042 3.38719 183.348 2.56503 172.814 14.255C166.07 21.7572 166.134 34.3079 173.893 41.1806C180.843 47.3467 190.31 44.8032 193.984 41.7715C197.607 38.7912 199.393 35.5283 199.238 32.4067C199.2 31.3533 199.033 29.542 197.928 29.3107C197.08 29.118 195.886 31.9314 195.269 32.458C193.805 34.1152 192.648 34.963 189.347 35.4384C182.95 36.055 180.38 32.2525 180.175 27.9105C180.226 23.0932 184.542 23.4529 186.328 21.5388C187.266 20.2542 188.075 18.8797 190.978 19.9587C193.047 20.9864 194.023 20.5753 195.5 20.6653C196.361 20.858 196.99 21.8471 197.71 22.3224C198.84 23.1574 200.292 23.0418 200.973 23.9282C201.551 24.7504 201.525 25.8808 202.052 26.7543C202.591 27.8591 203.747 28.5271 204.03 29.3236C204.403 30.3898 203.747 31.5074 203.799 32.6122C203.76 33.961 204.544 35.2585 204.248 36.2091C203.876 37.391 202.681 38.136 202.296 39.3307C201.782 40.4098 202.052 41.7201 201.448 42.735C200.96 43.5571 199.56 43.904 198.66 44.8546C197.825 45.6125 197.389 46.6659 197.067 47.7193C196.502 49.7618 193.766 49.582 192.481 51.3419C191.389 52.4724 191.3 54.1424 190.349 54.8874C189.604 55.5297 188.294 55.7096 187.317 56.4161C186.701 56.8401 186.148 57.3924 185.724 58.0091C184.851 59.1652 184.851 60.8095 184.003 61.9014C183.425 62.6208 182.474 62.9805 181.691 63.443C179.815 64.4578 178.441 66.8087 178.376 68.8898C178.402 69.7504 178.299 70.5469 178.055 71.2791C176.925 73.7071 175.602 74.1438 175.178 73.3217C174.702 72.4096 174.946 71.7416 174.471 70.8681C174.137 70.123 172.968 68.4273 171.157 67.3739C169.345 66.3205 169.718 66.3719 169.474 65.4598C169.166 64.5221 168.215 63.6357 167.226 63.443C166.802 63.3402 166.327 63.3017 165.967 63.0576C165.427 62.6722 165.209 61.9271 164.657 61.5289C164.374 61.3105 164.053 61.1307 163.719 61.0279C163.179 60.8352 162.563 60.938 162.139 60.7453C161.599 60.5398 161.329 59.7818 160.687 59.4221C159.865 58.8055 158.645 59.2551 158.118 58.4073C157.822 57.9834 157.488 57.5594 157 57.3282C156.461 57.0199 155.78 57.0584 155.446 56.7501C155.035 56.3647 154.971 55.7353 154.598 55.3242C154.251 54.8361 153.609 54.6691 153.288 54.1809C153.018 53.7827 153.198 53.089 153.005 52.4852C152.877 51.9714 152.427 51.5603 152.453 51.0207C152.478 50.6225 152.902 50.1601 153.005 49.582C153.121 49.1195 152.954 48.6057 153.108 48.1561C153.301 47.6551 153.969 47.5137 154.367 46.9871C154.637 46.6787 154.778 46.1392 155.15 45.9337C155.806 45.6896 156.307 45.741 157.103 44.9959C158.272 44.1095 158.837 44.6234 159.428 45.073C160.494 45.7024 162.267 45.7153 162.897 47.077C163.218 47.9377 163.308 48.246 163.372 49.1195C163.398 49.5049 164.721 51.1364 165.003 48.0147C165.273 45.0473 163.333 42.1954 160.983 40.6924C158.041 38.8169 152.234 38.727 148.188 42.6322C145.696 45.0473 144.257 47.8991 144.141 51.2905C143.961 56.429 146.287 61.6831 150.102 65.1515C152.196 67.1041 156.589 70.4441 158.028 72.9363C161.548 78.9868 157.797 83.483 155.562 84.4978C155.497 84.5235 155.446 84.5492 155.395 84.5878C154.791 84.8318 154.213 85.1401 153.686 85.5898C151.566 87.1441 150.911 89.8932 151.875 93.0277C151.939 93.3874 152.029 93.7728 152.132 94.1582C152.401 95.2244 152.658 96.2392 152.222 96.9201C151.977 97.2541 151.091 97.4082 149.408 96.8687L149.061 96.7531C146.608 95.9052 144.064 95.0188 141.367 95.7639C140.12 96.0722 138.823 96.5218 137.577 96.9586C136.1 97.4725 134.558 98.012 133.068 98.2946L132.451 98.4616C129.908 99.1168 128.572 99.5022 128.52 100.44C128.469 101.185 129.291 101.493 129.612 101.622C132.528 102.444 135.624 101.134 138.361 99.9903C140.352 99.1553 142.176 98.3717 143.807 98.4359C145.721 98.4616 148.072 99.4508 148.843 101.172C149.806 104.936 143.563 107.492 138.99 109.342C137.538 109.933 136.292 110.447 135.457 110.91C134.442 111.423 133.299 112.014 133.685 112.849C134.301 114.147 139.234 112.348 139.26 112.335C144.796 110.177 158.285 105.129 156.486 95.0574C156.371 94.505 156.191 93.9141 155.998 93.3232C155.407 91.4091 155.651 89.9703 156.371 89.0197C156.987 88.2232 157.694 88.0434 158.144 88.0048C158.966 87.9149 159.582 88.1333 160.122 88.9555C161.085 90.4328 162.717 91.2935 164.592 89.7262C165.646 88.8527 171.478 80.0916 171.439 82.4425C171.324 88.8013 162.717 96.8173 161.908 99.0397C161.638 99.7462 159.993 105.424 160.726 105.861C161.394 106.259 162.01 105.514 162.229 105.244C167.187 99.9518 173.765 93.2846 175.923 94.7876C179.404 97.1898 171.889 104.332 177.85 104.011C182.577 103.754 184.003 102.405 186.521 103.921C189 105.758 189.103 108.212 190.516 110.653C191.929 113.093 195.295 112.618 194.652 109.175C193.997 105.733 195.886 102.29 197.286 103.793C198.301 104.885 198.249 105.257 198.982 106.375C201.307 110.37 205.559 114.378 210.941 116.035C214.769 117.114 219.15 118.399 223.762 118.54C229.915 118.72 234.604 117.204 239.768 114.648C241.605 113.736 242.504 113.016 242.132 112.194C241.502 110.794 236.775 112.438 236.441 112.554C236.428 112.554 236.428 112.554 236.428 112.554C224.854 114.879 220.846 102.418 218.508 105.758C216.26 108.97 215.296 111.873 209.978 110.524C205.97 109.522 204.544 106.696 204.12 105.822C202.771 103.022 201.654 99.5407 201.641 96.5732C201.615 86.2963 204.48 87.7222 204.39 90.7025C204.3 93.6828 204.839 98.5515 207.344 98.9241C209.849 99.2966 210.723 94.9418 215.99 92.9121C217.159 92.4625 217.853 91.7174 218.392 90.998C218.418 90.9595 218.469 90.9338 218.495 90.9081C218.559 90.831 218.636 90.7154 218.7 90.5869C219.587 89.3665 220.242 88.4031 222.567 89.4565C225.959 90.9851 230.121 88.6985 230.121 89.9189C230.121 91.1393 228.9 94.171 223.582 94.2352C218.264 94.2995 216.234 94.3123 213.6 97.4853C210.954 100.658 211.892 105.771 212.791 106.568C213.099 106.837 213.511 106.863 213.819 106.619L213.986 106.426C214.538 105.476 214.692 104.345 214.859 103.24C214.988 102.367 215.116 101.48 215.45 100.645C215.938 98.9883 217.596 96.9201 218.932 96.843C219.535 96.8173 220.049 97.2669 220.422 98.1661C221.758 102.315 224.34 105.334 228.091 107.146C237.43 111.667 244.971 107.993 248.773 106.246C250.045 105.655 251.535 104.705 252.768 103.947C253.847 103.086 251.381 102.161 245.754 102.816C243.493 103.073 242.196 105.81 240.603 106.285C235.722 107.749 230.044 105.232 227.808 103.086C227.346 102.637 227.256 102.264 227.346 102.046C227.603 101.416 229.465 101.558 230.467 101.519C231.842 101.455 233.409 101.378 234.591 100.992C235.914 100.671 237.16 100.234 238.368 99.8105C241.091 98.8598 243.66 97.9735 246.589 98.6029C248.182 98.847 249.839 99.4251 251.445 99.9775C252.473 100.337 253.475 100.671 254.451 100.941C255.453 101.185 256.301 101.262 256.468 100.761C256.468 100.761 256.609 100.453 256.417 100.042L256.43 99.9646ZM243.378 74.1181C242.774 74.4393 242.273 75.1073 242.158 74.8889C242.042 74.6705 242.569 73.9126 243.172 73.5786C243.776 73.2574 244.213 73.0134 244.329 73.2318C244.444 73.4501 243.982 73.7841 243.365 74.1053L243.378 74.1181ZM246.756 72.7436C246.011 73.2446 245.253 73.0262 245.112 72.8207C244.971 72.6151 245.562 72.5638 246.307 72.0628C247.052 71.5618 247.591 70.6368 247.746 70.8552C247.9 71.0736 247.501 72.2554 246.756 72.7564V72.7436ZM249.737 69.121C249.39 69.8789 248.863 70.3671 248.555 70.2258C248.247 70.0844 248.259 69.3522 248.606 68.6071C248.953 67.8621 249.48 67.3611 249.788 67.5024C250.096 67.6437 250.084 68.3759 249.737 69.121ZM250.829 64.4064C251.163 64.4321 251.394 65.0102 251.33 65.6911C251.265 66.3719 250.944 66.8986 250.61 66.8729C250.276 66.8472 250.045 66.2691 250.109 65.5883C250.174 64.9074 250.495 64.3808 250.829 64.4064ZM249.955 63.944C249.621 64.1238 249.043 63.7128 248.658 63.0191C248.272 62.3254 248.221 61.606 248.542 61.4261C248.876 61.2463 249.454 61.6574 249.839 62.3511C250.225 63.0448 250.276 63.7641 249.955 63.944ZM247.874 57.5337C248.182 57.2768 248.812 57.7778 249.287 58.6385C249.762 59.4992 249.891 60.4113 249.583 60.6682C249.274 60.9251 248.645 60.4241 248.17 59.5634C247.694 58.7027 247.566 57.7907 247.874 57.5337ZM247.116 60.2571C246.898 60.5654 246.243 60.4755 245.664 60.0644C245.086 59.6405 244.791 59.0496 245.009 58.7413C245.228 58.433 245.883 58.5229 246.461 58.934C247.039 59.3579 247.334 59.9488 247.116 60.2571ZM245.253 54.3864C246.011 54.7975 246.525 55.5297 246.397 56.0307C246.268 56.5189 245.536 56.5831 244.778 56.1721C244.02 55.761 243.506 55.0287 243.635 54.5277C243.763 54.0396 244.496 53.9754 245.253 54.3864ZM185.981 36.0164C187.163 36.1192 188.127 36.2734 188.101 36.5817C188.075 36.89 187.073 37.2111 185.891 37.1212C184.709 37.0184 183.515 36.0036 183.54 35.6953C183.566 35.387 184.812 35.9265 185.981 36.0164ZM180.779 32.4966C181.459 33.6142 181.948 34.5905 181.626 34.7832C181.305 34.9759 180.316 34.3079 179.635 33.1903C178.954 32.0727 179.16 30.2742 179.468 30.0815C179.777 29.8888 180.085 31.379 180.779 32.4966ZM179.905 25.4954C179.481 26.7415 179.16 27.8077 178.813 27.6793C178.466 27.5637 178.338 26.369 178.762 25.1229C179.186 23.8768 180.701 22.8877 181.061 23.0161C181.408 23.1317 180.329 24.2493 179.905 25.4954ZM185.056 21.436C184.08 22.1426 183.052 22.3867 182.757 21.9884C182.461 21.5773 183.014 20.6781 183.99 19.9716C184.966 19.265 185.994 19.021 186.29 19.4192C186.585 19.8303 186.033 20.7295 185.056 21.436ZM188.64 18.3273C187.407 18.5713 186.392 18.3787 186.392 17.8777C186.392 17.3767 187.394 16.7729 188.628 16.5288C189.861 16.2847 190.876 16.4774 190.876 16.9784C190.876 17.4794 189.874 18.0832 188.64 18.3273ZM193.175 19.8431C192.019 19.7403 191.12 19.2265 191.158 18.6741C191.21 18.1217 192.186 17.762 193.342 17.8648C194.498 17.9676 195.397 18.4814 195.359 19.0338C195.308 19.5862 194.331 19.9459 193.175 19.8431ZM195.898 17.094C196.053 16.5288 197.337 16.1563 198.763 16.259C200.189 16.3618 201.23 16.9013 201.075 17.4537C200.921 18.019 199.637 18.3915 198.211 18.2887C196.785 18.186 195.744 17.6464 195.898 17.094ZM201.204 21.9756C200.934 22.4637 199.971 22.4252 199.059 21.9113C198.147 21.3975 197.646 20.5882 197.915 20.1C198.185 19.6119 199.149 19.6504 200.061 20.1643C200.973 20.6781 201.474 21.4874 201.204 21.9756ZM160.302 43.9939C160.841 44.1866 161.214 44.5206 161.137 44.739C161.06 44.9574 160.559 44.9959 160.019 44.8032C159.48 44.6105 159.107 44.2765 159.184 44.0581C159.261 43.8397 159.762 43.8012 160.302 43.9939ZM155.78 44.315C156.294 44.1095 156.782 44.1481 156.885 44.3921C156.975 44.6362 156.641 44.9959 156.127 45.2014C155.613 45.407 155.125 45.3684 155.022 45.1244C154.932 44.8803 155.266 44.5206 155.78 44.315ZM162.229 61.8244C162.486 61.4261 163.295 61.4904 164.04 61.9528C164.785 62.4281 165.196 63.1347 164.939 63.5329C164.682 63.9311 163.873 63.8669 163.128 63.4044C162.383 62.9291 161.972 62.2226 162.229 61.8244ZM153.725 46.9357C153.391 47.2954 152.954 47.4367 152.761 47.2568C152.568 47.077 152.697 46.6402 153.031 46.2805C153.365 45.9208 153.802 45.7795 153.994 45.9594C154.187 46.1392 154.059 46.576 153.725 46.9357ZM153.095 44.315C153.737 44.071 154.367 44.071 154.508 44.315C154.649 44.5463 154.251 44.9317 153.622 45.1757C152.979 45.4198 152.35 45.4198 152.209 45.1757C152.067 44.9445 152.466 44.5591 153.095 44.315ZM151.554 49.3251C151.631 48.8369 151.9 48.4772 152.157 48.5157C152.414 48.5543 152.568 48.9782 152.491 49.4792C152.414 49.9674 152.144 50.3271 151.888 50.2885C151.631 50.25 151.476 49.8261 151.554 49.3251ZM151.721 51.8044C152.016 51.7144 152.376 52.087 152.543 52.6394C152.71 53.1917 152.607 53.7056 152.311 53.7955C152.016 53.8854 151.656 53.5129 151.489 52.9605C151.322 52.4081 151.425 51.8943 151.721 51.8044ZM149.806 46.6787C150.166 46.2034 150.706 45.9208 151.04 46.0493C151.361 46.1906 151.335 46.6916 150.975 47.1669C150.616 47.6422 150.076 47.9248 149.742 47.7964C149.421 47.655 149.447 47.1541 149.806 46.6787ZM149.293 48.8369C149.729 48.8497 150.025 49.3764 149.948 50.0059C149.884 50.6354 149.472 51.1364 149.049 51.1235C148.612 51.1107 148.316 50.584 148.393 49.9545C148.458 49.3251 148.869 48.8241 149.293 48.8369ZM149.871 55.0031C149.37 55.093 148.792 54.5663 148.573 53.8469C148.368 53.1147 148.599 52.4595 149.1 52.3696C149.601 52.2797 150.179 52.8064 150.397 53.5257C150.603 54.258 150.372 54.9131 149.871 55.0031ZM152.504 58.7798C151.99 58.9982 151.181 58.5743 150.693 57.8421C150.205 57.1098 150.218 56.3391 150.719 56.1335C151.232 55.9151 152.042 56.3391 152.53 57.0713C153.018 57.8035 153.005 58.5743 152.504 58.7798ZM152.979 55.0287C153.262 54.8104 153.827 55.0673 154.238 55.6197C154.649 56.1721 154.752 56.7758 154.457 56.9942C154.161 57.2126 153.609 56.9557 153.198 56.4033C152.787 55.8637 152.684 55.2471 152.979 55.0287ZM156.217 62.3254C155.69 62.6337 154.701 62.274 154.007 61.5289C153.313 60.7838 153.172 59.936 153.699 59.6277C154.226 59.3194 155.215 59.6791 155.908 60.4241C156.602 61.1692 156.743 62.0171 156.217 62.3254ZM156.14 59.1138C155.562 58.6257 155.305 57.9834 155.562 57.6751C155.818 57.3668 156.499 57.5081 157.077 57.9962C157.655 58.4844 157.912 59.1267 157.655 59.435C157.399 59.7433 156.718 59.602 156.14 59.1138ZM160.392 65.7168C159.852 66.0379 158.812 65.6782 158.067 64.9203C157.321 64.1495 157.154 63.276 157.694 62.9548C158.234 62.6337 159.274 62.9934 160.019 63.7513C160.764 64.5221 160.931 65.3956 160.392 65.7168ZM161.162 61.5161C160.918 61.8886 160.135 61.8244 159.428 61.3491C158.722 60.8866 158.349 60.1929 158.593 59.8204C158.837 59.4478 159.621 59.5121 160.327 59.9874C161.034 60.4627 161.407 61.1435 161.162 61.5161ZM161.496 69.1081C160.983 67.9006 161.304 66.7573 162.216 66.5518C163.128 66.3462 164.271 67.1555 164.785 68.3759C165.299 69.5963 164.978 70.7268 164.066 70.9323C163.154 71.1378 162.01 70.3285 161.496 69.1081ZM166.301 79.6291C164.926 79.5135 163.667 77.8307 163.488 75.8909C163.308 73.9511 164.271 72.4738 165.659 72.5895C167.046 72.7051 168.292 74.3879 168.472 76.3277C168.652 78.2675 167.688 79.7448 166.301 79.6291ZM168.652 66.8858C168.279 67.284 167.38 67.0399 166.635 66.3334C165.89 65.6397 165.594 64.7533 165.967 64.3551C166.339 63.9568 167.239 64.2009 167.984 64.9074C168.729 65.6011 169.024 66.4875 168.652 66.8858ZM171.722 73.8484C170.848 73.9897 169.731 72.9748 169.23 71.5746C168.729 70.1744 169.037 68.9154 169.911 68.7741C170.784 68.6328 171.902 69.6477 172.403 71.0479C172.904 72.4481 172.596 73.7071 171.709 73.8484H171.722ZM211.841 42.1184C211.288 43.904 209.901 45.24 208.745 45.1244C207.588 45.0087 207.087 43.4672 207.64 41.6816C208.192 39.896 209.58 38.56 210.736 38.6756C211.892 38.7912 212.393 40.3327 211.841 42.1184ZM213.678 32.7535C213.69 34.3593 212.843 35.7595 211.776 35.888C210.71 36.0164 209.824 34.8217 209.811 33.216C209.798 31.6102 210.646 30.21 211.712 30.0815C212.778 29.953 213.665 31.1477 213.678 32.7535ZM209.181 23.0803C210.042 22.7849 211.173 23.5557 211.686 24.7889C212.213 26.0221 211.93 27.2682 211.07 27.5508C210.209 27.8463 209.079 27.0755 208.565 25.8423C208.038 24.609 208.321 23.363 209.181 23.0803ZM203.966 18.5071C204.531 18.0318 205.816 18.263 206.831 19.021C207.845 19.7789 208.192 20.7809 207.627 21.2433C207.062 21.7058 205.777 21.4874 204.762 20.7295C203.747 19.9716 203.401 18.9696 203.966 18.5071ZM207.242 32.7407C207.242 33.9482 206.715 34.9245 206.073 34.9245C205.43 34.9245 204.904 33.9482 204.904 32.7407C204.904 31.5331 205.43 30.5568 206.073 30.5568C206.715 30.5568 207.242 31.5331 207.242 32.7407ZM203.105 26.2919C202.656 25.3541 202.694 24.3907 203.195 24.1594C203.696 23.9153 204.467 24.4934 204.916 25.4312C205.366 26.369 205.328 27.3324 204.827 27.5637C204.326 27.7949 203.555 27.2297 203.105 26.2919ZM203.285 39.7804C203.786 38.4315 204.775 37.558 205.482 37.8277C206.188 38.0975 206.368 39.395 205.867 40.7438C205.366 42.0927 204.377 42.9662 203.67 42.6964C202.964 42.4267 202.784 41.1292 203.285 39.7804ZM199.02 46.3062C199.894 44.9702 201.178 44.2637 201.898 44.739C202.617 45.2143 202.476 46.6659 201.589 48.0019C200.703 49.3379 199.431 50.0444 198.712 49.5691C198.005 49.1067 198.134 47.6422 199.007 46.3062H199.02ZM193.676 52.3054C194.832 50.9308 196.348 50.3142 197.08 50.9308C197.813 51.5474 197.466 53.1532 196.322 54.5277C195.166 55.9023 193.65 56.5189 192.918 55.9023C192.186 55.2857 192.533 53.6799 193.676 52.3054ZM187.356 58.5614C188.576 57.1484 190.182 56.5446 190.927 57.1869C191.672 57.8421 191.287 59.5121 190.066 60.9123C188.846 62.3254 187.24 62.9291 186.495 62.2868C185.75 61.6317 186.135 59.9617 187.356 58.5614ZM181.177 66.9114C182.256 65.0488 183.926 63.9954 184.915 64.5734C185.904 65.1515 185.84 67.117 184.761 68.9797C183.682 70.8424 182.012 71.8958 181.023 71.3177C180.033 70.7396 180.098 68.7741 181.177 66.9114ZM181.305 80.6055C180.303 83.1105 178.248 84.652 176.706 84.0354C175.165 83.4188 174.728 80.8881 175.73 78.3831C176.732 75.8781 178.787 74.3365 180.329 74.9531C181.87 75.5698 182.307 78.1005 181.305 80.6055ZM194.331 88.1333C193.972 92.8222 191.043 96.7402 187.78 96.8687C184.517 96.9972 182.166 93.3103 182.526 88.6086C182.885 83.9198 185.814 80.0017 189.077 79.8732C192.34 79.7448 194.691 83.4316 194.331 88.1333ZM196.541 71.6902C195.796 74.3622 193.599 76.3791 191.646 76.1992C189.694 76.0194 188.705 73.7071 189.45 71.0351C190.195 68.3631 192.391 66.3462 194.344 66.5261C196.297 66.7059 197.286 69.0182 196.541 71.6902ZM201.23 60.9123C200.189 62.9034 198.301 64.2651 197.016 63.944C195.731 63.6228 195.526 61.7344 196.566 59.7433C197.607 57.7521 199.495 56.3904 200.78 56.7116C202.065 57.0327 202.27 58.9211 201.23 60.9123ZM203.388 54.5277C202.142 54.2323 201.91 52.4338 202.861 50.5069C203.812 48.58 205.597 47.244 206.843 47.5394C208.089 47.8349 208.321 49.6334 207.37 51.5603C206.419 53.4872 204.634 54.8232 203.388 54.5277ZM233.294 62.5052C232.6 63.1989 231.726 63.4558 231.367 63.0961C230.994 62.7236 231.264 61.8629 231.958 61.1692C232.651 60.4755 233.525 60.2186 233.885 60.5783C234.257 60.9508 233.987 61.8115 233.294 62.5052ZM243.082 58.1118C243.082 58.4972 242.491 58.7927 241.772 58.7798C241.053 58.767 240.475 58.4458 240.487 58.0733C240.487 57.6879 241.078 57.3924 241.798 57.4053C242.517 57.4053 243.095 57.7393 243.082 58.1118ZM240.269 52.9862C241.194 52.9605 241.99 53.4487 242.055 54.0653C242.119 54.6819 241.425 55.2086 240.5 55.2343C239.575 55.26 238.779 54.7718 238.715 54.1552C238.65 53.5386 239.344 53.0119 240.269 52.9862ZM238.265 58.1375C238.445 58.5358 237.983 59.1395 237.225 59.4864C236.467 59.8332 235.709 59.7818 235.529 59.3836C235.349 58.9854 235.811 58.3816 236.569 58.0347C237.327 57.6879 238.085 57.7393 238.265 58.1375ZM234.732 54.0139C235.734 53.5643 236.736 53.7827 236.968 54.4764C237.199 55.1829 236.557 56.1078 235.555 56.5574C234.553 57.0071 233.551 56.7887 233.319 56.095C233.088 55.3884 233.73 54.4635 234.732 54.0139ZM229.401 57.8292C230.352 56.9814 231.457 56.8529 231.868 57.5337C232.279 58.2146 231.829 59.4735 230.866 60.3214C229.902 61.1692 228.81 61.2977 228.399 60.6168C228.001 59.9231 228.438 58.6771 229.401 57.8292ZM228.643 65.8966C229.221 64.9717 230.095 64.4707 230.596 64.779C231.084 65.0873 231.02 66.0893 230.429 67.0142C229.851 67.9391 228.977 68.4401 228.476 68.1318C227.988 67.8235 228.052 66.8215 228.643 65.8966ZM228.091 69.5578C228.682 69.8404 228.733 70.9708 228.194 72.0756C227.667 73.1804 226.755 73.8612 226.164 73.5786C225.573 73.296 225.522 72.1655 226.061 71.0608C226.588 69.956 227.5 69.2751 228.091 69.5578ZM224.764 63.3017C225.702 62.1584 226.896 61.7858 227.423 62.4924C227.963 63.1861 227.641 64.6762 226.704 65.8195C225.766 66.9628 224.571 67.3354 224.044 66.6288C223.518 65.9223 223.826 64.445 224.764 63.3017ZM220.692 69.8018C221.642 68.5814 222.875 68.1704 223.441 68.8898C224.006 69.6091 223.698 71.1635 222.747 72.3839C221.796 73.6043 220.563 74.0154 219.998 73.296C219.433 72.5894 219.741 71.0222 220.692 69.8018ZM214.795 89.7648C212.945 91.2549 210.646 91.4733 209.657 90.2401C208.668 89.0068 209.348 86.7973 211.198 85.3071C213.048 83.817 215.348 83.5986 216.337 84.8318C217.339 86.0651 216.645 88.2746 214.795 89.7648ZM218.482 80.3999C217.223 81.8258 215.579 82.1984 214.821 81.2221C214.05 80.2586 214.461 78.3188 215.72 76.8929C216.979 75.467 218.623 75.0945 219.381 76.0708C220.152 77.0342 219.741 78.974 218.482 80.3999ZM222.631 84.0354C221.771 85.2429 220.563 85.8467 219.921 85.3842C219.279 84.9218 219.458 83.5858 220.319 82.3782C221.18 81.1707 222.387 80.5669 223.03 81.0294C223.672 81.4918 223.492 82.8278 222.631 84.0354ZM224.019 79.3979C223.402 79.1153 223.325 77.9463 223.852 76.7773C224.378 75.6083 225.316 74.9018 225.933 75.1715C226.549 75.4541 226.627 76.6231 226.1 77.7921C225.573 78.9611 224.635 79.6677 224.019 79.3979Z" fill="#507096"/>
<path d="M102.592 67.8595L102.359 67.7324C101.565 67.4148 100.57 67.2666 99.5753 67.1078C99.0036 67.0232 98.4743 66.9385 98.0085 66.822C96.029 66.4092 91.3076 65.1494 89.4233 62.2489C87.5496 59.3483 85.2948 63.7627 82.1402 61.9631C79.5042 60.4493 81.3991 57.9616 79.8853 58.5332C78.0116 59.1578 74.3065 62.9052 72.8139 63.5404C71.2895 64.1861 69.2147 64.7578 67.1504 64.8425H67.0551C66.0812 65.033 65.933 65.4459 65.9648 65.7528C66.0177 66.1869 66.3776 66.5997 68.5583 66.6632C68.9288 66.6738 69.4899 66.6738 69.998 66.6209C71.5542 66.4621 73.0997 66.1445 74.6241 65.8375C76.646 65.4247 78.7315 65.0118 80.8063 64.9695C84.4479 64.906 87.7613 65.9751 91.2653 67.1078C93.8165 67.9336 96.4418 68.7804 99.2471 69.1721C99.7658 69.2568 100.348 69.3097 100.856 69.3203C101.047 69.3203 101.227 69.3203 101.396 69.3203C101.745 69.3203 102.677 69.278 102.92 68.7063C103.047 68.4099 102.92 68.0923 102.592 67.8595Z" fill="#507096"/>
<path d="M128.475 56.4691C128.401 56.3103 128.051 55.9821 128.051 55.9821L127.797 55.7704C126.379 54.6906 125.055 54.2778 123.118 53.8861C121.477 53.5474 119.72 53.9814 117.751 54.6165C115.401 55.3787 112.68 55.5905 112.257 54.7859C112.109 54.5001 112.437 54.1402 113.114 53.8438C114.332 53.3145 114.607 53.1133 115.983 52.2135C117.846 50.9961 114.194 48.5614 112.088 49.2706C110.267 49.8846 110.468 47.7674 110.595 46.8888H110.584C110.584 46.8888 110.605 46.7935 110.616 46.7512C110.648 46.4018 110.627 46.0101 110.785 45.6926C111.04 45.2162 111.611 44.9515 111.876 44.4646C112.024 44.2105 112.13 43.9353 112.183 43.6495C112.278 43.1943 112.13 42.7073 112.236 42.3368C112.342 41.8816 112.924 41.5852 113.146 41.0136C113.559 40.2831 113.061 39.3516 113.686 38.8223C114.004 38.5364 114.3 38.2189 114.438 37.806C114.628 37.3296 114.522 36.7898 114.734 36.4828C114.999 36.1017 115.496 35.9852 115.793 35.6359C116.153 35.3077 116.216 34.7678 116.576 34.4503C116.862 34.1962 117.444 34.2597 117.91 34.0268C118.302 33.868 118.598 33.4658 119.032 33.4234C119.36 33.3917 119.773 33.6986 120.249 33.7092C120.641 33.7516 121.033 33.561 121.414 33.6351C121.837 33.7304 122.028 34.2597 122.504 34.5244C122.79 34.7043 123.235 34.7678 123.436 35.0325C123.7 35.5406 123.372 35.9217 124.071 36.4828C124.918 37.3296 124.103 37.806 123.796 38.3353C123.404 39.2669 123.584 39.8491 122.345 40.5478C120.789 41.1723 120.175 41.5323 119.709 42.6967C119.318 43.6601 118.82 45.5232 119.434 45.5655C119.921 45.5973 121.012 43.1308 123.033 42.9508C125.765 42.7179 127.342 39.468 127.596 38.42C128.475 34.7149 127.755 32.2907 125.384 29.3266C123.616 27.1142 120.334 26.0132 117.582 26.299C113.411 26.7119 109.737 29.6125 107.356 33.0847C106.001 35.0007 104.466 37.2661 103.354 38.9387C101.83 41.2359 101.184 43.099 100.422 43.3636C99.7972 43.5754 99.9983 42.3474 100.909 40.569C102.56 37.5837 104.804 34.9055 106.519 31.9626C109.685 26.7119 110.531 19.9369 108.562 14.1675C107.281 10.346 104.667 7.05374 101.004 5.15885C95.0759 2.08892 87.3693 1.63372 81.4411 8.20761C77.6408 12.4314 77.6831 19.4923 82.0445 23.3667C85.9508 26.8389 91.2861 25.3992 93.3504 23.7055C95.3934 22.0223 96.3991 20.1909 96.3038 18.4443C96.2827 17.8514 96.1874 16.8352 95.5628 16.6976C95.0864 16.5917 94.409 18.169 94.0702 18.4654C93.2445 19.397 92.5987 19.8734 90.7356 20.1486C87.1364 20.4979 85.6861 18.3596 85.5697 15.9142C85.5908 13.2042 88.0256 13.4053 89.0313 12.3256C89.5606 11.6057 90.0158 10.8329 91.6566 11.4363C92.8211 12.0186 93.3715 11.7857 94.1972 11.8386C94.6842 11.9551 95.0335 12.5055 95.4464 12.7702C96.0815 13.2465 96.8967 13.1724 97.2778 13.67C97.6059 14.1358 97.5847 14.7709 97.8811 15.2685C98.1881 15.893 98.8339 16.2635 98.9927 16.7082C99.1938 17.3116 98.8339 17.9361 98.8657 18.5607C98.8445 19.3229 99.2891 20.0533 99.1197 20.5826C98.908 21.2495 98.2411 21.6624 98.0188 22.3399C97.733 22.9433 97.8812 23.6843 97.5424 24.256C97.2672 24.7217 96.4838 24.9123 95.9757 25.4522C95.5099 25.8756 95.2664 26.479 95.0759 27.0612C94.7583 28.2151 93.2233 28.1093 92.4929 29.0938C91.8789 29.7289 91.8366 30.6711 91.2967 31.0945C90.8732 31.4544 90.1428 31.5603 89.5923 31.952C89.243 32.1954 88.936 32.5024 88.6925 32.8518C88.2056 33.5081 88.2056 34.4291 87.7292 35.0431C87.401 35.4453 86.8717 35.6465 86.4271 35.9111C85.3685 36.4828 84.5958 37.806 84.564 38.9705C84.5746 39.4468 84.5216 39.902 84.384 40.3149C83.7489 41.6805 83.0079 41.924 82.7644 41.4582C82.4997 40.9395 82.6373 40.569 82.3621 40.0714C82.1821 39.648 81.5152 38.6952 80.499 38.1024C79.4827 37.5096 79.6944 37.5414 79.5462 37.0226C79.3769 36.4933 78.837 35.9958 78.2865 35.8899C78.0536 35.837 77.7784 35.8158 77.5772 35.6782C77.2808 35.4665 77.1538 35.0431 76.8362 34.8208C76.6774 34.6937 76.4975 34.5985 76.3069 34.5349C75.9999 34.4291 75.6612 34.482 75.4177 34.3762C75.1213 34.2597 74.9625 33.8363 74.6026 33.6351C74.1368 33.2858 73.4593 33.5399 73.1523 33.0635C72.9935 32.82 72.7924 32.5871 72.5277 32.4601C72.2207 32.2907 71.8396 32.3013 71.6491 32.1319C71.4162 31.9202 71.3844 31.5603 71.1727 31.3274C70.9822 31.0522 70.6223 30.9569 70.4317 30.6816C70.2835 30.4593 70.3894 30.0677 70.2729 29.7289C70.1988 29.4431 69.9553 29.2102 69.9659 28.9032C69.9765 28.6809 70.22 28.4162 70.2729 28.0987C70.3364 27.834 70.2412 27.5482 70.3258 27.2941C70.4317 27.0189 70.8128 26.9342 71.0351 26.6378C71.1833 26.4578 71.268 26.1614 71.4691 26.045C71.8396 25.9074 72.1255 25.9391 72.5701 25.5157C73.2264 25.0181 73.544 25.304 73.8827 25.558C74.4861 25.9074 75.4812 25.918 75.8411 26.6907C76.0211 27.1777 76.074 27.3471 76.1058 27.8446C76.1164 28.0563 76.8574 28.9879 77.0268 27.22C77.175 25.558 76.0846 23.949 74.7614 23.0915C73.11 22.0329 69.8389 21.9906 67.5629 24.1819C66.155 25.5369 65.3504 27.1459 65.2869 29.0514C65.1811 31.9414 66.4937 34.8949 68.6427 36.8533C69.8283 37.9542 72.2948 39.8385 73.0994 41.2359C75.079 44.6445 72.9723 47.1746 71.7126 47.7357C71.6809 47.7462 71.6809 47.7568 71.6491 47.7674C71.2998 47.905 70.961 48.085 70.654 48.3496C69.4578 49.2283 69.0979 50.7738 69.6378 52.5311C69.6695 52.7322 69.7225 52.9545 69.786 53.1663C69.9342 53.7697 70.0824 54.3307 69.8389 54.7224C69.7013 54.9129 69.2037 54.9976 68.251 54.6906L68.0499 54.6271C66.6737 54.1508 65.234 53.6532 63.7202 54.0661C63.0109 54.2354 62.2911 54.4895 61.5924 54.733C60.7561 55.0294 59.8987 55.3258 59.0518 55.4846L58.7024 55.5799C57.2733 55.9504 56.5217 56.1621 56.49 56.6914C56.4688 57.1148 56.924 57.2842 57.104 57.3583C58.7448 57.8241 60.4915 57.0831 62.0264 56.4373C63.1486 55.9715 64.1754 55.5269 65.0858 55.5587C66.1656 55.5799 67.4888 56.1303 67.9228 57.1042C68.4627 59.2214 64.9482 60.6611 62.3758 61.7092C61.5607 62.0373 60.862 62.3231 60.3856 62.5878C59.814 62.8842 59.1682 63.2124 59.3905 63.6781C59.7399 64.4086 62.5134 63.3923 62.5346 63.3923C65.6468 62.1749 73.237 59.3379 72.2313 53.6744C72.1678 53.3568 72.0619 53.0286 71.9561 52.7005C71.6279 51.6207 71.7655 50.8056 72.1678 50.2763C72.5171 49.8317 72.9088 49.7258 73.1629 49.7046C73.6287 49.6517 73.9674 49.7788 74.2744 50.2445C74.8143 51.0808 75.7353 51.5572 76.7833 50.6786C77.3761 50.1916 80.6578 45.2585 80.6366 46.5818C80.5731 50.1598 75.7353 54.6695 75.2695 55.9292C75.1107 56.3315 74.1897 59.5284 74.6026 59.7719C74.9837 59.9942 75.3224 59.5814 75.4495 59.4332C78.2336 56.4479 81.9387 52.7005 83.1561 53.5474C85.1145 54.9024 80.8801 58.9144 84.2358 58.7345C86.8929 58.5863 87.6974 57.8347 89.116 58.6816C90.5133 59.719 90.5662 61.0952 91.3602 62.4713C92.1541 63.8369 94.049 63.5723 93.6891 61.635C93.3186 59.6978 94.3878 57.7606 95.1711 58.6075C95.7428 59.2214 95.711 59.4332 96.1239 60.0577C97.4365 62.3125 99.8184 64.5568 102.857 65.4883C105.006 66.0917 107.472 66.8222 110.066 66.8963C113.527 67.0021 116.163 66.1447 119.074 64.705C120.112 64.1968 120.609 63.784 120.408 63.3288C120.059 62.5454 117.391 63.4664 117.211 63.5299C110.701 64.832 108.446 57.8241 107.123 59.7084C105.863 61.5186 105.313 63.1488 102.317 62.3972C100.062 61.8362 99.2573 60.2483 99.0244 59.7507C98.2622 58.1734 97.6377 56.215 97.6271 54.5424C97.6165 48.7625 99.2256 49.5564 99.1726 51.2396C99.1197 52.9228 99.4267 55.654 100.835 55.8657C102.243 56.0774 102.74 53.6215 105.694 52.4782C106.35 52.2241 106.742 51.8113 107.049 51.3984C107.07 51.3772 107.091 51.3666 107.102 51.3455C107.144 51.3031 107.176 51.2396 107.218 51.1655C107.716 50.4774 108.086 49.9375 109.399 50.5304C111.315 51.3984 113.644 50.1069 113.644 50.795C113.644 51.4831 112.956 53.1874 109.97 53.2192C106.975 53.2615 105.842 53.2615 104.349 55.0506C102.857 56.8396 103.386 59.719 103.894 60.1636C104.074 60.3118 104.296 60.333 104.476 60.1954L104.571 60.0895C104.878 59.5602 104.974 58.9145 105.058 58.3005C105.133 57.8135 105.196 57.3054 105.397 56.8396C105.672 55.908 106.604 54.7436 107.356 54.7012C107.694 54.6801 107.98 54.9447 108.192 55.4422C108.944 57.7712 110.394 59.4755 112.5 60.5023C117.762 63.043 121.996 60.9787 124.145 59.9942C124.865 59.6661 125.701 59.1262 126.389 58.7027C127.003 58.2158 125.606 57.6971 122.441 58.0676C121.17 58.2158 120.44 59.7507 119.54 60.026C116.788 60.8517 113.601 59.4332 112.342 58.2264C112.088 57.9723 112.024 57.7606 112.077 57.6441C112.225 57.2948 113.263 57.3689 113.834 57.3477C114.607 57.316 115.486 57.2736 116.153 57.0513C116.894 56.8714 117.603 56.6279 118.28 56.3844C119.815 55.8551 121.255 55.347 122.906 55.6963C123.806 55.8339 124.738 56.1621 125.638 56.4691C126.209 56.6702 126.781 56.8608 127.331 57.009C127.892 57.1466 128.369 57.1889 128.464 56.9031C128.464 56.9031 128.538 56.7337 128.432 56.5008L128.475 56.4691ZM123.34 41.3841C122.917 41.6699 122.441 41.4582 122.345 41.31C122.239 41.1618 122.599 41.1723 123.023 40.8865C123.446 40.6007 123.711 40.0291 123.817 40.1773C123.923 40.3255 123.774 41.0982 123.351 41.3841H123.34ZM125.214 38.8223C124.981 39.3304 124.6 39.6586 124.346 39.5421C124.092 39.4257 124.092 38.9281 124.325 38.4094C124.558 37.9013 124.939 37.5731 125.193 37.6896C125.436 37.806 125.447 38.3036 125.214 38.8223ZM124.261 34.9055C124.526 34.7572 124.949 34.9901 125.204 35.4453C125.458 35.8899 125.436 36.3769 125.172 36.5251C124.907 36.6733 124.484 36.4404 124.23 35.9852C123.976 35.5406 123.997 35.0537 124.261 34.9055ZM122.07 32.9259C122.229 32.7036 122.726 32.7883 123.171 33.1164C123.616 33.4446 123.859 33.8786 123.7 34.1009C123.542 34.3232 123.044 34.2385 122.599 33.9104C122.155 33.5822 121.911 33.1482 122.07 32.9259ZM119.974 31.8567C120.567 31.8673 121.043 32.1213 121.033 32.4177C121.022 32.7142 120.546 32.9576 119.953 32.947C119.36 32.9365 118.884 32.6824 118.894 32.386C118.905 32.0896 119.381 31.8461 119.974 31.8567ZM116.364 32.3436C116.947 32.1108 117.529 32.1849 117.666 32.5236C117.804 32.8624 117.433 33.3176 116.851 33.5504C116.269 33.7833 115.687 33.6986 115.549 33.3705C115.412 33.0317 115.782 32.5765 116.364 32.3436ZM88.8301 20.4873C89.4865 20.5403 90.0369 20.6356 90.0158 20.8049C90.0052 20.9743 89.4335 21.1649 88.7772 21.1119C88.1209 21.059 87.4434 20.4768 87.454 20.3074C87.4646 20.138 88.1632 20.4344 88.8301 20.4873ZM85.9084 18.4972C86.2895 19.1323 86.5647 19.6828 86.3848 19.7887C86.2048 19.8945 85.6438 19.524 85.2627 18.8889C84.8816 18.2537 84.998 17.248 85.1674 17.1316C85.3474 17.0257 85.5167 17.862 85.8978 18.4866L85.9084 18.4972ZM85.4109 14.5698C85.1674 15.2685 84.9874 15.8719 84.7969 15.7978C84.5958 15.7342 84.5322 15.0567 84.7651 14.3581C85.0086 13.6594 85.8555 13.0983 86.0566 13.1724C86.2577 13.2465 85.6438 13.8711 85.4109 14.5698ZM88.3114 12.2832C87.761 12.6855 87.1787 12.8231 87.0199 12.5902C86.8506 12.3573 87.1681 11.8492 87.7186 11.4575C88.2691 11.0658 88.8513 10.9176 89.0101 11.1505C89.1795 11.3834 88.8619 11.8915 88.3114 12.2832ZM90.3334 10.5259C89.6347 10.6636 89.0736 10.5471 89.0736 10.2719C89.0736 9.99664 89.6347 9.64731 90.3334 9.50969C91.032 9.37207 91.5931 9.48852 91.5931 9.76375C91.5931 10.039 91.032 10.3883 90.3334 10.5259ZM92.874 11.3834C92.2177 11.3305 91.7201 11.0341 91.7413 10.7271C91.7625 10.4201 92.3129 10.2189 92.9693 10.2719C93.6256 10.3248 94.1231 10.6212 94.102 10.9282C94.0808 11.2352 93.5303 11.4363 92.874 11.3834ZM94.4089 9.83785C94.4936 9.52028 95.2135 9.30856 96.018 9.36149C96.8226 9.41441 97.4048 9.72141 97.3201 10.039C97.2354 10.3566 96.5156 10.5683 95.711 10.5154C94.9065 10.4624 94.3243 10.1554 94.4089 9.83785ZM97.3942 12.5796C97.2354 12.8549 96.6955 12.8337 96.1874 12.5479C95.6793 12.2515 95.3935 11.7963 95.5417 11.5316C95.7004 11.2564 96.2403 11.2775 96.7485 11.5634C97.2566 11.8598 97.5424 12.315 97.3942 12.5796ZM71.3209 24.8488C71.6914 24.7429 72.0514 24.7641 72.1255 24.9017C72.1996 25.0393 71.9561 25.2405 71.5856 25.3569C71.2151 25.4733 70.8551 25.4416 70.781 25.304C70.7069 25.1664 70.9504 24.9652 71.3209 24.8488ZM69.3413 26.045C69.5742 25.7909 69.913 25.6639 70.1141 25.7698C70.3153 25.8756 70.2835 26.172 70.0612 26.4261C69.8283 26.6801 69.4896 26.8072 69.2884 26.7013C69.0873 26.5955 69.119 26.2991 69.3413 26.045ZM68.3886 27.8552C68.4521 27.4953 68.738 27.2306 69.0132 27.2624C69.2884 27.2941 69.4578 27.6117 69.3837 27.9716C69.3202 28.3316 69.0344 28.5962 68.7591 28.5645C68.4839 28.5327 68.3145 28.2151 68.3886 27.8552ZM68.3145 30.0782C68.2298 29.6548 68.4204 29.2737 68.7379 29.242C69.0555 29.1996 69.3837 29.5172 69.4684 29.9512C69.5531 30.3747 69.3625 30.7557 69.0449 30.7875C68.7274 30.8298 68.3992 30.5123 68.3145 30.0782ZM70.3788 32.82C70.0506 32.9365 69.5742 32.6718 69.3202 32.2272C69.0661 31.7932 69.1296 31.3486 69.4578 31.2321C69.786 31.1157 70.2623 31.3803 70.5164 31.8249C70.7705 32.259 70.7069 32.7036 70.3788 32.82ZM72.3689 34.6514C72.009 34.8314 71.4162 34.609 71.0351 34.1644C70.6646 33.7092 70.654 33.2011 71.0139 33.0211C71.3739 32.8412 71.9667 33.0635 72.3478 33.5081C72.7183 33.9633 72.7289 34.4714 72.3689 34.6514ZM74.6979 36.3769C74.285 36.5992 73.6181 36.3981 73.2158 35.9429C72.803 35.4877 72.8136 34.9372 73.2158 34.7255C73.6287 34.5032 74.2956 34.7043 74.6979 35.1595C75.1001 35.6147 75.1001 36.1652 74.6979 36.3769ZM75.1319 38.1024C74.8566 37.4037 75.1319 36.7368 75.7565 36.631C76.3704 36.5145 77.0903 37.0015 77.3655 37.7001C77.6408 38.3988 77.3655 39.0657 76.741 39.1716C76.127 39.288 75.4071 38.8011 75.1319 38.1024ZM78.2865 43.7871C77.3973 43.5648 76.7304 42.485 76.7939 41.3735C76.8574 40.262 77.6302 39.5315 78.5088 39.7538C79.398 39.9761 80.0649 41.0559 80.0014 42.1674C79.9379 43.279 79.1651 44.0094 78.2865 43.7871ZM103.386 23.9172C103.079 24.9229 102.296 25.6745 101.639 25.611C100.983 25.5474 100.708 24.6794 101.025 23.6737C101.332 22.6681 102.116 21.9165 102.761 21.98C103.418 22.0435 103.693 22.9115 103.375 23.9172H103.386ZM104.413 18.6454C104.413 19.5452 103.947 20.3391 103.344 20.4132C102.74 20.4874 102.243 19.8098 102.243 18.91C102.243 18.0102 102.708 17.2163 103.312 17.1422C103.915 17.0681 104.413 17.7456 104.413 18.6454ZM101.893 13.2042C102.38 13.0348 103.015 13.4688 103.301 14.1675C103.598 14.8662 103.439 15.5649 102.952 15.7237C102.465 15.8825 101.83 15.459 101.544 14.7603C101.247 14.0617 101.406 13.363 101.893 13.2042ZM98.9503 10.6318C99.2679 10.3672 99.9878 10.4942 100.559 10.9176C101.131 11.3411 101.332 11.9021 101.004 12.1668C100.686 12.4314 99.9666 12.3044 99.395 11.8809C98.8233 11.4575 98.6222 10.8965 98.9503 10.6318ZM100.792 18.6454C100.792 19.3229 100.496 19.8734 100.136 19.8734C99.776 19.8734 99.4796 19.3229 99.4796 18.6454C99.4796 17.9679 99.776 17.4174 100.136 17.4174C100.496 17.4174 100.792 17.9679 100.792 18.6454ZM98.4634 15.0144C98.2093 14.4851 98.2305 13.9452 98.5163 13.8076C98.8021 13.67 99.2362 13.9981 99.4796 14.5274C99.7337 15.0567 99.7125 15.5966 99.4267 15.7342C99.1409 15.8719 98.7069 15.5437 98.4634 15.0144ZM98.5692 22.6045C98.8551 21.8529 99.4055 21.3554 99.8078 21.5036C100.21 21.6518 100.305 22.3822 100.03 23.1444C99.7549 23.9066 99.1938 24.3936 98.7915 24.2454C98.3893 24.0972 98.294 23.3667 98.5692 22.6045ZM96.1662 26.2779C96.6638 25.5263 97.3836 25.1346 97.7859 25.3887C98.1881 25.6533 98.114 26.4684 97.6165 27.22C97.119 27.9716 96.3991 28.3633 95.9968 28.1093C95.5946 27.8446 95.6687 27.0295 96.1662 26.2779ZM93.1598 29.6548C93.8056 28.882 94.663 28.5327 95.0759 28.882C95.4887 29.2314 95.2982 30.1312 94.6418 30.904C93.9855 31.6767 93.1386 32.0261 92.7258 31.6767C92.3129 31.3274 92.5035 30.4276 93.1598 29.6548ZM89.6029 33.1694C90.291 32.3754 91.1908 32.0367 91.6143 32.3966C92.0377 32.7671 91.8154 33.6986 91.1273 34.4926C90.4392 35.2865 89.5394 35.6253 89.116 35.2654C88.6925 34.8949 88.9148 33.9633 89.6029 33.1694ZM86.1307 37.8695C86.7341 36.8215 87.6763 36.2287 88.2373 36.5569C88.7984 36.885 88.756 37.986 88.1526 39.0446C87.5492 40.1032 86.6071 40.6854 86.046 40.3572C85.485 40.0291 85.5273 38.9281 86.1307 37.8695ZM86.2048 45.5761C85.6438 46.984 84.4793 47.8521 83.6218 47.5028C82.7644 47.1534 82.5103 45.7349 83.0714 44.327C83.6324 42.919 84.7863 42.051 85.6543 42.4003C86.5224 42.7497 86.7659 44.1682 86.2048 45.5761ZM93.5303 49.8105C93.3292 52.457 91.6778 54.6589 89.8464 54.733C88.015 54.8071 86.6918 52.7322 86.8929 50.0857C87.094 47.4392 88.7455 45.2374 90.5768 45.1633C92.4082 45.0892 93.7314 47.164 93.5303 49.8105ZM94.7689 40.5584C94.3454 42.0616 93.1175 43.1943 92.0165 43.099C90.9156 42.9931 90.3651 41.6911 90.778 40.1984C91.2014 38.6952 92.4294 37.5625 93.5303 37.6578C94.6313 37.7637 95.1817 39.0657 94.7689 40.5584ZM97.4048 34.4926C96.8226 35.6147 95.764 36.3769 95.0335 36.1969C94.3031 36.017 94.1972 34.9584 94.7795 33.8257C95.3617 32.7036 96.4203 31.9414 97.1507 32.1213C97.8706 32.3013 97.987 33.3599 97.4048 34.4926ZM98.6222 30.904C97.9235 30.7346 97.7859 29.7289 98.3258 28.6386C98.8656 27.5482 99.8713 26.8072 100.57 26.966C101.269 27.1353 101.406 28.141 100.866 29.2314C100.327 30.3217 99.3208 31.0627 98.6222 30.904ZM113.231 34.4714C113.718 33.9845 114.364 33.8469 114.681 34.1644C114.999 34.482 114.861 35.1278 114.374 35.6147C113.887 36.1017 113.241 36.2393 112.924 35.9217C112.606 35.6041 112.744 34.9584 113.231 34.4714ZM110.955 37.4778C111.336 36.885 111.982 36.6098 112.405 36.885C112.829 37.1497 112.871 37.8589 112.49 38.4518C112.109 39.0446 111.463 39.3198 111.04 39.0446C110.616 38.7693 110.574 38.0707 110.955 37.4778ZM105.048 50.7315C104.01 51.5678 102.719 51.6948 102.158 50.9961C101.597 50.2975 101.989 49.0589 103.026 48.2226C104.063 47.3863 105.355 47.2593 105.916 47.958C106.477 48.6566 106.085 49.8952 105.048 50.7315ZM108.531 45.8514C107.98 46.6241 107.091 46.9417 106.562 46.5606C106.022 46.1795 106.043 45.2374 106.593 44.4646C107.144 43.6918 108.033 43.3742 108.562 43.7553C109.102 44.1364 109.081 45.0786 108.531 45.8514ZM109.198 42.792C108.689 42.5485 108.552 41.7652 108.891 41.0559C109.229 40.3361 109.928 39.955 110.436 40.209C110.944 40.4525 111.082 41.2359 110.743 41.9451C110.404 42.6544 109.706 43.0461 109.198 42.792Z" fill="#507096"/>
<path d="M41.4493 34.1729C41.0364 34.0158 40.5283 33.9321 40.0095 33.8588C39.7131 33.8169 39.4378 33.775 39.1944 33.7122C38.1675 33.5028 35.722 32.8537 34.748 31.367C33.7741 29.8804 32.6096 32.1418 30.9792 31.2205C29.6136 30.4457 29.1901 28.4879 28.3961 28.7706C27.4222 29.0847 26.3318 30.8854 25.6754 31.4089C25.0084 31.9429 24.278 32.6443 23.2087 32.6967H23.1558C22.6582 32.7909 22.5735 33.0003 22.5947 33.1678C22.6265 33.3877 22.8064 33.5971 23.9392 33.6389C24.1298 33.6389 24.4156 33.6389 24.6803 33.618C25.4848 33.5342 26.3953 33.4295 27.1893 33.4086C28.3644 33.3877 29.4971 33.9844 30.5664 33.9635C32.4508 33.9321 33.4459 33.5971 35.6585 34.2043C36.9924 34.5707 38.3792 34.7278 39.8401 34.9267C40.1048 34.9686 40.4118 35 40.6765 35C40.7717 35 40.867 35 40.9517 35C41.1317 35 41.6187 34.979 41.7351 34.6859C41.7986 34.5288 41.7351 34.3718 41.5657 34.2566L41.4387 34.1938L41.4493 34.1729Z" fill="#507096"/>
<path d="M54.9471 28.3623C54.1319 27.2944 52.1099 26.8756 50.7654 27.1374C50.2678 27.2107 46.4461 28.4147 46.9119 27.284C47.5471 26.7081 48.754 26.2056 48.5316 25.1796C48.1929 23.6615 45.1016 24.9283 45.7792 22.5727C46.7108 20.7614 47.0284 18.3325 48.6269 16.9296C49.5374 16.1967 51.0618 16.3747 51.6335 17.4321C52.3322 18.7408 50.6807 19.4004 50.0349 20.2694C49.7385 20.7719 49.7067 21.4315 50.0138 21.2744C50.8819 20.5625 52.5545 20.1647 53.0733 19.0654C54.2166 16.8458 52.5757 13.6631 49.9926 13.4013C45.4616 12.9093 43.2596 18.4163 41.047 21.4105C40.687 21.9968 40.7188 21.9549 40.4647 22.4261C40.2953 22.7088 40.073 23.2427 39.7554 23.0857C39.5225 22.8763 39.8189 22.0701 40.073 21.4943C41.2905 18.6675 43.7148 16.5317 44.6676 13.5688C46.0967 9.46479 44.9111 4.17767 40.7717 2.08376C37.3417 0.0107931 31.5403 0.837886 29.5818 5.20369C27.1787 10.9096 34.4833 15.3801 37.9134 10.2395C38.2204 9.68465 38.4956 8.78427 38.0087 8.31314C37.7016 8.10375 37.257 8.74239 36.8759 9.10883C36.5265 9.42291 36.029 9.6323 35.3832 9.69512C33.3188 10.072 31.752 7.52792 33.5941 6.38674C34.1128 6.14594 34.4516 5.60153 34.9915 5.40261C35.5102 5.2665 36.2725 5.44448 36.8336 5.51777C37.5958 5.71669 38.4745 6.15642 39.0144 6.67989C39.2049 6.93116 39.279 7.28712 39.4272 7.62215C39.6813 8.16656 40.0307 8.62723 39.8084 9.24493C39.4378 10.072 39.6496 11.1085 39.025 11.7576C37.9028 12.6475 37.4158 13.8829 36.0819 14.5635C35.415 15.0555 34.9597 15.9454 34.4939 16.6155C33.9434 17.296 32.8848 17.5892 32.4613 18.7094C32.1649 19.2538 32.1967 20.2798 31.5826 20.552C31.4344 20.5939 31.2756 20.5311 31.1274 20.374C30.524 19.6726 29.7512 18.8664 28.9572 18.2592C27.6445 17.3379 24.2568 16.2909 25.7918 14.1551C26.2682 13.5689 27.1469 13.4956 27.6762 13.9876C27.9726 14.2389 28.2056 14.4902 28.3326 14.3959C28.5443 14.3017 28.3749 13.6107 28.2373 13.3595C26.6599 10.6793 22.4888 13.1919 23.1452 15.9036C23.3463 17.3693 24.2991 18.5838 25.4213 19.4527C27.4539 21.086 27.6974 23.2532 25.1672 24.1536C24.839 24.3525 24.5744 24.6456 24.4473 24.9911C24.098 25.7135 24.6591 26.8233 24.3838 27.2525C24.1192 27.6085 23.4628 27.3782 23.0499 27.2944C21.716 26.8023 20.8162 28.1215 20.5409 29.2208C20.3927 29.9746 19.3235 30.9692 19.0482 31.5032C18.72 32.5711 20.1492 32.3512 20.8479 32.236C22.0019 31.9952 23.3993 31.388 24.405 30.6237C27.6127 28.2053 27.5915 24.2164 29.8782 22.8344C30.7675 22.5203 29.2642 24.9283 29.4759 26.4987C29.5183 27.441 30.0582 28.2262 30.8098 28.7183C32.1014 29.4826 33.6576 29.4302 34.9068 29.9956C36.2831 30.6028 37.0453 31.7126 38.3792 32.3198C39.6813 32.8852 41.1529 32.7281 42.4868 33.1992C45.1546 34.0263 48.0341 33.8274 50.5113 32.4559C52.6392 31.3671 47.9811 32.2989 47.4518 31.922C45.6839 31.4927 44.7946 29.671 44.1171 30.027C43.7042 30.2468 43.2913 30.5923 42.8043 30.6866C41.7986 30.8959 40.6235 30.027 40.073 29.4093C39.4061 28.6241 38.8768 27.0536 39.2473 25.9438C39.3531 25.5984 39.5331 25.19 39.8189 25.6612C41.0046 27.8284 42.4126 28.0796 44.1488 26.2998C44.7099 25.7763 46.0438 24.8131 46.6684 25.3052C46.9754 25.5983 46.7531 26.237 46.1603 26.6244C45.4086 27.1688 44.1171 27.5771 43.1537 27.9645C42.2962 28.2471 41.0999 28.9695 42.4868 29.2627C43.0372 29.2941 43.3548 28.7497 43.7889 28.5298C44.7734 28.0063 45.0275 29.3464 45.7262 29.8071C47.9917 31.5136 51.1783 31.2728 53.3697 29.9223C53.9413 29.5244 54.9365 29.158 55 28.467L54.9682 28.3518L54.9471 28.3623ZM48.6693 15.422C49.1668 15.2544 49.6221 15.5581 49.6856 15.757C49.7491 15.9454 49.4209 15.8512 48.9233 16.0187C48.4258 16.1862 47.9388 16.5527 47.8753 16.3642C47.8118 16.1758 48.1717 15.5999 48.6693 15.4324V15.422ZM46.0332 17.5473C46.3402 17.118 46.7743 16.9086 46.9966 17.0657C47.2189 17.2227 47.166 17.7043 46.859 18.1231C46.552 18.5524 46.1179 18.7617 45.8956 18.6047C45.6627 18.4477 45.7262 17.9661 46.0332 17.5473ZM32.1755 7.76872C32.0696 7.74778 31.9955 7.41276 32.0696 7.03585C32.1543 6.66942 32.5566 6.3344 32.6625 6.35534C32.7683 6.37628 32.4931 6.73224 32.419 7.10914C32.3343 7.47558 32.2814 7.80013 32.1755 7.76872ZM33.0753 9.60089C32.9907 9.66371 32.6836 9.50667 32.4402 9.21352C32.2073 8.9099 32.2073 8.3969 32.2919 8.32361C32.3766 8.26079 32.5143 8.67957 32.7472 8.97272C32.9801 9.27634 33.1495 9.53807 33.0648 9.60089H33.0753ZM34.0175 5.70622C33.7105 5.92608 33.3824 5.99937 33.2871 5.87374C33.1918 5.7481 33.3718 5.46542 33.6788 5.24556C33.9858 5.0257 34.314 4.95242 34.4092 5.07805C34.5045 5.20369 34.3246 5.48636 34.0175 5.70622ZM25.4001 16.5841C25.2943 16.5945 25.1143 16.3852 24.9978 16.1129C24.892 15.8407 24.892 15.5999 24.9978 15.5895C25.1037 15.579 25.2837 15.7884 25.4001 16.0606C25.5166 16.3328 25.5166 16.5736 25.4001 16.5841ZM26.5964 17.8718C26.4164 17.9661 26.1094 17.8509 25.9189 17.631C25.7177 17.4007 25.7071 17.1494 25.8871 17.0552C26.0671 16.961 26.3741 17.0761 26.5646 17.296C26.7658 17.5263 26.7764 17.7776 26.5964 17.8718ZM27.8456 19.4423C27.5386 19.4946 27.1892 19.2643 27.0516 18.9188C26.914 18.5733 27.0516 18.2487 27.3586 18.1964C27.6656 18.144 28.015 18.3744 28.1526 18.7199C28.2902 19.0654 28.1526 19.3899 27.8456 19.4423ZM28.9466 21.8712C28.5126 21.7665 28.1844 21.2326 28.2161 20.6881C28.2479 20.1437 28.629 19.7878 29.0631 19.8925C29.4971 19.9971 29.8253 20.5311 29.7935 21.0755C29.7618 21.6199 29.3807 21.9759 28.9466 21.8712ZM41.3222 10.0511C41.2799 10.5955 40.9411 11.0771 40.56 11.1399C40.1789 11.2027 39.9142 10.8154 39.9566 10.2709C39.9989 9.72653 40.3377 9.24493 40.7188 9.18211C41.0999 9.1193 41.3646 9.50666 41.3222 10.0511ZM36.3572 5.16181C35.976 5.1304 35.669 4.96289 35.6902 4.77443C35.7008 4.59645 36.029 4.47082 36.4101 4.5127C36.7912 4.5441 37.0982 4.71162 37.077 4.90007C37.0665 5.07805 36.7383 5.20368 36.3572 5.16181ZM39.4061 5.92609C39.1943 6.10407 38.718 6.00984 38.3474 5.73763C37.9769 5.45496 37.8393 5.08852 38.051 4.92101C38.2627 4.74302 38.7391 4.83725 39.1202 5.10946C39.4908 5.39214 39.6284 5.75857 39.4167 5.92609H39.4061ZM39.7131 7.52792C39.5437 7.13008 39.6284 6.73224 39.9142 6.63802C40.2001 6.54379 40.56 6.79506 40.7294 7.1929C40.8988 7.59074 40.8141 7.98858 40.5282 8.08281C40.2424 8.17703 39.8825 7.92577 39.7131 7.52792ZM35.4679 24.164C35.3409 25.8077 34.3034 27.1688 33.1494 27.2211C31.9955 27.263 31.1592 25.9753 31.2862 24.3315C31.4133 22.6878 32.4507 21.3163 33.6047 21.2744C34.7586 21.2326 35.5843 22.5203 35.4573 24.164H35.4679ZM36.4101 19.1805C36.1666 19.9553 35.4467 20.5311 34.8009 20.4788C34.1552 20.4264 33.8376 19.7563 34.0811 18.9921C34.3246 18.2173 35.0444 17.6415 35.6902 17.6938C36.336 17.7462 36.6536 18.4162 36.4101 19.1805ZM37.9557 16.0711C37.617 16.6469 36.9923 17.0343 36.5689 16.94C36.1454 16.8458 36.0819 16.3014 36.4207 15.7256C36.7594 15.1498 37.3841 14.7624 37.8075 14.8566C38.231 14.9508 38.2945 15.4952 37.9557 16.0711ZM38.665 14.2284C38.2521 14.1447 38.178 13.6212 38.4956 13.0663C38.8132 12.5114 39.3955 12.1241 39.8084 12.2078C40.2212 12.2916 40.2953 12.815 39.9777 13.3699C39.6602 13.9248 39.0779 14.3122 38.665 14.2284ZM43.9265 24.3315C43.7465 25.2843 42.9737 26.08 42.1903 26.1009C41.4175 26.1323 40.9411 25.3785 41.1211 24.4258C41.3011 23.473 42.0739 22.6773 42.8573 22.6564C43.6301 22.625 44.1065 23.3788 43.9265 24.3315ZM45.3451 20.9813C45.0169 21.6513 44.4241 22.0282 44.0218 21.8398C43.6089 21.6409 43.5454 20.9499 43.863 20.2798C44.1912 19.6098 44.784 19.2329 45.1863 19.4213C45.5992 19.6202 45.6627 20.3112 45.3451 20.9813Z" fill="#507096"/>
<g clip-path="url(#clip1_41_28)">
<path d="M16.8884 15.8941C16.052 15.8941 15.3426 16.156 14.4955 16.156C13.8179 16.1778 13.0131 16.1015 12.6743 15.9051C12.1026 15.6432 12.4308 15.2176 12.9179 15.1085C13.2884 15.0649 13.6696 15.0867 14.0402 15.1958C14.5484 15.3158 15.1837 15.5886 15.6602 15.4904C16.4967 15.3158 16.0414 14.683 15.4273 14.192C14.7284 13.6791 14.0296 13.45 13.0661 13.7882C12.2614 14.1265 11.139 14.3447 11.1179 13.45C11.2661 11.8242 12.9073 10.2639 13.5743 8.74716C14.7602 6.28118 14.1461 2.74588 11.552 1.53471C9.38138 0.22534 5.7602 1.46924 5.44256 4.18619C5.02962 6.44485 7.58138 8.32162 9.44491 6.97951C9.92138 6.65217 10.599 5.73561 10.239 5.21186C10.1014 5.0591 9.86844 5.28824 9.62491 5.51738C9.1802 5.98657 7.94138 5.98657 7.60256 5.36462C6.99903 4.41533 8.18491 3.42239 9.07432 3.45512C10.3131 3.49877 11.3402 4.56809 11.1284 5.84472C10.8531 7.41597 9.42373 8.43073 8.40726 9.47823C7.85668 10.2202 6.82962 11.5296 6.37432 12.3698C5.90844 13.2099 5.53785 14.3665 5.07197 14.3884C4.60609 14.4102 4.02373 13.4282 3.5155 13.6137C2.78491 13.8864 3.25079 15.8941 2.42491 15.4031C2.12844 15.2285 1.81079 15.0431 1.4402 15.0867L1.31315 15.1303C1.09079 15.2504 0.86844 15.5995 0.561381 15.8287C0.264911 16.0578 -0.0739126 16.2979 0.0425579 16.4288C0.127264 16.527 0.233146 16.647 0.540205 16.647C1.49315 16.647 2.30844 16.7561 3.21903 17.0835C6.10962 17.8691 8.97903 18.5129 12.039 17.5527C13.6484 16.9089 16.1367 17.3999 17.3861 17.2363C18.519 16.9635 18.0002 15.9378 16.9096 15.9269L16.8884 15.8941ZM9.85785 3.18234C9.52962 3.10596 9.29667 2.90955 9.33903 2.75679C9.38138 2.60403 9.66726 2.53856 9.9955 2.61494C10.3237 2.69132 10.5567 2.88773 10.5143 3.04049C10.4826 3.19325 10.1861 3.25872 9.85785 3.18234ZM12.4308 6.19389C12.3461 6.63035 12.0814 6.93587 11.8273 6.89222C11.5731 6.83766 11.4355 6.44485 11.5202 6.01931C11.6049 5.58285 11.8696 5.27733 12.1237 5.32098C12.3779 5.37553 12.5155 5.76834 12.4308 6.19389ZM11.1179 4.26257C10.9379 3.94614 10.9379 3.60788 11.1179 3.49877C11.2979 3.38965 11.5943 3.55333 11.7743 3.86976C11.9543 4.18619 11.9543 4.52444 11.7743 4.63356C11.5943 4.74267 11.2979 4.579 11.1179 4.26257ZM9.56138 14.6175C9.33903 15.6977 8.52373 16.4397 7.7402 16.2651C6.95668 16.0906 6.50138 15.0758 6.73432 13.9846C6.95668 12.9044 7.77197 12.1624 8.5555 12.337C9.33903 12.5116 9.79432 13.5264 9.56138 14.6175ZM9.96373 10.9513C9.68844 11.4423 9.16962 11.6605 8.80962 11.4423C8.44962 11.2241 8.3755 10.6567 8.6402 10.1656C8.90491 9.67463 9.43432 9.45641 9.79432 9.67463C10.1543 9.89286 10.2284 10.4603 9.96373 10.9513ZM10.4402 9.19453C10.1649 9.00904 10.1649 8.50711 10.4402 8.07066C10.7155 7.6342 11.1602 7.43779 11.4355 7.62329C11.7108 7.80878 11.7108 8.31071 11.4355 8.74716C11.1602 9.18362 10.7155 9.38003 10.4402 9.19453Z" fill="#507096"/>
</g>
</g>
<defs>
<clipPath id="clip0_41_28">
<rect width="254" height="128" fill="white"/>
</clipPath>
<clipPath id="clip1_41_28">
<rect width="18" height="17" fill="white" transform="translate(0 1)"/>
</clipPath>
</defs>
</svg>
