<svg xmlns="http://www.w3.org/2000/svg" overflow="hidden">
  <defs>
    <style>
      .icon-sm, .icon-md, .icon-lg { display: none; }
      @media (max-width: 32px) { .icon-sm { display: inline; } }
      @media (min-width: 33px) and (max-width: 64px) { .icon-md { display: inline; } }
      @media (min-width: 65px) { .icon-lg { display: inline; } }
    </style>

    <!-- Small: 18×18 영역 (x=0~18, y=0~18) -->
    <symbol id="icon-sm" viewBox="0 0 18 18">
      <path d="M5.85034 3.38027C7.41032 1.65036 9.43978 1.7705 10.9998 2.58047C11.9696 3.0804 12.6499 3.9398 12.99 4.94961C13.51 6.46961 13.2799 8.25027 12.4499 9.63027C12 10.4101 11.4004 11.11 10.9705 11.8998C10.7705 12.2398 10.5897 12.6702 10.4597 13.0502C10.3397 13.5103 10.1702 14.7097 12.2595 13.7201C14.3295 12.7301 12.4802 14.3398 12.9802 14.6098C13.7502 15.0397 15.1302 14.4302 14.9802 14.8402C14.9401 15.1202 14.5697 15.2803 14.2498 15.4203C14.0701 15.5002 13.9904 15.5502 13.9304 15.64C13.8204 15.99 14.3602 15.9504 14.9802 15.7504C15.5001 15.5804 15.7502 15.5401 16.1501 15.6801C16.6601 15.8001 17.52 16.3905 16.6003 16.7904C15.5604 17.2504 13.4802 16.3704 11.2302 17.1703C8.98027 17.9703 6.65011 17.52 4.65014 17.14C2.65018 16.75 2.26998 16.1798 0.570066 16.3598C-0.339934 16.4198 0.0799492 15.93 0.199949 15.85C0.319941 15.77 0.399891 15.7298 0.619871 15.6498C0.799871 15.5798 0.990418 15.5201 1.18042 15.4701C1.59026 15.3603 1.95995 15.4906 2.32983 15.6205L2.37964 15.64C2.62933 15.71 2.75939 15.6899 2.79956 15.64C2.86956 15.54 2.82979 15.3899 2.78979 15.2299C2.76982 15.17 2.74975 15.1099 2.74975 15.06C2.60983 14.59 2.7103 14.1796 3.02026 13.9496C3.3001 13.7001 3.69973 13.6996 4.00952 13.6996C4.39952 13.6996 4.55007 13.6799 4.57007 13.4799C4.58002 13.3699 4.55955 13.2399 4.54956 13.1C4.54955 12.93 4.52956 12.7597 4.54956 12.6098C4.57963 12.3699 4.72026 12.2105 4.94018 12.1605C5.24005 12.0906 5.63975 12.2599 5.82983 12.5297C5.88983 12.5997 5.94022 12.6802 5.98022 12.7602C5.99021 12.7002 6.07006 12.4707 6.11011 12.3705C6.1701 12.2205 6.88028 11.0805 7.52026 10.3305C8.16026 9.58047 9.94046 7.84024 10.2205 7.09024C10.5005 6.34022 10.6599 4.51988 9.19995 4.22988L9.20971 4.23965C9.19033 4.23623 8.36336 4.09318 7.8396 4.34024C7.64904 4.43042 6.94995 4.70102 6.94995 5.41055C6.98011 6.05036 7.36053 6.6099 8.3103 6.51992C8.79998 6.44992 8.97028 6.32034 9.19018 6.08047C9.28013 6.00052 9.44986 5.5803 9.57983 5.60977C9.73971 5.64974 9.77022 5.9097 9.77026 6.06973C9.79026 6.52973 9.52999 7.02035 8.98999 7.46035C8.43989 7.9103 7.03944 8.28043 6.00952 7.37051C4.85958 6.3505 4.85036 4.49026 5.85034 3.38027ZM8.04956 12.3998C7.3097 12.2402 6.53979 12.9208 6.32983 13.9105C6.11007 14.9104 6.54014 15.8404 7.28003 16.0004C8.02 16.1603 8.78976 15.4796 8.99975 14.4896C9.21957 13.4898 8.78947 12.5598 8.04956 12.3998ZM2.3103 10.7797C2.59017 10.7398 2.86044 10.8004 3.10034 10.9604C3.57005 11.2804 3.86997 11.91 3.98999 12.3998C4.03997 12.6397 4.12995 13.1198 3.8103 13.1801H3.78003C3.73015 13.1801 3.68033 13.16 3.64038 13.14C3.5304 13.0801 3.44986 12.9803 3.36987 12.8803C3.31987 12.8103 3.25995 12.7398 3.19995 12.6898C3.05997 12.5499 2.87989 12.4099 2.69995 12.2699C2.51001 12.14 2.32016 11.99 2.19018 11.85H2.19995L2.14038 11.7904C1.97038 11.6104 1.89995 11.35 1.94995 11.14C1.98996 10.9601 2.12031 10.8297 2.3103 10.7797ZM12.9705 11.4105C13.1403 11.4107 13.32 11.4806 13.4099 11.6205C13.4898 11.7404 13.5099 11.8703 13.4499 12.0102C13.2999 12.3701 12.9498 12.51 12.6199 12.64C12.4999 12.69 12.3802 12.7305 12.2703 12.7904C12.2003 12.8204 12.14 12.8598 12.0701 12.8998C11.9501 12.9698 11.8301 13.0499 11.6902 13.06H11.6697L11.5896 13.0199C11.49 12.9099 11.5402 12.7203 11.6101 12.5805C11.8901 12.0605 12.3505 11.4405 12.9705 11.4105ZM9.15014 9.92031C8.84019 9.74034 8.41021 9.92008 8.19018 10.31C7.97018 10.7 8.01983 11.1505 8.32983 11.3305C8.63983 11.5104 9.0598 11.3298 9.28979 10.9398C9.50968 10.55 9.45993 10.1004 9.15014 9.92031ZM10.4998 7.97988C10.2897 7.84019 9.93962 8.00038 9.70971 8.34024C9.47987 8.68018 9.48023 9.07038 9.69018 9.21035C9.90022 9.35006 10.2603 9.18986 10.4802 8.85C10.7101 8.51004 10.7097 8.11986 10.4998 7.97988ZM11.2595 6.16055C11.0296 6.11089 10.7799 6.36031 10.6999 6.72012C10.62 7.07997 10.7299 7.41992 10.9597 7.47012C11.1896 7.5201 11.4402 7.27034 11.5203 6.91055C11.6003 6.55055 11.4895 6.21055 11.2595 6.16055ZM10.8601 4.43984C10.6502 4.49981 10.5499 4.77988 10.6296 5.06973C10.7196 5.35972 10.9499 5.53986 11.1599 5.47988C11.3699 5.41988 11.4704 5.13999 11.3904 4.85C11.3004 4.56008 11.0701 4.37999 10.8601 4.43984ZM7.93042 3.92031C7.88042 3.85031 7.66971 3.90043 7.45971 4.04043C7.24991 4.18039 7.10994 4.35035 7.15991 4.42031C7.21003 4.49012 7.41984 4.43997 7.62964 4.3002C7.83929 4.16043 7.97971 3.99053 7.93042 3.92031ZM10.0798 3.72012C9.86991 3.59022 9.63036 3.59024 9.5603 3.72012C9.4903 3.84012 9.61007 4.05031 9.82007 4.17031C10.0298 4.30011 10.2694 4.29994 10.3396 4.17031C10.4096 4.05031 10.2898 3.84012 10.0798 3.72012ZM8.73022 3.51016C8.51043 3.55012 8.35023 3.68983 8.36987 3.81973C8.39987 3.94973 8.60007 4.02965 8.82007 3.98965C9.03995 3.94962 9.21032 3.81003 9.18042 3.68008C9.15043 3.55012 8.95014 3.47025 8.73022 3.51016Z" fill="#507096"/>
    </symbol>

    <!-- Medium: 33×33 영역 (x=18~51, y=0~33) -->
    <symbol id="icon-md" viewBox="18 0 33 33">
      <path d="M26.5799 26.6112C27.2997 26.3519 27.6898 28.161 28.9295 28.871C30.4195 29.731 31.4799 27.6416 32.3699 29.0116C33.2501 30.3813 35.4899 30.9808 36.4198 31.1708C36.6397 31.2208 36.89 31.2616 37.16 31.3016C37.6298 31.3716 38.0997 31.4417 38.4696 31.5917H38.4891L38.5994 31.6512C38.7594 31.7612 38.8196 31.9116 38.7596 32.0516C38.6495 32.3212 38.21 32.3417 38.0399 32.3417H37.7899C37.5499 32.3317 37.2791 32.3114 37.0291 32.2714C35.6993 32.0814 34.4394 31.9414 33.2196 31.6014C31.2097 31.0515 30.2997 31.3517 28.5799 31.3817C27.6 31.4017 26.5697 30.8511 25.4998 30.871C24.7699 30.891 23.9397 30.9814 23.2098 31.0614C22.9698 31.0814 22.7091 31.0809 22.5291 31.0809C21.4895 31.0509 21.3296 30.8512 21.2996 30.6512C21.2796 30.5013 21.3496 30.3116 21.8094 30.2216H21.8494C22.8294 30.1816 23.4894 29.5309 24.0994 29.0409C24.6995 28.5608 25.69 26.9012 26.5799 26.6112ZM28.5897 3.46082C31.3896 0.351113 35.03 0.571409 37.8299 2.02137C39.5597 2.92136 40.7893 4.47132 41.3992 6.28113C42.3292 9.01113 41.9195 12.2113 40.4295 14.6913C39.6195 16.0813 38.5591 17.3516 37.7791 18.7616C37.4093 19.3914 37.1194 20.0812 36.8895 20.7909C37.2094 20.401 37.5697 20.1316 37.9696 20.0116C38.5896 19.8116 38.8999 20.2011 39.1199 20.4911C39.3299 20.771 39.4099 20.8316 39.5799 20.7616C39.8499 20.6316 40.1995 20.3508 40.5594 20.0409C41.2794 19.4409 42.0795 18.7715 42.8895 18.8114C43.3095 18.7614 43.71 18.9614 43.91 19.3114C44.1098 19.6713 44.0597 20.1114 43.7899 20.4813C43.7299 20.6213 43.5993 20.7815 43.4793 20.9315C43.3094 21.1514 43.1197 21.3917 43.1297 21.5516C43.1702 21.6715 43.4298 21.8114 43.6795 21.9413C43.8495 22.0213 44.02 22.1213 44.16 22.2313C44.6798 22.5614 45.099 23.2511 44.8592 24.0009C44.6892 24.5208 44.1296 24.7811 43.5496 25.0311C43.2296 25.1711 43.0695 25.3513 43.1395 25.4813C43.3395 25.8612 44.6292 25.7611 45.7391 25.4012C46.679 25.0913 47.5092 24.8918 48.2791 25.0516C49.189 25.2316 49.8192 25.4314 50.4891 25.9413L50.6092 26.0409C50.6092 26.0409 50.7794 26.1914 50.8094 26.2714L50.8299 26.2909C50.8799 26.4008 50.8299 26.5613 50.7 26.6913C50.54 26.8513 50.2992 27.0312 49.8592 27.3212C49.4293 27.6111 49.1396 27.7715 48.7996 27.9315C47.7896 28.4015 45.7796 29.3708 43.2996 28.1708C42.2997 27.6908 41.7695 27.2611 41.3895 26.2811C41.2394 25.9313 40.6391 25.9909 40.1092 26.5009C40.1054 26.5044 38.7988 27.7195 38.5692 26.7909C38.3106 25.7102 43.4089 21.4312 39.8094 22.0311C35.9496 22.6711 38.1592 23.8415 38.3992 24.4315C38.6291 25.0015 38.2491 25.5811 37.5692 25.3212C37.3982 25.2502 36.4795 24.4921 36.4393 25.4208C36.3993 26.3508 37.0399 27.0815 37.3699 27.4315C37.6204 27.7017 38.5497 28.3112 38.9295 28.4012C39.3095 28.4912 40.1498 28.6515 40.7498 27.8016C41.3698 26.9116 42.5498 30.141 45.1698 29.661C47.7981 29.1813 47.2101 29.7006 47.1795 29.7411C47.0895 29.8411 46.8892 29.921 46.3992 30.161C45.0193 30.841 43.7794 31.2413 42.1395 31.1913C40.9095 31.1613 39.7493 30.8211 38.7293 30.5311C37.2995 30.0913 36.7992 30.5411 35.4393 29.8212C34.5795 29.3612 34.2294 28.7712 33.0096 27.9813C31.7896 27.1913 31.1993 27.4914 29.9393 27.5614C28.3597 27.6508 28.3994 23.2219 26.2 24.5009C24 25.7709 24.4195 28.1711 21.6395 29.2011C18.8624 30.23 18.3208 29.802 18.2 29.6815C18.03 29.5015 17.7198 29.2813 18.6698 28.4813C19.6197 27.6813 19.4399 26.8013 20.0399 25.7714C20.6499 24.7414 21.6399 25.1615 22.2899 25.3915L22.3797 25.4208C22.8195 25.5707 23.0391 25.4112 23.1092 25.3212C23.2292 25.1412 23.1694 24.9811 23.0994 24.7011C23.0695 24.6011 23.0296 24.5012 23.0096 24.4012C22.7596 23.5612 22.9496 22.8308 23.5096 22.4208C24.0095 21.981 24.7095 21.9716 25.2694 21.9716C25.9794 21.9616 26.2491 21.9312 26.2791 21.5712C26.2991 21.3613 26.2698 21.1314 26.2498 20.8915C26.2198 20.6015 26.1894 20.3013 26.2293 20.0214C26.2893 19.5914 26.5396 19.3116 26.9295 19.2216C27.4695 19.1016 28.1794 19.4015 28.5194 19.8915C28.6393 20.0315 28.7294 20.1817 28.8094 20.3417C28.8294 20.2218 28.8496 20.1314 28.8895 20.0116C28.9895 19.7316 29.2796 19.4309 29.4696 19.2909C29.9394 18.9909 29.9697 18.6312 30.1297 17.7313C30.2997 16.8314 31.0194 16.2514 31.5194 15.9813C31.7294 15.8613 31.9797 15.7612 32.1297 15.5712C32.3596 15.2812 32.39 14.8608 32.8699 14.2509C33.3497 13.6513 33.5992 13.5009 33.8192 13.3309C34.0392 13.1709 34.8899 12.911 35.0399 12.371C35.1199 12.0911 35.2399 11.8111 35.4598 11.6112C35.6998 11.3513 36.3792 10.9816 36.5096 10.7616C36.8795 10.0917 36.3696 9.77125 36.9891 8.63172C37.2291 8.16172 37.1595 7.83101 36.6795 7.41101C36.5097 7.27092 36.4997 6.88099 36.4198 6.49109C36.3698 6.08121 36.2995 6.1008 35.9295 5.96082C35.7296 5.88087 35.5097 5.84089 35.2098 5.62097C35.0199 5.49105 34.8497 5.23175 34.6199 5.18152C34.2299 5.15152 33.6895 5.26109 33.1395 4.99109C32.3596 4.70121 32.1492 5.35131 31.8992 5.69129C31.4292 6.201 30.5596 5.8216 30.5496 7.10144C30.6097 8.25124 31.2896 9.26119 32.9891 9.10144C33.859 8.97146 34.1695 8.75128 34.5594 8.3114C34.7294 8.17143 35.0394 7.42188 35.2694 7.47156C35.5692 7.53154 35.6099 8.01085 35.6199 8.2909C35.6599 9.12088 35.1795 9.99114 34.2196 10.7811C33.2496 11.5811 30.7297 12.261 28.8797 10.621C26.8198 8.79097 26.7997 5.4508 28.5897 3.46082ZM31.3299 19.7108C30.2799 19.7608 29.3396 21.0212 29.2196 22.5311C29.0996 24.0411 29.86 25.2313 30.91 25.1913C31.9598 25.141 32.8994 23.8808 33.0194 22.371C33.1393 20.8613 32.3797 19.6711 31.3299 19.7108ZM45.95 20.0106C46.46 19.8109 47.1393 19.9315 47.3992 20.2714C47.4892 20.3814 47.6494 20.6908 47.2596 21.0907C46.8197 21.4606 46.11 21.5506 45.5301 21.5507C45.3201 21.5507 45.1198 21.5406 44.9598 21.5106H44.91L44.7899 21.4608L44.7996 21.4813C44.6498 21.4014 44.5796 21.2613 44.5994 21.1014C44.7394 20.6214 45.22 20.2506 45.95 20.0106ZM22.0496 16.4012C22.5995 16.3113 23.0993 16.4313 23.5692 16.7411C24.4892 17.3511 25.0599 18.5716 25.2899 19.5116C25.3799 19.9817 25.5491 20.8916 24.9393 21.0116H24.8797C24.7797 21.0016 24.6892 20.9715 24.6092 20.9315C24.4193 20.8315 24.2594 20.6312 24.0994 20.4413C23.9994 20.3013 23.8894 20.1712 23.7694 20.0712C23.4994 19.8012 23.1494 19.5313 22.8094 19.2714C22.4594 19.0014 22.0997 18.721 21.8397 18.4511L21.8299 18.4608L21.7196 18.3407C21.3997 17.9907 21.2592 17.5006 21.3592 17.0907C21.4393 16.7409 21.6898 16.4912 22.0496 16.4012ZM33.2196 16.4012C32.6296 16.3513 31.9698 16.8914 31.7498 17.6014C31.5299 18.3114 31.82 18.9216 32.41 18.9716C32.9999 19.0213 33.6597 18.4811 33.8797 17.7714C34.0997 17.0614 33.8096 16.4512 33.2196 16.4012ZM43.5096 14.0009C43.9195 13.9509 44.3194 14.1013 44.5594 14.4012C44.7593 14.6612 44.8099 14.971 44.7 15.2909C44.4 16.1409 43.6295 16.5112 42.8895 16.8612C42.6296 16.9912 42.3599 17.1117 42.1199 17.2616C41.9801 17.3315 41.8401 17.4312 41.6903 17.5311C41.4303 17.7211 41.1497 17.9108 40.8397 17.9608H40.7996L40.6102 17.8915C40.3503 17.6615 40.45 17.2215 40.5799 16.8915C41.1399 15.6615 42.0997 14.171 43.5096 14.0009ZM35.16 13.7811C34.78 13.6911 34.2093 14.051 33.8992 14.5809C33.5794 15.1107 33.6395 15.6108 34.0291 15.7011C34.4091 15.7911 34.9799 15.4312 35.2899 14.9012H35.2996C35.6095 14.3714 35.5496 13.8714 35.16 13.7811ZM36.9696 11.3514C36.5996 11.2714 36.0691 11.6315 35.7791 12.1415C35.4995 12.6512 35.5697 13.1306 35.9393 13.2108C36.3093 13.2908 36.8397 12.9308 37.1297 12.4208C37.4094 11.9109 37.3394 11.4314 36.9696 11.3514ZM37.8094 8.55164C37.4595 8.6118 37.1492 9.06151 37.1092 9.5614C37.0693 10.0613 37.32 10.4212 37.66 10.3612C38.0098 10.3009 38.3191 9.85115 38.3592 9.35144C38.3992 8.85144 38.1494 8.49164 37.8094 8.55164ZM30.1297 7.7616C30.0598 7.82196 30.0597 8.311 30.2694 8.58094C30.4794 8.85094 30.7597 9.00129 30.8397 8.94129C30.9196 8.88124 30.7596 8.64115 30.5496 8.36121C30.3296 8.08121 30.1997 7.7016 30.1297 7.7616ZM37.0692 6.21082C36.8194 6.30094 36.7296 6.66128 36.8895 7.03113C37.0395 7.40113 37.3697 7.6309 37.6297 7.5409C37.8795 7.45077 37.9592 7.09137 37.8094 6.72156C37.6594 6.35156 37.3292 6.12082 37.0692 6.21082ZM30.4696 5.95105C30.3695 5.93116 29.9997 6.2411 29.9295 6.58094C29.8496 6.92062 29.9195 7.23035 30.0194 7.25086C30.1193 7.27085 30.1691 6.98134 30.2391 6.64148C30.3191 6.30148 30.5696 5.97105 30.4696 5.95105ZM36.3397 4.7909C35.9998 4.53106 35.5601 4.45149 35.3699 4.61121C35.18 4.77118 35.2996 5.11099 35.6395 5.37097C35.9792 5.63079 36.419 5.71118 36.6092 5.55164C36.7992 5.39164 36.6797 5.0509 36.3397 4.7909ZM32.0594 4.77137C31.9794 4.66137 31.6792 4.73152 31.3992 4.93152C31.1195 5.1315 30.9599 5.40165 31.0399 5.5116C31.1203 5.62106 31.4204 5.55121 31.7 5.35144C31.9799 5.15146 32.1394 4.88134 32.0594 4.77137ZM33.8797 4.25086C33.53 4.22088 33.23 4.33107 33.2196 4.50086C33.2096 4.66086 33.4799 4.82144 33.8299 4.85144C34.1796 4.88132 34.4788 4.77125 34.4891 4.60144C34.4991 4.44146 34.2297 4.28088 33.8797 4.25086Z" fill="#507096"/>
    </symbol>

    <!-- Large: 68×68 영역 (x=51~119, y=0~68) -->
    <symbol id="icon-lg" viewBox="51 0 68 68">
      <path d="M73.071 57.4598C74.5002 56.9205 72.7111 59.2702 75.2009 60.7001C78.1807 62.3995 80.3008 58.2299 82.0808 60.9696C83.8606 63.7094 88.3199 64.8998 90.1901 65.2899C90.6301 65.3999 91.1306 65.4804 91.6706 65.5604C92.6105 65.7104 93.5505 65.8503 94.3005 66.1503L94.5202 66.2704C94.8302 66.4904 94.9508 66.7902 94.8308 67.0702C94.6007 67.6101 93.7203 67.6503 93.3903 67.6503H92.8806C92.4006 67.6403 91.85 67.5896 91.36 67.5096C88.7104 67.1396 86.2307 66.3403 83.821 65.5604C80.511 64.4904 77.3801 63.4799 73.9401 63.5399C71.9803 63.58 70.0102 63.9702 68.1003 64.3602C66.6604 64.6502 65.2001 64.9495 63.7302 65.0995C63.2504 65.1494 62.7207 65.1495 62.3708 65.1395C60.3112 65.0795 59.9707 64.6901 59.9206 64.2801C59.8906 63.9901 60.0309 63.5998 60.9509 63.4198H61.0407C62.9905 63.3398 64.9504 62.8002 66.3903 62.1903C67.8003 61.5903 71.301 58.0498 73.071 57.4598ZM74.5309 9.93053C80.1309 3.72063 87.4105 4.14979 93.0104 7.04968C96.4704 8.83968 98.9401 11.9504 100.15 15.5604C102.01 21.0104 101.21 27.41 98.2204 32.37C96.5905 35.1498 94.4708 37.6798 92.9108 40.5096C92.1509 41.7896 91.5407 43.17 91.0808 44.62C91.7407 43.8001 92.4808 43.2499 93.2907 42.9999C94.5405 42.6 95.1505 43.3799 95.5905 43.9598C96.0304 44.5297 96.1904 44.6397 96.5202 44.4999C97.0501 44.2499 97.7405 43.6703 98.4704 43.0604C99.9004 41.8604 101.501 40.5105 103.121 40.6005C103.971 40.5105 104.761 40.9005 105.161 41.6005C105.561 42.3104 105.47 43.2007 104.921 43.9305C104.801 44.1905 104.55 44.5103 104.3 44.8202C103.961 45.24 103.581 45.7197 103.6 46.0497C103.68 46.2897 104.201 46.5602 104.701 46.8202C105.041 47.0001 105.401 47.1801 105.671 47.41C106.711 48.08 107.561 49.4599 107.081 50.9598C106.751 52.0098 105.62 52.5301 104.47 53.0301C103.831 53.3101 103.521 53.6498 103.661 53.9198C104.061 54.6798 106.63 54.4796 108.85 53.7596C110.71 53.1596 112.371 52.7502 113.921 53.0702C115.751 53.4402 117.001 53.8305 118.341 54.8505L118.581 55.0497C118.581 55.0497 118.91 55.3595 118.98 55.5096H118.94C119.04 55.7296 118.97 55.8905 118.97 55.8905C118.88 56.16 118.43 56.12 117.9 55.9901C117.38 55.8501 116.84 55.6703 116.3 55.4803C115.45 55.1903 114.57 54.8799 113.72 54.7499C112.16 54.4199 110.8 54.9003 109.35 55.4003C108.71 55.6302 108.04 55.8602 107.341 56.0301C106.711 56.2401 105.88 56.2804 105.15 56.3104C104.61 56.3303 103.632 56.2603 103.491 56.5897C103.441 56.6997 103.501 56.9005 103.741 57.1405C104.931 58.2804 107.941 59.6196 110.541 58.8397C111.391 58.5795 112.081 57.1301 113.281 56.9901C116.271 56.6402 117.59 57.1298 117.01 57.5897C116.36 57.9897 115.57 58.5004 114.89 58.8104C112.86 59.7405 108.85 61.6898 103.89 59.2899C101.9 58.3199 100.531 56.7095 99.821 54.5096C99.6211 54.0399 99.3507 53.7906 99.0309 53.8104C98.321 53.8504 97.4404 54.95 97.1804 55.8299C96.9904 56.2699 96.931 56.7499 96.861 57.2098C96.781 57.7898 96.6901 58.4003 96.4001 58.9003L96.3102 58.9999C96.1403 59.1298 95.9304 59.1096 95.7604 58.9696C95.2806 58.5489 94.9007 56.1101 95.9401 54.3905C96.9301 52.4805 99.1006 51.2997 101.631 51.2997H101.831C103.881 51.4596 105.311 50.7701 105.461 50.0301C105.591 49.4001 104.74 48.6798 103.23 48.1698C101.871 47.8399 101.201 47.43 101.031 46.8202C100.831 46.1002 101.461 45.3299 102.041 44.7499C103.141 43.7699 103.68 42.6502 103.52 42.3602C103.46 42.2502 103.06 42.1298 102.02 42.4598C101.12 42.7199 100.24 43.54 99.3903 44.3299C98.1504 45.4899 96.8506 46.6897 95.2907 46.4598C94.8007 46.2998 94.4901 45.9903 94.1901 45.6903C93.8503 45.3604 93.5607 45.0703 93.2009 45.0702C92.8209 45.1502 92.3309 45.6405 91.9509 46.3905C91.4311 47.4001 91.2206 48.6694 91.4802 49.2196C91.6902 49.7096 92.1806 49.8201 92.9606 49.9501C93.6905 50.07 94.5106 50.1999 94.9206 50.9696C95.4206 52.3796 94.5106 54.3003 93.7106 55.2303C93.6106 55.3403 93.43 55.5103 93.1901 55.4403C93.1001 55.4102 92.9503 55.3299 92.8903 55.1005L92.8708 54.9999L92.9001 54.91C93.6101 52.73 93.3402 52.1405 93.2302 52.1005C92.8698 52.001 91.6504 53.001 90.9206 54.9305C90.6006 55.7806 90.1805 57.3901 90.9001 58.8798C91.1301 59.3498 92.1705 60.5705 94.3005 61.1005C97.1303 61.8104 97.6507 60.2703 98.8405 58.5604C100.091 56.7804 102.221 63.3998 108.371 62.1698C108.543 62.1089 111.061 61.2408 111.39 61.9803C111.58 62.4103 111.11 62.8002 110.131 63.2801C107.381 64.6401 104.891 65.4504 101.621 65.3505C99.1708 65.2805 96.8402 64.5904 94.8102 64.0204C91.9405 63.1404 89.6909 61.0203 88.4509 58.8905C88.0609 58.3005 88.0903 58.1003 87.5505 57.5204C86.8105 56.7204 85.8003 58.5499 86.1501 60.3798C86.4901 62.2098 84.7009 62.4598 83.9509 61.1698C83.2009 59.8698 83.1507 58.5697 81.8308 57.5897C80.4908 56.7897 79.7304 57.5005 77.2204 57.6405C74.0509 57.8103 78.0503 54.0202 76.2009 52.7401C75.0509 51.9401 71.5506 55.4797 68.9206 58.2997C68.8006 58.4397 68.4807 58.8298 68.1208 58.62C67.7308 58.39 67.9102 57.7197 68.0602 57.3397C68.4904 56.1496 70.9602 52.9005 71.6804 51.9003C72.5603 50.6803 73.39 49.5201 73.6501 48.1503C74.0601 46.3703 73.8006 44.7196 72.9606 43.7196C72.1657 43.0131 71.9196 43.116 71.9108 43.12C71.5908 43.28 71.7402 44.8601 71.8102 45.5301C71.8502 45.9801 71.8806 46.37 71.8806 46.66C71.8306 48.27 70.8907 50.4902 70.0808 50.9003C69.8608 51.0002 69.6308 50.9999 69.4509 50.87C69.1209 50.65 68.8801 50.3304 68.6501 50.0204C68.4901 49.8104 68.3301 49.6005 68.1501 49.4305C67.7801 48.9705 67.2406 48.7101 66.6706 48.7001C66.1507 48.7101 65.6508 48.89 65.3308 49.2499C64.7308 49.9499 65.0208 50.9203 65.3308 51.9403C65.4307 52.2502 65.5305 52.5603 65.5905 52.8602C66.5403 58.21 59.6507 60.8899 56.7106 62.0399C56.6906 62.0399 54.0718 62.9996 53.7409 62.3104C53.5309 61.8705 54.1404 61.5601 54.6804 61.2801C55.1303 61.0302 55.7904 60.76 56.5602 60.4501C58.9901 59.4601 62.31 58.1003 61.8005 56.1005C61.3905 55.1805 60.1407 54.6606 59.1208 54.6405C58.2608 54.6105 57.2902 55.0296 56.2302 55.4696C54.7802 56.0796 53.1307 56.7796 51.5808 56.3397C51.4108 56.2697 50.9807 56.1098 51.0007 55.7098C51.0309 55.21 51.7408 55.0105 53.0505 54.6805L53.3806 54.5897C54.1805 54.4397 54.991 54.1597 55.7809 53.8798C56.4408 53.6498 57.1209 53.4098 57.7907 53.2499C59.2206 52.86 60.5806 53.3302 61.8806 53.7801L62.071 53.8397C62.9708 54.1296 63.441 54.05 63.571 53.87C63.8008 53.5 63.6602 52.9701 63.5202 52.4003C63.4602 52.2003 63.4106 51.9897 63.3806 51.7997C62.8707 50.1399 63.2208 48.6804 64.3405 47.8505C65.3505 46.9905 66.7508 46.9698 67.8708 46.9598C69.2906 46.9398 69.8303 46.87 69.8903 46.16C69.9203 45.75 69.8808 45.2897 69.8308 44.7997C69.7808 44.2199 69.7106 43.6102 69.8005 43.0604C69.9305 42.2004 70.4306 41.6398 71.2106 41.4598C72.2905 41.2099 73.7203 41.8101 74.3903 42.7899C74.6303 43.0599 74.8104 43.3703 74.9704 43.6903C75.0004 43.4403 75.0308 43.2801 75.1208 43.0301C75.3208 42.4801 75.8909 41.8797 76.2809 41.5897C77.2006 40.9797 77.5004 40.0499 77.4704 38.9901C77.5004 37.8903 78.2304 36.6406 79.2302 36.1005C79.6502 35.8505 80.1506 35.6601 80.4606 35.2801C80.9206 34.7001 80.9206 33.8298 81.3806 33.2098C81.6105 32.88 81.9004 32.5901 82.2302 32.3602C82.7502 31.9902 83.4405 31.8897 83.8405 31.5497C84.3504 31.1496 84.3905 30.26 84.9704 29.66C85.6604 28.73 87.1108 28.8301 87.4108 27.7401C87.5908 27.1901 87.8204 26.6196 88.2604 26.2196C88.7404 25.7097 89.4809 25.5297 89.7409 25.0897C90.0606 24.5498 89.9203 23.85 90.1901 23.2801C90.4001 22.6402 91.0301 22.25 91.2302 21.62C91.3902 21.12 90.9709 20.4298 90.9909 19.7098C90.961 19.1199 91.301 18.5298 91.111 17.9598C90.961 17.5399 90.3503 17.1903 90.0602 16.6005C89.7802 16.1305 89.8009 15.5297 89.4909 15.0897C89.1309 14.6198 88.3604 14.6901 87.7604 14.2401C87.3705 13.9901 87.0406 13.4703 86.5808 13.3602C85.8008 13.3102 85.2804 13.5303 84.1804 12.9803C82.6305 12.4104 82.2008 13.1402 81.7009 13.8202C80.7509 14.8402 78.4505 14.6501 78.4304 17.2098C78.5404 19.5198 79.9105 21.5397 83.3102 21.2098C85.0702 20.9498 85.6806 20.5 86.4606 19.62C86.7807 19.3398 87.4208 17.8501 87.8708 17.9501C88.4606 18.0803 88.551 19.0405 88.571 19.6005C88.6608 21.2503 87.7107 22.9804 85.7809 24.5702C83.8309 26.1702 78.7903 27.5299 75.1003 24.2499C70.9806 20.5898 70.9411 13.9205 74.5309 9.93053ZM83.0104 45.1005C80.9105 45.1806 79.0207 47.7004 78.7907 50.7303C78.5608 53.7501 80.0805 56.1295 82.1804 56.0497C84.2804 55.9697 86.1701 53.4498 86.4001 50.4198C86.63 47.3999 85.1104 45.0105 83.0104 45.1005ZM78.5202 42.2196C77.7103 41.8901 76.6107 42.7103 76.0808 44.0399C75.5508 45.3698 75.7805 46.7097 76.6003 47.0399C77.4103 47.3699 78.5107 46.5496 79.0407 45.2196C79.5705 43.8897 79.3401 42.5496 78.5202 42.2196ZM109.23 42.9501C110.25 42.5501 111.621 42.7996 112.131 43.4696C112.301 43.6996 112.62 44.32 111.85 45.12C110.98 45.87 109.57 46.0497 108.4 46.0497C107.98 46.0497 107.59 46.0299 107.27 45.9999L107.171 45.9803L106.93 45.8895V45.87C106.62 45.72 106.48 45.44 106.52 45.12C106.81 44.17 107.77 43.4201 109.23 42.9501ZM61.5007 35.7401C62.6005 35.5802 63.6008 35.8096 64.5407 36.4296C66.3806 37.6396 67.5204 40.0799 67.9704 41.9598C68.1404 42.8998 68.4803 44.7197 67.2604 44.9598H67.1501C66.9602 44.9498 66.7798 44.8896 66.6198 44.7997C66.2301 44.5897 65.9101 44.2 65.6003 43.8202C65.3803 43.5602 65.1604 43.2897 64.9304 43.0897C64.3905 42.5498 63.6805 42.01 63.0007 41.4901C62.3008 40.9502 61.5705 40.4001 61.0505 39.8602H61.0602L60.8405 39.62C60.1906 38.92 59.9101 37.94 60.11 37.12C60.28 36.42 60.7807 35.9301 61.5007 35.7401ZM85.9704 37.7401C84.9304 37.6502 83.7608 38.7306 83.3708 40.1405C82.981 41.5503 83.5008 42.7798 84.5407 42.8798C85.5806 42.9696 86.7403 41.9001 87.1403 40.4803C87.5303 39.0703 87.0104 37.8401 85.9704 37.7401ZM80.9704 36.7001C80.4404 36.3902 79.5501 36.9504 78.9802 37.9403C78.4105 38.9399 78.3706 39.9796 78.9001 40.2899C79.4301 40.5999 80.3203 40.0397 80.8903 39.0497C81.4602 38.0497 81.5004 37 80.9704 36.7001ZM104.4 30.9803C105.21 30.8903 106.02 31.2 106.49 31.7899C106.9 32.2898 107 32.9196 106.78 33.5594C106.18 35.2694 104.65 36.0001 103.16 36.7001C102.64 36.94 102.1 37.2002 101.62 37.4901C101.32 37.6301 101.04 37.8203 100.751 38.0301C100.211 38.4101 99.6597 38.7995 99.0397 38.8895H98.9606L98.5798 38.7401H98.6003C98.0703 38.3001 98.2798 37.4099 98.5397 36.7499C99.6497 34.2899 101.57 31.3104 104.4 30.9803ZM89.3903 32.4999C88.7003 32.3301 87.7 33.0504 87.1501 34.1102C86.6003 35.18 86.7105 36.1804 87.3903 36.3505C88.0803 36.5205 89.0806 35.8001 89.6306 34.7401C90.1806 33.6701 90.0703 32.6699 89.3903 32.4999ZM84.1608 32.7704C83.7608 32.4304 82.9104 32.7499 82.2604 33.4999C81.6104 34.2499 81.4005 35.1403 81.8005 35.4803C82.2005 35.8202 83.0509 35.4998 83.7009 34.7499C84.3505 34.0001 84.5604 33.1205 84.1608 32.7704ZM87.4304 29.4403C87.0404 29.1103 86.2308 29.44 85.6208 30.1698C85.0008 30.8998 84.8206 31.7499 85.2106 32.0799C85.6006 32.4099 86.4102 32.0802 87.0202 31.3505C87.6402 30.6205 87.8204 29.7703 87.4304 29.4403ZM92.6208 27.6298C91.9608 27.4798 91.0107 28.18 90.5007 29.2098C89.9907 30.2398 90.1209 31.1905 90.7809 31.3505C91.4408 31.5 92.3902 30.7999 92.9001 29.7704C93.41 28.7405 93.2807 27.7899 92.6208 27.6298ZM89.9909 26.1405C89.6109 25.9005 88.9306 26.2703 88.4606 26.9803C87.9908 27.6902 87.9207 28.4597 88.3005 28.7098C88.6805 28.9498 89.3608 28.58 89.8308 27.87C90.3005 27.1603 90.3704 26.3808 89.9909 26.1405ZM94.7009 22.9305C94.0809 22.8705 93.3505 23.5801 93.0505 24.5301C92.7505 25.4801 93.0106 26.3002 93.6306 26.3602C94.2506 26.4202 94.991 25.7096 95.2809 24.7596C95.5806 23.81 95.3205 22.9908 94.7009 22.9305ZM91.9001 22.4696C91.5202 22.3303 91.0001 22.8001 90.7302 23.5096C90.4702 24.2295 90.5603 24.9202 90.9401 25.0604C91.3201 25.2004 91.841 24.7303 92.111 24.0204C92.371 23.3004 92.2801 22.6096 91.9001 22.4696ZM81.5309 21.5096C80.9014 21.4597 80.241 21.1804 80.2302 21.3397C80.2202 21.4997 80.8603 22.0503 81.4802 22.1005C82.0997 22.1504 82.6392 21.9703 82.6501 21.8104C82.6701 21.6504 82.1508 21.5596 81.5309 21.5096ZM95.2106 18.3602C94.6406 18.4302 94.2009 19.1801 94.2009 20.0301C94.2009 20.8801 94.6709 21.5201 95.2409 21.4501C95.8107 21.3798 96.2506 20.6299 96.2507 19.7801C96.2507 18.9302 95.7806 18.2903 95.2106 18.3602ZM92.2106 18.6102C91.8706 18.6102 91.5905 19.1304 91.5905 19.7704C91.5906 20.4102 91.8707 20.9305 92.2106 20.9305C92.5505 20.9305 92.8307 20.4102 92.8308 19.7704C92.8308 19.1304 92.5506 18.6103 92.2106 18.6102ZM78.071 18.3505C77.911 18.4604 77.801 19.4096 78.1608 20.0096C78.5207 20.6094 79.0502 20.9598 79.2204 20.8602C79.3904 20.7602 79.1302 20.2404 78.7702 19.6405L78.7604 19.6298C78.4007 19.0399 78.2409 18.251 78.071 18.3505ZM78.9108 14.6005C78.7209 14.5305 77.9203 15.0597 77.6901 15.7196C77.4702 16.3794 77.5305 17.0196 77.7204 17.0799C77.9004 17.1499 78.0705 16.5798 78.3005 15.9198C78.5204 15.2603 79.0997 14.6611 78.9108 14.6005ZM95.1901 15.5497C94.9201 14.8901 94.3209 14.4808 93.861 14.6405C93.401 14.7905 93.2509 15.4502 93.5309 16.1102C93.801 16.7701 94.4011 17.1704 94.861 17.0204C95.3208 16.8702 95.4601 16.2095 95.1901 15.5497ZM91.5905 15.8798C91.3605 15.3799 90.9503 15.0701 90.6804 15.2001C90.4106 15.3302 90.3907 15.8399 90.6306 16.3397C90.8606 16.8397 91.2707 17.1504 91.5407 17.0204C91.8107 16.8904 91.8305 16.3798 91.5905 15.8798ZM89.0104 13.0897C88.5305 12.8198 88.0108 12.8105 87.8708 13.0604C87.731 13.3104 88.0004 13.7404 88.4802 14.0204C88.9602 14.2904 89.4708 14.3097 89.6208 14.0497C89.7603 13.7996 89.4902 13.3696 89.0104 13.0897ZM81.7009 12.6903C81.5509 12.4703 81.0002 12.6003 80.4802 12.9803C79.9604 13.3503 79.6611 13.8297 79.821 14.0497C79.971 14.2697 80.5207 14.1396 81.0407 13.7596C81.5603 13.3898 81.8504 12.9104 81.7009 12.6903ZM92.611 12.4696C92.071 12.0696 91.3905 11.9501 91.0905 12.2001C90.7806 12.45 90.9706 12.9798 91.5104 13.3798C92.0504 13.7798 92.7309 13.9003 93.0309 13.6503C93.3407 13.4002 93.1509 12.8695 92.611 12.4696ZM85.4401 11.8602C84.8204 11.8103 84.3011 12.0001 84.2809 12.2899C84.261 12.5799 84.7304 12.86 85.3503 12.91C85.9701 12.96 86.4901 12.7702 86.5104 12.4803C86.5304 12.1903 86.0601 11.9102 85.4401 11.8602ZM88.321 10.9999C87.561 10.9499 86.8805 11.1501 86.8005 11.4501C86.7205 11.7501 87.271 12.0397 88.0309 12.0897C88.7904 12.1396 89.47 11.9402 89.5505 11.6405C89.6305 11.3406 89.0808 11.0499 88.321 10.9999Z" fill="#507096"/>
    </symbol>
  </defs>

  <use class="icon-sm" href="#icon-sm" width="100%" height="100%"/>
  <use class="icon-md" href="#icon-md" width="100%" height="100%"/>
  <use class="icon-lg" href="#icon-lg" width="100%" height="100%"/>
</svg>
